<?xml version="1.0" encoding="UTF-8"?>
<!DOCTYPE svg PUBLIC "-//W3C//DTD SVG 1.1//EN" "http://www.w3.org/Graphics/SVG/1.1/DTD/svg11.dtd">
<!-- Creator: CorelDRAW 2020 (64-Bit) -->
<svg xmlns="http://www.w3.org/2000/svg" xml:space="preserve" width="512px" height="77px" version="1.1" style="shape-rendering:geometricPrecision; text-rendering:geometricPrecision; image-rendering:optimizeQuality; fill-rule:evenodd; clip-rule:evenodd"
viewBox="0 0 140.11 21.06"
 xmlns:xlink="http://www.w3.org/1999/xlink"
 xmlns:xodm="http://www.corel.com/coreldraw/odm/2003">
 <defs>
  <style type="text/css">
   <![CDATA[
    .fil0 {fill:#F08519;fill-rule:nonzero}
   ]]>
  </style>
 </defs>
 <g id="Layer_x0020_1">
  <metadata id="CorelCorpID_0Corel-Layer"/>
  <path class="fil0" d="M86.6 20.76l-2.94 0 -5.32 -9.8 -0.98 9.8 -3.26 0c0.51,-5.06 1.02,-10.13 1.52,-15.2l3.55 0 4.99 9.09 0.92 -9.09 3.26 0c-0.51,5.07 -1.02,10.14 -1.53,15.2l-0.21 0zm42.51 -4.3c0.02,-0.15 0.03,-0.3 0.05,-0.44l0.01 -0.03 0 -0.05c0.02,-0.14 0.04,-0.27 0.06,-0.41l0 -0.01 0 0 0.03 -0.14 0.03 -0.18 0 0c1.08,-6.27 4.64,-9.93 7.87,-13.25 0.37,-0.38 0.74,-0.76 1.1,-1.14 0.24,-0.27 0.48,-0.53 0.71,-0.81l0.1 0.12c0.75,0.97 1.06,1.85 1.04,2.62 -0.01,0.4 -0.12,0.78 -0.3,1.11 -0.18,0.33 -0.44,0.62 -0.75,0.87 -0.41,0.31 -0.91,0.56 -1.48,0.71 0.5,-0.03 1.01,-0.11 1.51,-0.22l0.21 -0.05 -0.09 0.19c-0.4,0.93 -0.9,1.56 -1.49,1.94 -0.23,0.14 -0.46,0.25 -0.71,0.32 0.24,-0.01 0.49,-0.04 0.74,-0.1l0.25 -0.06 -0.14 0.22c-0.51,0.85 -1.13,1.36 -1.83,1.65l-0.09 0.04c0.18,-0.05 0.37,-0.1 0.55,-0.17l0.25 -0.09 -0.12 0.24c-0.61,1.2 -1.27,1.91 -1.96,2.31 -0.29,0.17 -0.59,0.28 -0.89,0.35 0.14,0 0.28,-0.01 0.42,-0.03l0.26 -0.03 -0.16 0.2c-0.61,0.81 -1.26,1.5 -1.95,1.98 -0.67,0.47 -1.39,0.75 -2.17,0.75 -0.02,0.13 -0.04,0.26 -0.05,0.38l0 0.03 -0.02 0.02 -0.01 0.01 -0.01 0.02 0 0.01 -0.01 0.01 -0.01 0.02 -0.01 0.01 -0.01 0.01 0 0.01 -0.01 0.01 0 0 0 0.01 -0.01 0.01 0 0.01 -0.01 0 0 0.01 0 0 -0.01 0.01 0 0 -0.01 0.01 0 0.01 0 0.01 -0.01 0 0 0.01 0 0 -0.01 0.01 0 0 -0.01 0.01 0 0.01 0 0 -0.01 0.01 0 0.01 -0.01 0 0 0.01 0 0.01 -0.01 0 0 0.01 0 0 -0.01 0.01 0 0 -0.01 0.01 0 0 -0.01 0.01 0 0.01 0 0.01 0 0 -0.01 0.01 0 0 -0.01 0.01 0 0 0 0.01 -0.01 0.01 0 0 0 0.01 -0.01 0 0 0.01 0 0 -0.01 0.01 0 0 -0.01 0.01 0 0.01 0 0.01 -0.01 0 0 0.01 0 0 -0.01 0.01 0 0 -0.01 0.01 0 0 -0.01 0.02 0 0 -0.01 0.01 0 0 0 0.01 -0.01 0.01 0 0 0 0.01 -0.01 0 0 0.01 0 0 -0.01 0.01 0 0 0 0.01 -0.01 0.01 0 0 0 0.01 -0.01 0 -0.01 0.02 0 0.01 -0.04 0.06 0 0 -0.06 0.09 -0.05 0.07 0 0 -0.01 0.02 -0.01 0.01 -0.04 0.06 0 0 -0.02 0.03 0 0 -0.01 0.02 0 0 0 0.01 0 0 -0.01 0 0 0.01 0 0 -0.01 0.01 0 0 -0.01 0.01 0 0 0 0.01 -0.01 0.01 0 0 -0.01 0.01 0 0 0 0.01 -0.01 0.01 0 0 0 0 0 0 -0.01 0.01 0 0 0 0.01 0 0 -0.01 0 0 0 0 0.01 0 0 0 0.01 -0.01 0 0 0 0 0.01 0 0 0 0 -0.01 0.01 0 0 0 0 0 0.01 -0.01 0 0 0 0 0 0 0.01 0 0 -0.01 0 0 0.01 0 0 0 0 -0.01 0.01 0 0 0 0 0 0 0 0.01 0 0 -0.01 0.01 0 0 0 0 0 0 -0.01 0.01 0 0 0 0 0 0 0 0.01 -0.01 0 0 0 0 0 0 0.01 0 0 -0.01 0 0 0.01 0 0 0 0 0 0 0 0.01 -0.01 0 0 0 0 0 0 0.01 0 0 -0.01 0 -0.24 0.33 0 0 0 0 0.01 -0.06 0.04 -0.34zm9.88 -16.08l-0.01 0.01 -0.01 0.02 -0.01 0.01 -0.01 0.01 -0.01 0.02 -0.01 0.01 -0.01 0.02 -0.01 0.01 -0.01 0.02 -0.01 0.01 -0.01 0.02 -0.01 0.01 -0.01 0.02 -0.01 0.01 -0.02 0.02 0 0 -0.02 0.03 0 0.01 -0.02 0.02 0 0.01 -0.02 0.02 -0.01 0.01 -0.01 0.02 -0.01 0.01 -0.02 0.02 0 0.02 -0.02 0.02 -0.01 0.01 -0.01 0.02 -0.02 0.01 -0.01 0.02 -0.01 0.02 -0.01 0.01 -0.02 0.02 -0.01 0.01 -0.01 0.03 -0.01 0 -0.02 0.03 -0.01 0.01 -0.02 0.03 0 0 -0.03 0.03 0 0 -0.02 0.03 0 0.01 -0.03 0.03 0 0 -0.03 0.03 0 0.01 -0.02 0.03 -0.01 0.01 -0.02 0.02 -0.01 0.01 -0.02 0.02 -0.01 0.02 -0.02 0.02 -0.01 0.02 -0.02 0.01 -0.01 0.03 -0.01 0.01 -0.02 0.02 -0.01 0.02 -0.02 0.02 -0.01 0.01 -0.03 0.03 0 0.01 -0.03 0.03 0 0 -0.03 0.04 0 0 -0.03 0.04 0 0 -0.03 0.03 -0.01 0.01 -0.02 0.03 -0.01 0.01 -0.02 0.03 -0.01 0.01 -0.03 0.03 -0.01 0.01 -0.02 0.02 -0.01 0.02 -0.02 0.02 -0.02 0.02 -0.01 0.02 -0.02 0.02 -0.01 0.02 -0.03 0.03 -0.01 0.01 -0.02 0.03 -0.01 0.01 -0.03 0.03 0 0.01 -0.03 0.03 -0.01 0.01 -0.03 0.04 0 0 -0.03 0.04 -0.01 0 -0.03 0.04 0 0 -0.03 0.04 -0.01 0.01 -0.03 0.03 -0.01 0.01 -0.02 0.03 -0.02 0.02 -0.02 0.02 -0.01 0.02 -0.02 0.02 -0.02 0.03 -0.02 0.02 -0.02 0.02 -0.01 0.02 -0.03 0.03 -0.01 0.01 -0.03 0.03 -0.01 0.01 -0.03 0.04 0 0.01 -0.04 0.04 0 0 -0.04 0.04 0 0 -0.07 0.09 -0.05 0.05 -0.02 0.03 -0.08 0.09 -0.02 0.03 -0.05 0.06 -0.07 0.08 0 0.01 -0.08 0.09 -0.05 0.05 -0.03 0.04 -0.07 0.09 -0.03 0.02 -0.05 0.07 -0.07 0.09 -0.01 0 -0.13 0.15 -0.03 0.04 -0.08 0.1 -0.02 0.02 -0.06 0.07 -0.07 0.09 -0.01 0.01 -0.08 0.1 -0.04 0.05 -0.04 0.04 -0.08 0.1 -0.02 0.03 -0.06 0.07 -0.07 0.09 -0.01 0.01 -0.09 0.11 -0.04 0.05 -0.04 0.05 -0.08 0.1 -0.02 0.02 -0.06 0.08 -0.08 0.09 -0.01 0.02 -0.08 0.1 -0.04 0.06 -0.04 0.05 -0.09 0.11 -0.01 0.01 -0.07 0.09 -0.07 0.09 -0.01 0.02 -0.09 0.11 -0.04 0.05 -0.04 0.06 -0.08 0.11 -0.02 0.01 -0.07 0.1 -0.07 0.09 -0.01 0.02 -0.09 0.11 -0.03 0.05 -0.05 0.06 -0.08 0.12 -0.01 0.01 -0.07 0.1 -0.07 0.09 -0.02 0.02 -0.08 0.12 -0.04 0.05 -0.04 0.06 -0.08 0.12 -0.01 0.01 -0.08 0.11 -0.06 0.08 -0.02 0.03 -0.08 0.12 -0.03 0.05 -0.05 0.07 -0.08 0.12 0 0.01 -0.08 0.11 -0.06 0.08 -0.02 0.04 -0.08 0.12 -0.06 0.09 -0.02 0.03 -0.07 0.12 -0.01 0.01 -0.07 0.11 -0.05 0.09 -0.03 0.04 -0.07 0.12 -0.03 0.04 -0.05 0.08 -0.08 0.13 0 0 -0.1 0.17 -0.04 0.07 0 0.01 -0.08 0.12 -0.02 0.04 -0.05 0.09 -0.01 0.02 -0.1 0.17 -0.03 0.06 1.7 -0.06c0.76,-0.03 1.5,-0.11 2.16,-0.4 0.6,-0.25 1.15,-0.67 1.6,-1.35 -0.26,0.05 -0.53,0.07 -0.79,0.06 -0.35,-0.01 -0.7,-0.06 -1.04,-0.13l-2.05 -0.47 2.08 0.25c0.69,0.09 1.32,-0.03 1.86,-0.38 0.51,-0.32 0.96,-0.86 1.33,-1.64 -0.48,0.1 -0.91,0.16 -1.33,0.18 -0.62,0.02 -1.22,-0.03 -1.92,-0.13 0.38,-0.01 1.11,-0.06 1.86,-0.28 0.48,-0.14 0.97,-0.36 1.38,-0.68 0.3,-0.23 0.53,-0.5 0.7,-0.81 0.16,-0.3 0.26,-0.64 0.27,-1.01 0.02,-0.68 -0.25,-1.48 -0.9,-2.35zm-6.92 9.21l0 0 -0.04 0.07 0 0.01 0 0 -0.09 0.17 -0.03 0.06 -0.04 0.07 -0.04 0.08 -0.01 0.01 -0.03 0.06 -0.04 0.08 -0.04 0.08 0 0 -0.04 0.07 -0.04 0.08 -0.03 0.08 -0.01 0.01 -0.03 0.06 -0.04 0.08 -0.04 0.08 0 0 0 0.01 -0.07 0.15 -0.03 0.07 -0.04 0.08 -0.04 0.07 0 0.02 -0.03 0.06 -0.03 0.08 -0.04 0.08 -0.03 0.07 0 0.01 -0.03 0.08 -0.04 0.07 -0.01 0.02 -0.02 0.06 -0.03 0.08 -0.02 0.04 -0.03 0.09 -0.01 0.03 -0.04 0.08 0 0.01 -0.04 0.1 -0.05 0.14 -0.02 0.07 -0.03 0.08 -0.03 0.08 0 0 -0.03 0.07 0 0.01 -0.03 0.08 -0.01 0.03 -0.04 0.12 0 0.01 -0.02 0.08 -0.01 0.02 -0.04 0.12 0 0.02 -0.03 0.08 0 0 -0.05 0.16 -0.02 0.08 0 0 -0.03 0.13 -0.01 0.03 -0.02 0.08 -0.03 0.11 -0.03 0.12 -0.02 0.1 0 0 -0.02 0.08 -0.02 0.08 -0.01 0.06 -0.01 0.02 -0.01 0.09 -0.01 0.03 -0.02 0.1 -0.01 0.03 -0.01 0.08 -0.03 0.15 0 0.02c0.72,-0.02 1.39,-0.28 2.02,-0.71 0.61,-0.43 1.19,-1.03 1.75,-1.74 -0.21,0.01 -0.42,0.01 -0.62,0 -0.29,-0.02 -0.57,-0.07 -0.85,-0.14l-1.28 -0.31 1.32 0.1c0.69,0.05 1.37,-0.02 2.01,-0.4 0.61,-0.35 1.2,-0.96 1.75,-1.98 -0.34,0.11 -0.7,0.19 -1.07,0.23 -0.46,0.06 -0.95,0.07 -1.45,0.03l-1.71 -0.15zm-2.12 5.28l0 0 0.02 -0.12 0.01 -0.07 0 -0.02 0.03 -0.2 0.02 -0.06c0.01,-0.06 0.02,-0.12 0.03,-0.18l0.01 -0.03c0.01,-0.07 0.02,-0.13 0.04,-0.2l0.01 -0.03 0.04 -0.2 0.01 -0.03c0.02,-0.07 0.03,-0.13 0.05,-0.2l0.01 -0.03 0.05 -0.19 0.01 -0.05 0.05 -0.17 0.02 -0.06 0.05 -0.18 0.02 -0.04c0.04,-0.14 0.09,-0.28 0.14,-0.43l0 -0.01 0.08 -0.2 0 -0.03 0.08 -0.19 0.01 -0.03 0.08 -0.2 0.01 -0.02 0.07 -0.18 0.02 -0.05c0.09,-0.21 0.18,-0.42 0.27,-0.63l0.02 -0.03c0.27,-0.58 0.57,-1.15 0.89,-1.7l0 0 0.12 -0.21 0 0c0.16,-0.28 0.33,-0.55 0.5,-0.82l0 0c0.09,-0.13 0.17,-0.27 0.26,-0.4l0.01 -0.02c0.08,-0.12 0.17,-0.24 0.25,-0.36l0.05 -0.07 0.09 -0.14 0.01 -0.01 0.13 -0.18 0.01 -0.02c0.13,-0.19 0.26,-0.37 0.4,-0.55l0.01 -0.02 0.13 -0.17 0 -0.01 0.08 -0.1 0.06 -0.08 0.02 -0.03 0.1 -0.14 0.02 -0.02 0.07 -0.09 0.06 -0.09 0.02 -0.01 0.11 -0.15 0.01 -0.02 0.07 -0.08 0.07 -0.1 0.01 -0.01 0.25 -0.32 0.02 -0.02 0.05 -0.06 0.09 -0.11 0.05 -0.06 0.08 -0.11 0.05 -0.06 0.09 -0.11 0.04 -0.05 0.1 -0.11 0.03 -0.05 0.1 -0.12 0.04 -0.04 0.09 -0.12 0.04 -0.04 0.1 -0.12 0.02 -0.03 0.11 -0.13 0.02 -0.03 0.11 -0.12 0.02 -0.03 0.11 -0.13 0.02 -0.02 0.23 -0.28 0.01 -0.01 0.12 -0.13 0 -0.01 0.12 -0.14 0 0 0.12 -0.14 0 0 0.03 -0.04 0.03 -0.03 0.55 -0.65 -0.3 0.31c-3.2,3.29 -6.72,6.91 -7.8,13.08l0.4 -0.04c0.01,-0.09 0.03,-0.18 0.04,-0.27zm-0.15 0.5l-0.33 0.03c-0.03,0.21 -0.06,0.42 -0.09,0.64l0 -0.01 0.42 -0.66zm-117.39 5.39l-3.7 0 -5.21 -6.49 -0.66 6.49 -2.84 0 1.48 -14.67 2.84 0 -0.66 6.55 6.65 -6.55 3.38 0 -7.35 7.21 6.07 7.46zm15.87 -10.61l-4.63 10.63 -2.29 0 -1.47 -6.32 -2.75 6.32 -2.29 0 -2.51 -10.63 2.79 0 1.33 6.63 2.67 -6.63 2.35 0 1.35 6.63 2.66 -6.63 2.79 0zm11.6 5.3c-0.01,0.17 -0.04,0.35 -0.08,0.53 -0.03,0.18 -0.07,0.37 -0.12,0.57l-8.47 0c0.07,0.3 0.18,0.59 0.33,0.87 0.15,0.27 0.34,0.51 0.57,0.71 0.24,0.2 0.52,0.36 0.83,0.48 0.31,0.12 0.66,0.17 1.05,0.17 0.48,0 0.96,-0.08 1.46,-0.24 0.49,-0.17 0.91,-0.39 1.26,-0.67l1.5 1.67c-0.79,0.55 -1.55,0.93 -2.27,1.16 -0.73,0.23 -1.48,0.34 -2.27,0.34 -0.79,0 -1.52,-0.15 -2.18,-0.44 -0.66,-0.29 -1.22,-0.69 -1.68,-1.19 -0.45,-0.5 -0.79,-1.09 -1.02,-1.77 -0.22,-0.68 -0.3,-1.41 -0.22,-2.17 0.08,-0.77 0.3,-1.5 0.66,-2.18 0.36,-0.68 0.82,-1.27 1.39,-1.77 0.56,-0.5 1.2,-0.9 1.91,-1.19 0.72,-0.29 1.47,-0.44 2.25,-0.44 0.74,0 1.44,0.14 2.1,0.41 0.66,0.28 1.23,0.66 1.7,1.15 0.48,0.49 0.83,1.07 1.07,1.75 0.24,0.68 0.32,1.43 0.23,2.25zm-2.66 -1.03c-0.14,-0.67 -0.46,-1.21 -0.95,-1.62 -0.49,-0.41 -1.07,-0.62 -1.74,-0.62 -0.66,0 -1.28,0.21 -1.84,0.62 -0.57,0.41 -0.99,0.95 -1.27,1.62l5.8 0zm15.26 1.03c-0.02,0.17 -0.04,0.35 -0.08,0.53 -0.04,0.18 -0.08,0.37 -0.12,0.57l-8.47 0c0.06,0.3 0.17,0.59 0.32,0.87 0.15,0.27 0.35,0.51 0.58,0.71 0.24,0.2 0.51,0.36 0.82,0.48 0.32,0.12 0.67,0.17 1.06,0.17 0.48,0 0.96,-0.08 1.46,-0.24 0.49,-0.17 0.91,-0.39 1.25,-0.67l1.51 1.67c-0.79,0.55 -1.55,0.93 -2.28,1.16 -0.72,0.23 -1.48,0.34 -2.26,0.34 -0.79,0 -1.52,-0.15 -2.18,-0.44 -0.66,-0.29 -1.22,-0.69 -1.68,-1.19 -0.46,-0.5 -0.8,-1.09 -1.02,-1.77 -0.23,-0.68 -0.3,-1.41 -0.22,-2.17 0.07,-0.77 0.29,-1.5 0.66,-2.18 0.36,-0.68 0.82,-1.27 1.38,-1.77 0.57,-0.5 1.21,-0.9 1.92,-1.19 0.71,-0.29 1.46,-0.44 2.24,-0.44 0.75,0 1.45,0.14 2.11,0.41 0.66,0.28 1.22,0.66 1.7,1.15 0.47,0.49 0.83,1.07 1.07,1.75 0.24,0.68 0.31,1.43 0.23,2.25zm-2.66 -1.03c-0.14,-0.67 -0.46,-1.21 -0.95,-1.62 -0.49,-0.41 -1.07,-0.62 -1.74,-0.62 -0.66,0 -1.28,0.21 -1.84,0.62 -0.57,0.41 -0.99,0.95 -1.27,1.62l5.8 0zm13.86 6.34l-3.13 0 -3.78 -4.74 -0.48 4.74 -2.69 0 1.53 -15.2 2.69 0 -0.91 9.1 4.15 -4.49 3.08 0 -4.86 5.15 4.4 5.44zm8.99 -2.97c-0.05,0.53 -0.22,1 -0.51,1.41 -0.28,0.41 -0.64,0.75 -1.06,1.02 -0.41,0.28 -0.88,0.49 -1.38,0.63 -0.5,0.14 -1,0.21 -1.47,0.21 -0.81,0 -1.54,-0.15 -2.19,-0.45 -0.65,-0.3 -1.2,-0.78 -1.65,-1.44l1.76 -1.61c0.28,0.4 0.61,0.71 1,0.94 0.4,0.23 0.83,0.34 1.31,0.34 0.41,0 0.77,-0.08 1.06,-0.23 0.29,-0.15 0.45,-0.38 0.48,-0.69 0.03,-0.32 -0.14,-0.58 -0.51,-0.8 -0.37,-0.21 -0.9,-0.42 -1.58,-0.63 -0.41,-0.12 -0.8,-0.28 -1.17,-0.47 -0.37,-0.19 -0.69,-0.42 -0.97,-0.69 -0.28,-0.28 -0.49,-0.59 -0.64,-0.95 -0.15,-0.35 -0.2,-0.76 -0.15,-1.23 0.05,-0.51 0.22,-0.97 0.49,-1.38 0.28,-0.41 0.63,-0.75 1.05,-1.03 0.41,-0.27 0.87,-0.48 1.37,-0.63 0.51,-0.15 1.01,-0.22 1.51,-0.22 1.62,0 2.88,0.61 3.79,1.83l-1.74 1.6c-0.27,-0.38 -0.58,-0.68 -0.95,-0.9 -0.37,-0.22 -0.79,-0.33 -1.25,-0.33 -0.16,0 -0.33,0.02 -0.51,0.07 -0.19,0.04 -0.36,0.1 -0.52,0.18 -0.16,0.08 -0.29,0.18 -0.4,0.31 -0.12,0.13 -0.18,0.27 -0.19,0.43 -0.03,0.28 0.13,0.53 0.48,0.73 0.35,0.21 0.87,0.42 1.54,0.63 0.44,0.13 0.85,0.3 1.23,0.51 0.39,0.21 0.72,0.45 1,0.73 0.27,0.27 0.48,0.58 0.63,0.93 0.14,0.35 0.19,0.74 0.14,1.18zm11.27 2.51l2.45 0 1.44 -14.28 -2.34 0 -1.02 10.15 -5.57 -10.15 -2.86 0 -1.44 14.28 2.34 0 1.1 -10.87 5.9 10.87zm16.82 -5.09c-0.01,0.1 -0.02,0.19 -0.03,0.28 -0.02,0.09 -0.03,0.19 -0.05,0.28 -0.06,0.25 -0.11,0.5 -0.17,0.76l-8.39 0 0.04 0.13c0.05,0.14 0.11,0.27 0.19,0.4 0.07,0.13 0.14,0.25 0.23,0.35 0.09,0.11 0.19,0.21 0.29,0.31 0.11,0.09 0.23,0.17 0.36,0.24 0.12,0.08 0.26,0.14 0.4,0.19 0.14,0.06 0.3,0.1 0.46,0.12 0.16,0.03 0.34,0.04 0.52,0.04 0.23,0 0.46,-0.02 0.69,-0.06 0.23,-0.03 0.47,-0.09 0.7,-0.17 0.24,-0.08 0.45,-0.17 0.66,-0.28 0.19,-0.11 0.38,-0.23 0.54,-0.36l0.16 -0.13 1.83 2.03 -0.21 0.15c-0.4,0.28 -0.8,0.52 -1.19,0.72 -0.4,0.2 -0.78,0.36 -1.16,0.48 -0.37,0.11 -0.76,0.2 -1.15,0.26 -0.39,0.06 -0.78,0.09 -1.19,0.09 -0.83,0 -1.59,-0.16 -2.28,-0.46 -0.35,-0.16 -0.67,-0.34 -0.96,-0.55 -0.3,-0.21 -0.57,-0.44 -0.81,-0.71 -0.24,-0.26 -0.45,-0.55 -0.63,-0.86 -0.17,-0.31 -0.32,-0.64 -0.44,-1 -0.12,-0.35 -0.2,-0.72 -0.24,-1.1 -0.04,-0.38 -0.04,-0.77 0.01,-1.17 0.04,-0.4 0.11,-0.8 0.23,-1.17 0.11,-0.38 0.26,-0.75 0.45,-1.1 0.19,-0.35 0.41,-0.68 0.65,-0.99 0.24,-0.31 0.5,-0.59 0.8,-0.85 0.29,-0.26 0.6,-0.5 0.93,-0.7 0.34,-0.21 0.69,-0.39 1.06,-0.54 0.37,-0.16 0.76,-0.27 1.14,-0.35 0.39,-0.07 0.79,-0.11 1.2,-0.11 0.78,0 1.51,0.14 2.2,0.43 0.35,0.14 0.67,0.32 0.97,0.52 0.29,0.2 0.57,0.43 0.82,0.68 0.25,0.26 0.47,0.54 0.66,0.85 0.18,0.31 0.34,0.64 0.47,1 0.12,0.36 0.2,0.73 0.24,1.13 0.04,0.39 0.04,0.8 0,1.22zm-0.49 0.21c0.02,-0.09 0.03,-0.18 0.03,-0.25 0.04,-0.4 0.05,-0.78 0.01,-1.14 -0.04,-0.36 -0.11,-0.7 -0.23,-1.02 -0.11,-0.33 -0.25,-0.63 -0.42,-0.91 -0.17,-0.28 -0.37,-0.53 -0.6,-0.77 -0.23,-0.23 -0.48,-0.44 -0.75,-0.62 -0.27,-0.19 -0.57,-0.34 -0.88,-0.48 -0.63,-0.26 -1.31,-0.39 -2.03,-0.39 -0.38,0 -0.75,0.03 -1.11,0.1 -0.36,0.07 -0.71,0.18 -1.06,0.32 -0.34,0.14 -0.67,0.31 -0.98,0.51 -0.31,0.19 -0.6,0.41 -0.88,0.65 -0.27,0.24 -0.52,0.51 -0.74,0.79 -0.23,0.29 -0.43,0.59 -0.6,0.92 -0.18,0.33 -0.32,0.67 -0.42,1.02 -0.11,0.35 -0.18,0.71 -0.22,1.08 -0.04,0.37 -0.04,0.73 0,1.08 0.03,0.35 0.11,0.69 0.21,1.01 0.11,0.32 0.25,0.63 0.41,0.91 0.16,0.28 0.35,0.55 0.57,0.79 0.22,0.24 0.46,0.45 0.73,0.64 0.27,0.19 0.56,0.36 0.88,0.5 0.64,0.28 1.34,0.42 2.1,0.42 0.39,0 0.76,-0.03 1.13,-0.08 0.36,-0.06 0.72,-0.14 1.08,-0.25 0.35,-0.11 0.71,-0.26 1.08,-0.45 0.3,-0.15 0.61,-0.33 0.92,-0.54l-1.19 -1.33c-0.14,0.1 -0.28,0.19 -0.44,0.27 -0.22,0.12 -0.46,0.22 -0.72,0.31 -0.26,0.09 -0.52,0.15 -0.77,0.2 -0.26,0.04 -0.52,0.06 -0.77,0.06 -0.2,0 -0.4,-0.01 -0.59,-0.04 -0.19,-0.04 -0.38,-0.08 -0.55,-0.15 -0.17,-0.06 -0.33,-0.14 -0.47,-0.22 -0.15,-0.09 -0.29,-0.19 -0.42,-0.3 -0.13,-0.11 -0.25,-0.23 -0.36,-0.36 -0.1,-0.13 -0.2,-0.27 -0.28,-0.42 -0.08,-0.15 -0.15,-0.3 -0.2,-0.46 -0.06,-0.15 -0.11,-0.31 -0.15,-0.48l-0.06 -0.27 8.62 0 0.08 -0.39 0.04 -0.26zm-2.71 -1.49c-0.06,-0.21 -0.15,-0.4 -0.25,-0.57 -0.14,-0.25 -0.33,-0.47 -0.55,-0.66 -0.23,-0.18 -0.47,-0.33 -0.74,-0.42 -0.27,-0.09 -0.56,-0.14 -0.87,-0.14 -0.31,0 -0.6,0.05 -0.89,0.14 -0.28,0.1 -0.56,0.24 -0.82,0.43 -0.27,0.2 -0.5,0.42 -0.7,0.67 -0.13,0.17 -0.25,0.35 -0.35,0.55l5.17 0zm0.15 -0.8c0.17,0.29 0.29,0.62 0.37,0.98l0.06 0.28 -6.45 0 0.13 -0.32c0.15,-0.36 0.33,-0.68 0.56,-0.97 0.22,-0.28 0.48,-0.54 0.79,-0.76 0.3,-0.22 0.62,-0.38 0.95,-0.49 0.33,-0.11 0.68,-0.17 1.03,-0.17 0.36,0 0.7,0.06 1.02,0.17 0.32,0.11 0.61,0.28 0.88,0.5 0.27,0.22 0.49,0.48 0.66,0.78zm20.41 -3.17l-4.71 10.82 -2.64 0 -1.36 -5.86 -2.54 5.86 -2.64 0c-0.87,-3.71 -1.75,-7.43 -2.62,-11.14l3.28 0 1.22 6.1 2.45 -6.1 2.7 0 1.24 6.1 2.45 -6.1 3.31 0 -0.14 0.32zm-5.01 10.36l4.45 -10.22 -2.3 0 -2.9 7.23 -1.47 -7.23 -2.02 0 -2.91 7.23 -1.45 -7.23 -2.32 0 2.41 10.22 1.97 0 2.97 -6.85 1.6 6.85 1.97 0zm13.26 -2.75c-0.03,0.28 -0.09,0.55 -0.18,0.8 -0.09,0.26 -0.21,0.5 -0.37,0.72 -0.15,0.22 -0.32,0.42 -0.51,0.6 -0.18,0.18 -0.39,0.34 -0.61,0.49 -0.23,0.15 -0.46,0.27 -0.7,0.38 -0.24,0.11 -0.5,0.2 -0.76,0.28 -0.27,0.07 -0.53,0.13 -0.78,0.16 -0.26,0.04 -0.51,0.06 -0.76,0.06 -0.42,0 -0.82,-0.04 -1.21,-0.12 -0.38,-0.08 -0.74,-0.2 -1.09,-0.36 -0.34,-0.16 -0.66,-0.36 -0.96,-0.62 -0.29,-0.25 -0.55,-0.55 -0.79,-0.9l-0.11 -0.17 2.11 -1.93 0.15 0.22c0.13,0.19 0.27,0.36 0.43,0.5 0.15,0.15 0.32,0.28 0.5,0.38 0.18,0.1 0.37,0.18 0.57,0.23 0.2,0.05 0.41,0.08 0.63,0.08 0.19,0 0.37,-0.02 0.53,-0.05 0.16,-0.04 0.3,-0.09 0.43,-0.15 0.11,-0.06 0.2,-0.14 0.26,-0.22 0.05,-0.08 0.09,-0.18 0.1,-0.3 0.01,-0.1 -0.01,-0.2 -0.07,-0.29 -0.06,-0.1 -0.17,-0.2 -0.33,-0.29 -0.35,-0.2 -0.87,-0.41 -1.54,-0.61 -0.21,-0.06 -0.41,-0.14 -0.62,-0.22 -0.2,-0.08 -0.4,-0.17 -0.59,-0.27 -0.19,-0.09 -0.38,-0.21 -0.55,-0.33 -0.17,-0.12 -0.34,-0.26 -0.48,-0.41 -0.16,-0.15 -0.29,-0.31 -0.4,-0.48 -0.12,-0.17 -0.22,-0.35 -0.3,-0.54 -0.08,-0.2 -0.13,-0.41 -0.16,-0.64 -0.03,-0.22 -0.03,-0.45 0,-0.71 0.02,-0.27 0.08,-0.54 0.17,-0.78 0.09,-0.26 0.21,-0.49 0.36,-0.71 0.15,-0.22 0.32,-0.42 0.5,-0.6 0.19,-0.18 0.39,-0.35 0.61,-0.5 0.22,-0.14 0.45,-0.27 0.69,-0.38 0.24,-0.11 0.49,-0.2 0.76,-0.28 0.26,-0.08 0.53,-0.14 0.79,-0.17 0.27,-0.04 0.53,-0.06 0.79,-0.06 0.85,0 1.6,0.16 2.27,0.48 0.67,0.32 1.24,0.81 1.72,1.45l0.12 0.17 -2.09 1.92 -0.15 -0.22c-0.12,-0.17 -0.26,-0.33 -0.41,-0.47 -0.15,-0.14 -0.31,-0.26 -0.48,-0.36 -0.16,-0.1 -0.34,-0.18 -0.53,-0.23 -0.19,-0.05 -0.39,-0.07 -0.61,-0.07 -0.07,0 -0.15,0 -0.22,0.01 -0.07,0.01 -0.16,0.03 -0.24,0.05 -0.08,0.02 -0.16,0.04 -0.24,0.07 -0.08,0.03 -0.16,0.06 -0.22,0.09 -0.07,0.04 -0.13,0.07 -0.19,0.12 -0.06,0.04 -0.11,0.09 -0.15,0.14 -0.04,0.05 -0.07,0.1 -0.1,0.15 -0.02,0.05 -0.03,0.1 -0.04,0.16 -0.01,0.08 0.01,0.17 0.07,0.24 0.06,0.1 0.16,0.19 0.31,0.27 0.17,0.1 0.37,0.2 0.62,0.3 0.25,0.1 0.55,0.21 0.88,0.31 0.23,0.07 0.45,0.15 0.66,0.24 0.21,0.08 0.42,0.18 0.62,0.29 0.2,0.11 0.39,0.23 0.56,0.36 0.17,0.12 0.34,0.26 0.48,0.41 0.16,0.15 0.29,0.31 0.4,0.47 0.11,0.17 0.21,0.35 0.29,0.54 0.08,0.2 0.13,0.4 0.16,0.62 0.03,0.21 0.03,0.44 0,0.68zm-0.61 0.65c0.08,-0.22 0.13,-0.45 0.16,-0.69 0.02,-0.21 0.02,-0.4 -0.01,-0.58 -0.02,-0.18 -0.06,-0.35 -0.13,-0.5 -0.06,-0.16 -0.14,-0.31 -0.24,-0.46 -0.1,-0.14 -0.21,-0.28 -0.34,-0.41 -0.13,-0.13 -0.27,-0.25 -0.43,-0.36 -0.16,-0.12 -0.33,-0.23 -0.51,-0.33 -0.18,-0.1 -0.38,-0.19 -0.58,-0.27 -0.2,-0.09 -0.41,-0.16 -0.62,-0.22 -0.34,-0.11 -0.65,-0.22 -0.91,-0.32 -0.27,-0.11 -0.5,-0.22 -0.69,-0.33 -0.2,-0.12 -0.36,-0.26 -0.46,-0.41 -0.11,-0.17 -0.15,-0.35 -0.13,-0.55 0.01,-0.1 0.03,-0.2 0.07,-0.3 0.04,-0.09 0.1,-0.18 0.17,-0.26 0.07,-0.08 0.14,-0.15 0.22,-0.21 0.08,-0.06 0.17,-0.11 0.26,-0.16 0.09,-0.04 0.18,-0.08 0.28,-0.11 0.09,-0.04 0.19,-0.07 0.29,-0.09 0.1,-0.02 0.19,-0.04 0.29,-0.05 0.1,-0.01 0.19,-0.02 0.27,-0.02 0.25,0 0.5,0.03 0.73,0.09 0.22,0.06 0.44,0.15 0.65,0.27 0.2,0.12 0.38,0.26 0.55,0.42 0.12,0.11 0.22,0.22 0.32,0.34l1.4 -1.29c-0.4,-0.5 -0.88,-0.88 -1.42,-1.15 -0.6,-0.29 -1.29,-0.43 -2.07,-0.43 -0.24,0 -0.48,0.01 -0.72,0.05 -0.25,0.04 -0.49,0.09 -0.73,0.16 -0.25,0.07 -0.48,0.15 -0.7,0.26 -0.22,0.1 -0.43,0.21 -0.62,0.35 -0.2,0.13 -0.38,0.27 -0.55,0.43 -0.16,0.17 -0.31,0.34 -0.44,0.53 -0.13,0.2 -0.23,0.4 -0.31,0.61 -0.07,0.21 -0.13,0.44 -0.15,0.68 -0.02,0.21 -0.02,0.42 0,0.61 0.03,0.18 0.07,0.36 0.14,0.51 0.06,0.17 0.15,0.32 0.25,0.47 0.1,0.14 0.21,0.28 0.34,0.41 0.13,0.13 0.27,0.25 0.42,0.36 0.16,0.11 0.32,0.21 0.5,0.3 0.18,0.09 0.37,0.17 0.55,0.25 0.19,0.07 0.38,0.14 0.58,0.2 0.71,0.21 1.26,0.43 1.64,0.66 0.22,0.12 0.38,0.27 0.49,0.43 0.11,0.18 0.16,0.38 0.14,0.59 -0.02,0.19 -0.08,0.36 -0.19,0.51 -0.1,0.15 -0.24,0.27 -0.42,0.36 -0.16,0.09 -0.35,0.15 -0.54,0.2 -0.2,0.04 -0.41,0.06 -0.63,0.06 -0.26,0 -0.51,-0.03 -0.74,-0.1 -0.24,-0.06 -0.47,-0.15 -0.68,-0.27 -0.22,-0.13 -0.42,-0.27 -0.6,-0.44 -0.12,-0.12 -0.23,-0.24 -0.33,-0.37l-1.43 1.31c0.18,0.25 0.38,0.47 0.59,0.66 0.26,0.22 0.55,0.41 0.85,0.55 0.31,0.14 0.64,0.25 0.99,0.32 0.35,0.07 0.72,0.11 1.12,0.11 0.23,0 0.46,-0.02 0.69,-0.05 0.24,-0.04 0.48,-0.09 0.73,-0.15 0.24,-0.07 0.47,-0.16 0.69,-0.26 0.22,-0.1 0.44,-0.21 0.63,-0.34 0.2,-0.13 0.39,-0.28 0.55,-0.44 0.17,-0.16 0.32,-0.34 0.46,-0.53 0.13,-0.19 0.23,-0.4 0.31,-0.61zm4.54 2.54l-3.07 0 0.33 -3.28 3.28 0 -0.33 3.28 -0.21 0zm-2.56 -0.46l2.36 0 0.23 -2.36 -2.36 0 -0.23 2.36z"/>
 </g>
</svg>
