<?xml version="1.0" encoding="UTF-8"?>
<!DOCTYPE svg PUBLIC "-//W3C//DTD SVG 1.1//EN" "http://www.w3.org/Graphics/SVG/1.1/DTD/svg11.dtd">
<!-- Creator: CorelDRAW 2020 (64-Bit) -->
<svg xmlns="http://www.w3.org/2000/svg" xml:space="preserve" width="512px" height="99px" version="1.1" style="shape-rendering:geometricPrecision; text-rendering:geometricPrecision; image-rendering:optimizeQuality; fill-rule:evenodd; clip-rule:evenodd"
viewBox="0 0 135.42 26.3"
 xmlns:xlink="http://www.w3.org/1999/xlink"
 xmlns:xodm="http://www.corel.com/coreldraw/odm/2003">
 <defs>
  <style type="text/css">
   <![CDATA[
    .fil0 {fill:#F08519;fill-rule:nonzero}
   ]]>
  </style>
 </defs>
 <g id="Layer_x0020_1">
  <metadata id="CorelCorpID_0Corel-Layer"/>
  <path class="fil0" d="M124.02 17.06c0.01,-0.15 0.03,-0.3 0.05,-0.45l0.01 -0.04 0 -0.04c0.02,-0.15 0.04,-0.29 0.06,-0.43l0.01 0 0 -0.01 0.02 -0.14 0.03 -0.19 0 0c1.12,-6.5 4.81,-10.3 8.16,-13.74 0.38,-0.4 0.77,-0.79 1.14,-1.18 0.26,-0.28 0.5,-0.55 0.74,-0.84l0.1 0.13c0.78,1 1.1,1.92 1.08,2.71 -0.01,0.42 -0.12,0.81 -0.31,1.15 -0.19,0.34 -0.45,0.65 -0.78,0.9 -0.42,0.33 -0.94,0.58 -1.53,0.74 0.52,-0.04 1.04,-0.11 1.56,-0.23l0.22 -0.05 -0.09 0.2c-0.41,0.96 -0.94,1.61 -1.54,2 -0.24,0.15 -0.49,0.27 -0.74,0.34 0.25,-0.01 0.51,-0.04 0.76,-0.1l0.26 -0.07 -0.14 0.23c-0.52,0.89 -1.18,1.41 -1.9,1.72l-0.09 0.03c0.19,-0.04 0.38,-0.1 0.57,-0.17l0.26 -0.1 -0.13 0.26c-0.63,1.24 -1.31,1.98 -2.02,2.39 -0.31,0.18 -0.62,0.29 -0.93,0.36 0.15,0 0.29,-0.01 0.44,-0.03l0.26 -0.03 -0.16 0.21c-0.64,0.84 -1.3,1.55 -2.02,2.05 -0.7,0.49 -1.44,0.78 -2.26,0.78 -0.01,0.13 -0.03,0.26 -0.05,0.39l0 0.03 -0.01 0.02 -0.01 0.02 -0.01 0.01 -0.01 0.01 -0.01 0.02 -0.01 0.01 -0.01 0.02 -0.01 0.01 0 0.01 0 0.01 -0.01 0 0 0.01 -0.01 0 0 0.01 0 0.01 -0.01 0.01 0 0 -0.01 0.01 0 0 -0.01 0.01 0 0 -0.01 0.02 0 0 0 0.01 0 0 -0.01 0.01 0 0.01 -0.01 0 0 0.01 -0.01 0.01 0 0 0 0.01 -0.01 0.01 0 0 -0.01 0.01 0 0 0 0.01 -0.01 0 0 0.01 0 0.01 -0.01 0.01 0 0 -0.01 0.01 0 0 -0.01 0.01 0 0 0 0.01 0 0.01 -0.01 0 0 0.01 -0.01 0.01 0 0 0 0.01 -0.01 0 0 0.01 -0.01 0.01 0 0 0 0.01 -0.01 0 0 0.01 0 0 -0.01 0.01 0 0.01 -0.01 0.01 0 0 -0.01 0.01 0 0 0 0.01 0 0 -0.02 0.02 0 0 0 0.01 -0.01 0.01 0 0 0 0.01 -0.01 0 0 0.01 0 0.01 -0.01 0 0 0.01 0 0 -0.01 0.01 0 0 0 0.01 -0.01 0 0 0.01 -0.01 0.01 -0.01 0.02 0 0 -0.04 0.06 0 0 -0.07 0.11 -0.04 0.06 0 0 -0.02 0.03 0 0 -0.04 0.07 0 0 -0.03 0.03 0 0 -0.01 0.02 0 0 0 0.01 0 0 -0.01 0 0 0.01 0 0 -0.01 0.01 0 0 0 0.01 -0.01 0 0 0.01 -0.01 0.01 0 0 -0.01 0.01 0 0 0 0.01 -0.01 0.01 0 0 0 0 0 0.01 -0.01 0 0 0 0 0.01 0 0 -0.01 0.01 0 0 0 0 0 0 -0.01 0.01 0 0 0 0.01 0 0 0 0 -0.01 0.01 0 0 0 0 0 0.01 -0.01 0 0 0 0 0.01 0 0 0 0 -0.01 0.01 0 0 0 0 0 0.01 -0.01 0 0 0 0 0 0 0.01 0 0 -0.01 0.01 0 0 0 0 0 0 -0.01 0.01 0 0 0 0 0 0 0 0.01 0 0 -0.01 0 0 0.01 0 0 0 0 -0.01 0.01 0 0 0 0 0 0 0 0.01 -0.01 0 0 0 0 0 0 0.01 0 0 0 0 -0.01 0.01 0 0 0 0 -0.25 0.34 0 0 0 0 0.01 -0.06 0.04 -0.36zm-35.05 4.47l-3.21 0 0.67 -6.73 -5.51 0 -0.67 6.73 -3.43 0c0.52,-5.23 1.04,-10.45 1.57,-15.67l3.42 0 -0.6 6.03 5.51 0 0.6 -6.03 3.43 0 -1.57 15.67 -0.21 0zm-2.69 -0.48l2.47 0 1.47 -14.71 -2.47 0 -0.6 6.03 -6.47 0 0.61 -6.03 -2.47 0 -1.47 14.71 2.47 0 0.67 -6.73 6.47 0 -0.68 6.73zm17.29 -5.25c-0.01,0.1 -0.02,0.19 -0.03,0.28 -0.02,0.1 -0.04,0.2 -0.06,0.29l-0.06 0.3 -0.1 0.49 -8.66 0 0.04 0.14c0.06,0.13 0.12,0.27 0.19,0.4 0.07,0.13 0.15,0.26 0.24,0.37 0.09,0.11 0.2,0.21 0.31,0.31 0.11,0.09 0.23,0.18 0.36,0.25 0.13,0.08 0.27,0.15 0.42,0.2 0.14,0.05 0.3,0.1 0.47,0.12 0.17,0.03 0.35,0.04 0.54,0.04 0.23,0 0.47,-0.02 0.71,-0.06 0.24,-0.04 0.48,-0.1 0.72,-0.18 0.24,-0.08 0.47,-0.17 0.67,-0.29 0.21,-0.1 0.4,-0.23 0.56,-0.36l0.18 -0.14 1.89 2.09 -0.23 0.16c-0.41,0.29 -0.82,0.54 -1.22,0.75 -0.41,0.2 -0.81,0.37 -1.19,0.49 -0.39,0.12 -0.79,0.21 -1.19,0.27 -0.4,0.06 -0.81,0.09 -1.23,0.09 -0.86,0 -1.64,-0.16 -2.36,-0.47 -0.72,-0.32 -1.32,-0.75 -1.82,-1.3 -0.25,-0.27 -0.46,-0.57 -0.65,-0.89 -0.18,-0.32 -0.34,-0.66 -0.46,-1.03 -0.12,-0.37 -0.2,-0.75 -0.24,-1.14 -0.05,-0.39 -0.04,-0.79 0,-1.21 0.04,-0.42 0.12,-0.82 0.24,-1.21 0.11,-0.38 0.27,-0.76 0.47,-1.13 0.19,-0.36 0.41,-0.7 0.66,-1.02 0.25,-0.32 0.52,-0.61 0.82,-0.88 0.31,-0.27 0.63,-0.51 0.97,-0.72 0.34,-0.22 0.71,-0.4 1.09,-0.56 0.39,-0.16 0.78,-0.28 1.18,-0.35 0.4,-0.08 0.82,-0.12 1.24,-0.12 0.4,0 0.79,0.03 1.17,0.11 0.38,0.07 0.74,0.18 1.1,0.33 0.35,0.15 0.69,0.33 0.99,0.54 0.31,0.2 0.59,0.44 0.85,0.71 0.52,0.53 0.91,1.16 1.17,1.9 0.13,0.37 0.21,0.76 0.25,1.16 0.05,0.41 0.05,0.83 0,1.27zm-0.51 0.21c0.02,-0.09 0.03,-0.18 0.04,-0.26 0.04,-0.41 0.04,-0.8 0,-1.17 -0.04,-0.37 -0.12,-0.72 -0.23,-1.05 -0.24,-0.67 -0.59,-1.25 -1.06,-1.73 -0.24,-0.24 -0.49,-0.46 -0.77,-0.65 -0.29,-0.19 -0.59,-0.35 -0.91,-0.49 -0.33,-0.13 -0.67,-0.23 -1.01,-0.3 -0.35,-0.07 -0.71,-0.1 -1.08,-0.1 -0.39,0 -0.78,0.03 -1.15,0.11 -0.37,0.07 -0.74,0.18 -1.09,0.32 -0.36,0.15 -0.69,0.32 -1.02,0.52 -0.31,0.2 -0.62,0.43 -0.9,0.68 -0.28,0.25 -0.54,0.52 -0.77,0.81 -0.23,0.3 -0.43,0.62 -0.61,0.95 -0.18,0.34 -0.33,0.69 -0.44,1.05 -0.11,0.36 -0.18,0.74 -0.22,1.12 -0.04,0.38 -0.04,0.75 0,1.11 0.04,0.36 0.11,0.71 0.22,1.04 0.11,0.34 0.25,0.65 0.42,0.94 0.17,0.29 0.37,0.56 0.59,0.81 0.46,0.49 1.01,0.89 1.66,1.18 0.66,0.29 1.38,0.43 2.17,0.43 0.4,0 0.78,-0.03 1.16,-0.08 0.38,-0.06 0.75,-0.14 1.11,-0.26 0.37,-0.11 0.74,-0.27 1.12,-0.46 0.31,-0.16 0.63,-0.35 0.95,-0.56l-1.23 -1.36c-0.14,0.1 -0.29,0.19 -0.45,0.28 -0.23,0.12 -0.48,0.22 -0.75,0.31 -0.27,0.09 -0.53,0.16 -0.79,0.21 -0.27,0.04 -0.53,0.06 -0.79,0.06 -0.21,0 -0.42,-0.01 -0.62,-0.04 -0.19,-0.04 -0.38,-0.09 -0.56,-0.15 -0.17,-0.07 -0.34,-0.15 -0.49,-0.23 -0.16,-0.09 -0.3,-0.2 -0.43,-0.31 -0.14,-0.11 -0.26,-0.24 -0.37,-0.37 -0.11,-0.14 -0.2,-0.28 -0.29,-0.44 -0.08,-0.15 -0.15,-0.31 -0.21,-0.47 -0.06,-0.16 -0.11,-0.33 -0.15,-0.49l-0.06 -0.29 8.88 0 0.09 -0.4c0.01,-0.09 0.03,-0.18 0.04,-0.27zm-2.8 -1.54c-0.06,-0.21 -0.15,-0.4 -0.25,-0.58 -0.15,-0.26 -0.34,-0.49 -0.57,-0.68 -0.24,-0.19 -0.49,-0.34 -0.76,-0.43 -0.28,-0.1 -0.58,-0.15 -0.9,-0.15 -0.32,0 -0.62,0.05 -0.91,0.15 -0.3,0.1 -0.58,0.24 -0.86,0.44 -0.27,0.2 -0.51,0.43 -0.72,0.69 -0.13,0.18 -0.25,0.36 -0.35,0.56l5.32 0zm0.16 -0.82c0.18,0.3 0.31,0.64 0.38,1.01l0.06 0.29 -6.65 0 0.13 -0.33c0.16,-0.37 0.35,-0.7 0.58,-1 0.23,-0.3 0.5,-0.56 0.81,-0.78 0.32,-0.23 0.64,-0.4 0.98,-0.52 0.35,-0.11 0.7,-0.17 1.07,-0.17 0.37,0 0.73,0.06 1.05,0.18 0.33,0.11 0.63,0.28 0.91,0.52 0.28,0.23 0.51,0.49 0.68,0.8zm8.81 7.8c-0.12,0.05 -0.24,0.1 -0.38,0.15 -0.13,0.04 -0.27,0.08 -0.42,0.11 -0.15,0.03 -0.3,0.06 -0.45,0.08 -0.15,0.01 -0.3,0.02 -0.46,0.02 -0.42,0 -0.83,-0.06 -1.22,-0.17 -0.19,-0.06 -0.38,-0.14 -0.55,-0.23 -0.17,-0.1 -0.33,-0.21 -0.47,-0.35 -0.28,-0.27 -0.49,-0.62 -0.63,-1.04 -0.07,-0.21 -0.12,-0.44 -0.14,-0.69 -0.01,-0.25 -0.01,-0.52 0.02,-0.8l1.32 -13.26 3.28 0 -1.28 12.83c-0.02,0.2 -0.02,0.37 0,0.51 0.03,0.11 0.06,0.19 0.11,0.24 0.06,0.06 0.13,0.11 0.2,0.14 0.08,0.03 0.16,0.04 0.26,0.04 0.14,0 0.27,-0.02 0.4,-0.06 0.14,-0.04 0.28,-0.1 0.42,-0.19l0.41 -0.25 -0.29 2.86 -0.13 0.06zm-0.53 -0.31c0.08,-0.02 0.15,-0.05 0.21,-0.07l0.17 -1.68 -0.12 0.04c-0.18,0.05 -0.36,0.08 -0.54,0.08 -0.16,0 -0.3,-0.03 -0.44,-0.08 -0.13,-0.05 -0.25,-0.14 -0.36,-0.25 -0.12,-0.12 -0.2,-0.28 -0.24,-0.48 -0.03,-0.18 -0.03,-0.4 -0.01,-0.65l1.23 -12.3 -2.31 0 -1.29 12.82c-0.02,0.26 -0.03,0.5 -0.01,0.72 0.02,0.21 0.05,0.41 0.11,0.58 0.12,0.35 0.28,0.63 0.51,0.84 0.11,0.11 0.24,0.2 0.37,0.28 0.14,0.08 0.29,0.14 0.46,0.19 0.34,0.1 0.7,0.15 1.08,0.15 0.14,0 0.28,0 0.41,-0.02 0.14,-0.01 0.27,-0.04 0.4,-0.07 0.13,-0.03 0.25,-0.06 0.37,-0.1zm13.11 -5.3c-0.04,0.4 -0.11,0.79 -0.21,1.17 -0.11,0.38 -0.25,0.75 -0.42,1.11 -0.17,0.36 -0.36,0.69 -0.58,1.01 -0.22,0.32 -0.47,0.62 -0.74,0.89 -0.28,0.27 -0.57,0.52 -0.88,0.74 -0.31,0.21 -0.64,0.4 -1,0.56 -0.35,0.17 -0.72,0.29 -1.1,0.37 -0.38,0.08 -0.77,0.12 -1.18,0.12 -0.25,0 -0.49,-0.02 -0.73,-0.05 -0.23,-0.04 -0.46,-0.09 -0.67,-0.16 -0.22,-0.07 -0.43,-0.16 -0.63,-0.28 -0.08,-0.04 -0.15,-0.09 -0.22,-0.13l-0.49 5.11 -3.24 0c0.54,-5.42 1.08,-10.84 1.63,-16.26l3.22 0 -0.02 0.35 0.18 -0.09c0.21,-0.11 0.43,-0.2 0.66,-0.28 0.24,-0.08 0.49,-0.14 0.73,-0.18 0.25,-0.04 0.5,-0.06 0.75,-0.06 0.35,0 0.7,0.04 1.04,0.12 0.33,0.07 0.66,0.19 0.98,0.35 0.32,0.15 0.61,0.34 0.89,0.55 0.27,0.22 0.52,0.46 0.75,0.73 0.24,0.28 0.44,0.57 0.62,0.89 0.17,0.32 0.32,0.66 0.44,1.03 0.11,0.37 0.19,0.75 0.23,1.15 0.04,0.4 0.04,0.81 -0.01,1.24zm-0.67 1.04c0.09,-0.35 0.16,-0.72 0.2,-1.09 0.04,-0.4 0.04,-0.78 0.01,-1.14 -0.04,-0.37 -0.11,-0.72 -0.22,-1.05 -0.11,-0.34 -0.24,-0.66 -0.4,-0.95 -0.16,-0.29 -0.35,-0.56 -0.56,-0.81 -0.21,-0.24 -0.44,-0.46 -0.69,-0.66 -0.25,-0.19 -0.51,-0.36 -0.8,-0.5 -0.29,-0.14 -0.58,-0.25 -0.88,-0.32 -0.3,-0.07 -0.61,-0.1 -0.93,-0.1 -0.23,0 -0.45,0.01 -0.67,0.05 -0.22,0.04 -0.44,0.09 -0.65,0.16 -0.22,0.07 -0.42,0.16 -0.61,0.25 -0.19,0.1 -0.36,0.21 -0.52,0.32l-0.41 0.31 0.05 -0.83 -2.28 0 -1.53 15.3 2.27 0 0.54 -5.57 0.35 0.31c0.16,0.13 0.32,0.25 0.49,0.34 0.18,0.1 0.36,0.18 0.54,0.25 0.19,0.06 0.39,0.1 0.6,0.14 0.21,0.03 0.43,0.04 0.66,0.04 0.38,0 0.73,-0.03 1.08,-0.11 0.35,-0.07 0.68,-0.18 1.01,-0.33 0.32,-0.15 0.63,-0.32 0.92,-0.53 0.29,-0.2 0.56,-0.42 0.81,-0.68 0.25,-0.25 0.48,-0.52 0.68,-0.82 0.21,-0.29 0.39,-0.61 0.55,-0.94 0.16,-0.34 0.29,-0.69 0.39,-1.04zm-2.6 -1.07c0.03,-0.25 0.03,-0.48 0.02,-0.71 -0.02,-0.21 -0.05,-0.42 -0.1,-0.61 -0.05,-0.2 -0.12,-0.37 -0.2,-0.54 -0.08,-0.16 -0.17,-0.31 -0.29,-0.45 -0.1,-0.13 -0.23,-0.25 -0.36,-0.35 -0.14,-0.1 -0.29,-0.19 -0.45,-0.26 -0.16,-0.08 -0.34,-0.13 -0.53,-0.17 -0.18,-0.03 -0.39,-0.05 -0.6,-0.05 -0.27,0 -0.59,0.06 -0.95,0.17 -0.18,0.06 -0.35,0.12 -0.51,0.2 -0.11,0.06 -0.22,0.12 -0.33,0.19l-0.5 5.04c0.23,0.21 0.47,0.37 0.73,0.48 0.29,0.13 0.6,0.19 0.94,0.19 0.2,0 0.4,-0.02 0.59,-0.06 0.19,-0.04 0.38,-0.09 0.56,-0.17 0.18,-0.08 0.35,-0.17 0.51,-0.28 0.16,-0.1 0.3,-0.22 0.44,-0.36 0.14,-0.14 0.27,-0.3 0.38,-0.46 0.12,-0.17 0.22,-0.35 0.31,-0.54 0.09,-0.19 0.17,-0.39 0.22,-0.6 0.06,-0.22 0.1,-0.44 0.12,-0.66zm0.5 -0.73c0.01,0.24 0,0.5 -0.02,0.78 -0.03,0.25 -0.07,0.5 -0.14,0.73 -0.06,0.24 -0.14,0.46 -0.25,0.68 -0.1,0.22 -0.21,0.42 -0.34,0.61 -0.14,0.19 -0.28,0.37 -0.44,0.53 -0.16,0.15 -0.33,0.3 -0.52,0.42 -0.18,0.12 -0.38,0.23 -0.59,0.32 -0.21,0.09 -0.43,0.16 -0.65,0.2 -0.22,0.04 -0.45,0.07 -0.68,0.07 -0.4,0 -0.78,-0.08 -1.13,-0.23 -0.34,-0.15 -0.66,-0.37 -0.96,-0.66l-0.08 -0.08c0.18,-1.83 0.36,-3.66 0.55,-5.48l0.08 -0.07c0.15,-0.11 0.32,-0.2 0.49,-0.29 0.18,-0.09 0.37,-0.16 0.58,-0.23 0.41,-0.13 0.77,-0.19 1.09,-0.19 0.24,0 0.47,0.02 0.69,0.06 0.22,0.05 0.43,0.11 0.63,0.2 0.2,0.09 0.38,0.19 0.55,0.32 0.16,0.12 0.31,0.27 0.45,0.43 0.13,0.16 0.24,0.35 0.34,0.54 0.1,0.19 0.17,0.4 0.23,0.62 0.06,0.23 0.1,0.47 0.12,0.72zm15.22 -14.69l-0.01 0.01 -0.01 0.02 -0.01 0.01 -0.01 0.02 -0.01 0.02 -0.01 0.01 -0.01 0.02 -0.01 0.01 -0.01 0.02 -0.01 0.01 -0.01 0.02 -0.01 0.01 -0.02 0.02 0 0.01 -0.02 0.03 0 0 -0.02 0.03 0 0 -0.03 0.03 0 0 -0.02 0.03 0 0.01 -0.02 0.02 -0.01 0.01 -0.02 0.02 0 0.01 -0.02 0.02 -0.01 0.02 -0.01 0.02 -0.02 0.01 -0.01 0.02 -0.01 0.02 -0.01 0.01 -0.02 0.02 -0.01 0.01 -0.02 0.03 0 0.01 -0.03 0.03 0 0 -0.02 0.03 -0.01 0.01 -0.02 0.03 0 0 -0.03 0.03 0 0.01 -0.03 0.03 0 0 -0.03 0.03 0 0.01 -0.02 0.03 -0.01 0.01 -0.02 0.02 -0.01 0.02 -0.02 0.02 -0.01 0.02 -0.02 0.02 -0.01 0.02 -0.02 0.01 -0.02 0.02 -0.01 0.02 -0.02 0.02 -0.01 0.02 -0.02 0.02 -0.01 0.01 -0.02 0.03 -0.01 0.01 -0.03 0.04 0 0 -0.03 0.04 0 0 -0.03 0.03 -0.01 0.01 -0.03 0.03 0 0.01 -0.03 0.03 0 0.01 -0.03 0.03 -0.01 0.01 -0.02 0.03 -0.01 0.01 -0.02 0.03 -0.02 0.02 -0.02 0.02 -0.02 0.02 -0.01 0.02 -0.02 0.02 -0.02 0.02 -0.02 0.03 -0.01 0.01 -0.03 0.03 0 0.01 -0.03 0.03 -0.01 0.01 -0.03 0.04 0 0 -0.04 0.04 0 0 -0.03 0.05 -0.01 0 -0.03 0.04 0 0 -0.03 0.04 -0.01 0.01 -0.03 0.03 -0.01 0.02 -0.03 0.02 -0.01 0.02 -0.02 0.03 -0.02 0.02 -0.02 0.02 -0.02 0.02 -0.02 0.02 -0.02 0.03 -0.01 0.02 -0.03 0.03 -0.01 0.01 -0.03 0.04 -0.01 0.01 -0.03 0.03 -0.01 0.01 -0.03 0.04 0 0.01 -0.04 0.04 0 0 -0.08 0.09 -0.05 0.06 -0.02 0.03 -0.08 0.09 -0.02 0.03 -0.06 0.06 -0.07 0.09 0 0 -0.08 0.09 -0.05 0.06 -0.03 0.04 -0.08 0.09 -0.02 0.03 -0.06 0.07 -0.08 0.09 0 0 -0.13 0.16 -0.04 0.04 -0.08 0.1 -0.02 0.02 -0.06 0.08 -0.08 0.09 0 0.01 -0.09 0.1 -0.05 0.06 -0.03 0.04 -0.09 0.1 -0.02 0.03 -0.06 0.08 -0.08 0.09 -0.01 0.01 -0.08 0.11 -0.05 0.05 -0.04 0.05 -0.08 0.11 -0.02 0.02 -0.07 0.09 -0.07 0.09 -0.01 0.01 -0.09 0.11 -0.05 0.06 -0.04 0.05 -0.08 0.11 -0.02 0.02 -0.07 0.09 -0.07 0.1 -0.02 0.01 -0.08 0.12 -0.05 0.05 -0.04 0.06 -0.09 0.11 -0.01 0.02 -0.07 0.1 -0.07 0.09 -0.02 0.02 -0.09 0.12 -0.04 0.05 -0.04 0.07 -0.09 0.11 -0.01 0.02 -0.08 0.1 -0.06 0.09 -0.02 0.03 -0.09 0.12 -0.03 0.05 -0.05 0.07 -0.09 0.12 0 0.01 -0.08 0.11 -0.07 0.09 -0.02 0.03 -0.08 0.12 -0.03 0.05 -0.05 0.08 -0.09 0.12 0 0.01 -0.08 0.11 -0.06 0.09 -0.02 0.04 -0.08 0.12 -0.07 0.1 -0.02 0.03 -0.08 0.12 0 0.01 -0.08 0.12 -0.05 0.09 -0.03 0.04 -0.08 0.13 -0.02 0.04 -0.05 0.08 -0.08 0.13 0 0 -0.11 0.18 -0.04 0.08 -0.01 0 -0.07 0.13 -0.03 0.04 -0.05 0.09 -0.01 0.02 -0.1 0.18 -0.03 0.07 1.76 -0.07c0.79,-0.03 1.55,-0.12 2.24,-0.41 0.62,-0.26 1.19,-0.7 1.66,-1.4 -0.27,0.05 -0.55,0.06 -0.82,0.06 -0.36,-0.01 -0.72,-0.06 -1.08,-0.14l-2.13 -0.49 2.17 0.27c0.71,0.08 1.36,-0.03 1.92,-0.4 0.53,-0.33 0.99,-0.89 1.37,-1.7 -0.49,0.11 -0.93,0.16 -1.37,0.18 -0.64,0.03 -1.26,-0.02 -1.99,-0.13 0.4,0 1.15,-0.06 1.93,-0.29 0.5,-0.15 1,-0.37 1.43,-0.71 0.31,-0.23 0.55,-0.51 0.72,-0.83 0.18,-0.31 0.27,-0.66 0.29,-1.05 0.02,-0.71 -0.26,-1.53 -0.94,-2.44zm-7.17 9.56l0 0 -0.04 0.07 0 0.01 -0.01 0 -0.09 0.17 -0.03 0.06 -0.04 0.08 -0.04 0.08 -0.01 0.01 -0.03 0.07 -0.05 0.07 -0.04 0.08 0 0.01 -0.04 0.07 -0.04 0.08 -0.03 0.08 -0.01 0.02 -0.03 0.06 -0.04 0.08 -0.04 0.08 0 0 -0.01 0.02 -0.07 0.15 -0.03 0.07 -0.04 0.08 -0.04 0.08 0 0.02 -0.03 0.06 -0.04 0.09 -0.03 0.08 -0.03 0.07 -0.01 0.01 -0.03 0.08 -0.04 0.08 0 0.02 -0.03 0.06 -0.03 0.08 -0.02 0.04 -0.04 0.1 -0.01 0.03 -0.03 0.08 -0.01 0.02 -0.03 0.1 -0.06 0.14 -0.02 0.07 -0.03 0.08 -0.03 0.08 0 0.01 -0.03 0.07 0 0.01 -0.03 0.08 -0.01 0.04 -0.04 0.12 0 0.01 -0.03 0.08 -0.01 0.03 -0.04 0.12 0 0.02 -0.03 0.08 0 0 -0.05 0.17 -0.02 0.08 0 0 -0.04 0.14 0 0.03 -0.03 0.08 -0.02 0.12 -0.04 0.12 -0.02 0.1 0 0 -0.02 0.09 -0.02 0.08 -0.01 0.06 -0.01 0.03 -0.01 0.08 -0.01 0.04 -0.02 0.09 -0.01 0.04 -0.01 0.09 -0.03 0.14 0 0.03c0.75,-0.02 1.44,-0.29 2.09,-0.74 0.64,-0.45 1.24,-1.07 1.81,-1.8 -0.21,0.01 -0.43,0.01 -0.64,0 -0.29,-0.02 -0.59,-0.07 -0.88,-0.14l-1.33 -0.33 1.37 0.11c0.72,0.05 1.42,-0.03 2.09,-0.42 0.63,-0.36 1.24,-1 1.81,-2.05 -0.35,0.11 -0.73,0.19 -1.11,0.24 -0.48,0.06 -0.98,0.07 -1.5,0.03l-1.77 -0.15zm-2.2 5.47l0 0 0.02 -0.13 0.01 -0.07 0 -0.02 0.04 -0.21 0.01 -0.06c0.01,-0.06 0.02,-0.12 0.03,-0.19l0.01 -0.02c0.01,-0.08 0.03,-0.15 0.04,-0.22l0.01 -0.02 0.05 -0.22 0.01 -0.02c0.01,-0.07 0.03,-0.14 0.05,-0.21l0.01 -0.03 0.05 -0.2 0.01 -0.05 0.05 -0.18 0.02 -0.06 0.06 -0.18 0.01 -0.05c0.05,-0.15 0.1,-0.29 0.15,-0.44l0 -0.01 0.08 -0.21 0.01 -0.03 0.07 -0.2 0.02 -0.03 0.08 -0.21 0.01 -0.02 0.07 -0.19 0.02 -0.05c0.1,-0.22 0.19,-0.43 0.29,-0.65l0.01 -0.03c0.28,-0.6 0.59,-1.19 0.93,-1.77l0 0 0.12 -0.21 0 0c0.17,-0.29 0.35,-0.57 0.52,-0.85l0.01 0c0.08,-0.14 0.17,-0.28 0.26,-0.41l0.01 -0.02c0.09,-0.13 0.17,-0.26 0.26,-0.38l0.05 -0.08 0.1 -0.14 0.01 -0.01 0.13 -0.19 0.01 -0.02c0.14,-0.19 0.27,-0.38 0.41,-0.57l0.02 -0.02 0.13 -0.18 0 0 0.08 -0.11 0.06 -0.08 0.03 -0.04 0.1 -0.14 0.02 -0.01 0.07 -0.1 0.07 -0.09 0.01 -0.02 0.12 -0.15 0.01 -0.02 0.07 -0.09 0.08 -0.09 0.01 -0.02 0.26 -0.33 0.01 -0.02 0.06 -0.07 0.09 -0.11 0.05 -0.06 0.09 -0.11 0.05 -0.06 0.09 -0.12 0.05 -0.05 0.09 -0.12 0.04 -0.05 0.1 -0.12 0.04 -0.04 0.1 -0.13 0.03 -0.04 0.11 -0.12 0.03 -0.04 0.1 -0.13 0.03 -0.03 0.11 -0.13 0.02 -0.02 0.11 -0.14 0.02 -0.02 0.25 -0.29 0.01 -0.01 0.12 -0.14 0 -0.01 0.12 -0.14 0.01 0 0.12 -0.15 0 0 0.03 -0.03 0.03 -0.04 0.57 -0.67 -0.31 0.31c-3.31,3.42 -6.96,7.17 -8.09,13.57l0.42 -0.04c0.01,-0.1 0.02,-0.19 0.04,-0.28zm-0.15 0.51l-0.34 0.03c-0.04,0.22 -0.07,0.44 -0.1,0.67l0 -0.01 0.44 -0.69zm-111.87 5.6l-3.84 0 -5.41 -6.73 -0.67 6.73 -2.95 0 1.53 -15.21 2.95 0 -0.69 6.79 6.9 -6.79 3.5 0 -7.61 7.47 6.29 7.74zm16.45 -11.01l-4.8 11.03 -2.37 0 -1.53 -6.56 -2.85 6.56 -2.37 0 -2.6 -11.03 2.89 0 1.38 6.88 2.76 -6.88 2.44 0 1.4 6.88 2.76 -6.88 2.89 0zm12.03 5.49c-0.02,0.18 -0.04,0.37 -0.08,0.56 -0.04,0.19 -0.08,0.38 -0.13,0.59l-8.78 0c0.07,0.31 0.18,0.61 0.34,0.9 0.15,0.28 0.35,0.53 0.6,0.74 0.24,0.21 0.53,0.37 0.85,0.49 0.32,0.12 0.69,0.18 1.09,0.18 0.5,0 1,-0.08 1.51,-0.25 0.51,-0.17 0.95,-0.4 1.31,-0.7l1.55 1.73c-0.81,0.57 -1.6,0.98 -2.35,1.21 -0.75,0.24 -1.54,0.35 -2.35,0.35 -0.82,0 -1.57,-0.15 -2.26,-0.45 -0.69,-0.31 -1.27,-0.72 -1.74,-1.24 -0.47,-0.52 -0.83,-1.13 -1.06,-1.83 -0.23,-0.71 -0.31,-1.46 -0.23,-2.26 0.08,-0.79 0.31,-1.55 0.68,-2.25 0.38,-0.7 0.86,-1.31 1.44,-1.83 0.59,-0.52 1.25,-0.94 1.99,-1.24 0.74,-0.3 1.52,-0.46 2.33,-0.46 0.77,0 1.5,0.15 2.18,0.43 0.68,0.29 1.27,0.68 1.76,1.19 0.5,0.51 0.87,1.11 1.11,1.82 0.25,0.7 0.33,1.48 0.24,2.32zm-2.76 -1.06c-0.15,-0.7 -0.47,-1.26 -0.98,-1.68 -0.51,-0.43 -1.11,-0.64 -1.81,-0.64 -0.68,0 -1.32,0.21 -1.91,0.64 -0.59,0.42 -1.02,0.98 -1.31,1.68l6.01 0zm15.82 1.06c-0.01,0.18 -0.04,0.37 -0.08,0.56 -0.04,0.19 -0.08,0.38 -0.13,0.59l-8.78 0c0.07,0.31 0.18,0.61 0.34,0.9 0.15,0.28 0.35,0.53 0.6,0.74 0.24,0.21 0.53,0.37 0.85,0.49 0.33,0.12 0.69,0.18 1.1,0.18 0.49,0 0.99,-0.08 1.5,-0.25 0.52,-0.17 0.95,-0.4 1.31,-0.7l1.56 1.73c-0.82,0.57 -1.61,0.98 -2.36,1.21 -0.75,0.24 -1.53,0.35 -2.35,0.35 -0.82,0 -1.57,-0.15 -2.26,-0.45 -0.68,-0.31 -1.26,-0.72 -1.74,-1.24 -0.47,-0.52 -0.83,-1.13 -1.06,-1.83 -0.23,-0.71 -0.31,-1.46 -0.23,-2.26 0.08,-0.79 0.31,-1.55 0.68,-2.25 0.38,-0.7 0.86,-1.31 1.44,-1.83 0.59,-0.52 1.25,-0.94 1.99,-1.24 0.74,-0.3 1.52,-0.46 2.33,-0.46 0.77,0 1.5,0.15 2.18,0.43 0.68,0.29 1.27,0.68 1.76,1.19 0.5,0.51 0.87,1.11 1.11,1.82 0.25,0.7 0.33,1.48 0.24,2.32zm-2.76 -1.06c-0.15,-0.7 -0.47,-1.26 -0.98,-1.68 -0.51,-0.43 -1.11,-0.64 -1.81,-0.64 -0.68,0 -1.32,0.21 -1.91,0.64 -0.59,0.42 -1.02,0.98 -1.31,1.68l6.01 0zm14.38 6.58l-3.25 0 -3.92 -4.93 -0.5 4.93 -2.79 0 1.59 -15.76 2.79 0 -0.95 9.43 4.31 -4.66 3.19 0 -5.04 5.34 4.57 5.65zm9.32 -3.08c-0.06,0.54 -0.23,1.03 -0.53,1.45 -0.3,0.43 -0.66,0.78 -1.1,1.07 -0.43,0.28 -0.91,0.5 -1.44,0.64 -0.52,0.15 -1.03,0.22 -1.52,0.22 -0.84,0 -1.6,-0.15 -2.27,-0.46 -0.67,-0.31 -1.24,-0.81 -1.71,-1.5l1.82 -1.67c0.29,0.42 0.64,0.75 1.05,0.98 0.4,0.23 0.85,0.35 1.35,0.35 0.43,0 0.8,-0.08 1.1,-0.24 0.3,-0.15 0.46,-0.39 0.5,-0.71 0.03,-0.33 -0.15,-0.6 -0.53,-0.83 -0.38,-0.22 -0.93,-0.44 -1.64,-0.65 -0.42,-0.13 -0.82,-0.29 -1.21,-0.49 -0.39,-0.19 -0.72,-0.43 -1.01,-0.72 -0.29,-0.28 -0.51,-0.61 -0.66,-0.98 -0.16,-0.37 -0.21,-0.79 -0.16,-1.27 0.05,-0.53 0.23,-1.01 0.52,-1.44 0.28,-0.42 0.65,-0.78 1.07,-1.06 0.43,-0.29 0.91,-0.51 1.43,-0.66 0.53,-0.15 1.05,-0.23 1.57,-0.23 1.68,0 2.98,0.64 3.92,1.91l-1.8 1.65c-0.27,-0.39 -0.6,-0.7 -0.99,-0.93 -0.38,-0.23 -0.81,-0.34 -1.29,-0.34 -0.17,0 -0.34,0.02 -0.53,0.06 -0.19,0.05 -0.37,0.11 -0.54,0.19 -0.16,0.09 -0.3,0.19 -0.42,0.33 -0.11,0.13 -0.18,0.28 -0.19,0.44 -0.03,0.29 0.13,0.55 0.5,0.76 0.36,0.22 0.9,0.43 1.6,0.65 0.45,0.14 0.88,0.32 1.27,0.53 0.4,0.22 0.74,0.47 1.03,0.75 0.29,0.29 0.51,0.61 0.65,0.97 0.15,0.36 0.2,0.77 0.16,1.23zm49.9 3.08l-3.18 0 0.34 -3.4 3.4 0 -0.34 3.4 -0.22 0zm-2.66 -0.48l2.45 0 0.25 -2.45 -2.45 0 -0.25 2.45z"/>
 </g>
</svg>
