<svg xmlns="http://www.w3.org/2000/svg" xml:space="preserve" width="512" height="88" style="shape-rendering:geometricPrecision;text-rendering:geometricPrecision;image-rendering:optimizeQuality;fill-rule:evenodd;clip-rule:evenodd" viewBox="0 0 131.39 22.7"><path d="m119.53 17.74.06-.48.01-.03v-.05c.02-.15.04-.3.07-.44v-.01l.02-.15.03-.2h.01c1.16-6.75 4.99-10.7 8.48-14.28.39-.41.8-.82 1.18-1.23.27-.28.53-.57.77-.87l.11.13c.81 1.04 1.14 2 1.12 2.82-.01.44-.13.84-.32 1.2-.2.35-.48.67-.82.93-.43.35-.98.61-1.59.77.55-.03 1.09-.11 1.63-.24l.23-.05-.1.21c-.43 1-.97 1.68-1.6 2.08-.25.16-.51.28-.77.35.26-.01.53-.04.79-.11l.27-.06-.14.24c-.55.92-1.23 1.46-1.98 1.78l-.1.04c.2-.05.4-.11.59-.18l.28-.1-.13.26c-.66 1.29-1.37 2.06-2.11 2.49-.32.18-.64.3-.96.38.15-.01.3-.02.45-.04l.28-.03-.17.22c-.66.87-1.36 1.61-2.1 2.13-.73.51-1.5.81-2.35.81-.02.14-.03.27-.05.41v.03l-.02.02-.01.01-.01.02v.01l-.01.02-.01.01-.01.02-.01.01-.01.01v.01l-.01.01v.01l-.01.01-.01.01-.01.02v.01l-.01.01-.01.01v.01l-.01.01-.01.01v.01l-.01.01v.01h-.01v.01l-.01.01v.01h-.01v.02l-.01.01-.01.01-.01.01v.01l-.01.01v.01l-.01.01-.01.01v.01l-.01.01-.01.01v.01l-.01.01v.01l-.01.01-.01.01-.01.02-.01.02-.01.01-.01.01v.01l-.01.01v.01l-.01.01-.01.01v.01l-.01.01v.01l-.02.02-.04.07-.07.1-.04.07-.01.01-.01.02v.01l-.05.06-.02.04-.01.01v.01h-.01v.01l-.01.01-.01.01v.01h-.01v.01l-.01.01-.01.01v.01l-.01.01v.01h-.01v.01l-.01.01v.01h-.01v.01l-.01.01v.01h-.01v.01l-.01.01v.01h-.01v.01h-.01v.02h-.01v.01h-.01v.01l-.01.01v.01h-.01v.01h-.01v.01l-.01.01-.26.35.01-.07.04-.36zm-26.25 4.64h-3.15l-5.71-10.51-1.06 10.51h-3.5c.55-5.44 1.09-10.87 1.64-16.31h3.81l5.35 9.74.98-9.74h3.5L93.5 22.38h-.22zm-2.86-.5h2.63l1.54-15.31h-2.5l-1.1 10.89-5.97-10.89h-3.07l-1.54 15.31h2.5l1.18-11.66 6.33 11.66zm18.05-5.46c-.01.11-.02.21-.04.3-.01.1-.03.2-.05.3l-.06.3-.12.51h-9l.05.15c.05.14.12.29.19.42.08.14.16.26.25.38.1.12.2.23.32.32.11.1.24.19.37.27.14.08.29.15.44.2.15.06.32.1.49.13.18.03.36.05.56.05.49 0 .99-.09 1.49-.26.25-.08.49-.18.7-.3.22-.11.41-.24.58-.38l.18-.14 1.97 2.18-.23.16c-.44.3-.86.56-1.28.77-.42.22-.84.39-1.24.52-.4.12-.81.22-1.23.28-.42.06-.85.09-1.28.09-.44 0-.87-.04-1.28-.12-.41-.08-.8-.21-1.17-.37-.38-.17-.72-.36-1.04-.58-.31-.23-.6-.48-.86-.77a5.555 5.555 0 0 1-1.15-1.99c-.13-.39-.21-.78-.25-1.19-.05-.41-.04-.83 0-1.26.04-.43.13-.85.25-1.25s.28-.8.49-1.18c.2-.38.43-.74.69-1.06.26-.33.54-.64.86-.92.31-.28.65-.53 1-.75.36-.22.74-.41 1.13-.58.41-.16.82-.28 1.23-.37.42-.08.85-.12 1.29-.12.41 0 .82.04 1.21.12a5.64 5.64 0 0 1 2.18.9 5.221 5.221 0 0 1 1.59 1.65c.2.33.37.68.51 1.07.13.38.22.78.26 1.21.05.42.05.85 0 1.31zm-.53.22c.02-.1.03-.19.04-.27.04-.42.04-.83 0-1.21a4.89 4.89 0 0 0-.24-1.1c-.12-.35-.28-.67-.46-.97-.18-.3-.4-.58-.64-.83s-.51-.47-.8-.67c-.3-.2-.61-.36-.95-.51-.34-.14-.69-.24-1.05-.32-.36-.07-.74-.1-1.12-.1-.41 0-.81.04-1.19.11-.39.08-.77.19-1.14.34-.37.16-.72.34-1.05.54-.34.21-.65.44-.94.7-.29.26-.56.55-.8.85-.24.31-.46.64-.65.99-.18.35-.33.71-.45 1.09-.11.38-.19.76-.23 1.16-.04.4-.04.79 0 1.16a5.127 5.127 0 0 0 1.28 2.9c.24.26.5.49.78.69.29.21.61.38.95.53.34.16.69.27 1.07.34.37.08.76.12 1.18.12a7.882 7.882 0 0 0 2.36-.36c.38-.12.77-.28 1.16-.48.33-.16.65-.36.99-.58l-1.27-1.42c-.15.11-.31.21-.47.29-.24.13-.5.24-.78.33-.56.19-1.11.28-1.65.28-.22 0-.43-.01-.64-.05-.2-.03-.4-.08-.58-.15-.18-.07-.36-.15-.51-.24-.16-.09-.32-.2-.45-.32-.14-.12-.27-.25-.38-.39-.12-.14-.22-.29-.3-.45-.09-.16-.16-.32-.23-.49-.06-.17-.11-.34-.15-.51l-.07-.31h9.24l.09-.41c.02-.1.04-.19.05-.28zm-2.91-1.6a3.73 3.73 0 0 0-.26-.61c-.16-.26-.36-.5-.6-.7-.24-.2-.5-.35-.79-.45-.29-.1-.6-.15-.93-.15a3 3 0 0 0-.95.15c-.31.1-.6.26-.89.46-.28.21-.53.45-.75.72-.14.18-.26.38-.37.58h5.54zm.17-.85c.18.31.31.66.39 1.05l.07.3h-6.93l.14-.34c.16-.39.36-.73.6-1.04.24-.31.52-.58.85-.82.33-.23.67-.41 1.02-.53a3.488 3.488 0 0 1 2.21 0 3.174 3.174 0 0 1 1.65 1.38zm10.74 7.9c-.17.09-.34.18-.53.26-.18.07-.38.13-.59.18-.2.05-.41.08-.61.11-.2.02-.41.03-.61.03-.7 0-1.28-.08-1.76-.26-.24-.09-.46-.2-.65-.35-.19-.14-.36-.31-.49-.5-.14-.19-.25-.4-.33-.64-.09-.24-.15-.49-.19-.77-.04-.28-.05-.57-.05-.9-.01-.32.01-.66.05-1.02l.48-4.73h-1.51l.31-3.06h1.5l.13-1.23 1.43-2.11h2.12l-.33 3.34h2.88l-.3 3.06H114l-.5 4.98c-.01.13-.02.25-.01.36 0 .1.02.18.04.26.02.07.05.13.08.19.03.05.06.1.1.13.03.04.08.07.12.1l.15.06c.06.01.13.03.2.03.07.01.14.02.21.02.21 0 .46-.04.77-.11.14-.04.28-.09.41-.15.12-.05.24-.12.35-.21l.45-.34-.32 3.2-.11.07zm-.71-.21c.12-.05.24-.1.35-.16l.19-1.89c-.15.07-.32.13-.5.17-.34.08-.63.13-.88.13-.09 0-.18-.01-.27-.02-.09-.01-.18-.03-.27-.05-.09-.03-.18-.06-.26-.11a.98.98 0 0 1-.23-.17c-.07-.07-.13-.15-.19-.25-.05-.09-.09-.19-.12-.3-.03-.11-.05-.23-.06-.37 0-.13 0-.27.02-.43l.54-5.42h2.89l.2-2.07h-2.88l.34-3.34h-1.32l-1.21 1.79-.16 1.54h-1.5l-.21 2.08h1.5l-.53 5.27c-.03.35-.05.67-.05.97 0 .3.02.58.05.83.04.25.09.47.16.67a1.964 1.964 0 0 0 .66.92c.15.11.32.2.53.28.41.15.94.23 1.58.23.19 0 .37-.01.55-.04.19-.02.37-.05.56-.09.18-.05.35-.1.52-.17zM130.18.41l-.01.01-.01.02-.01.01-.01.02-.01.01-.01.02-.01.02-.01.01-.01.02-.01.01-.02.02v.01l-.02.03-.03.03-.02.03-.02.04-.03.03-.02.03-.01.01-.01.02-.01.02-.02.02-.01.01-.01.02-.02.02-.01.01-.02.02-.01.02-.01.02-.01.01-.02.03-.01.01-.02.03h-.01l-.02.03v.01l-.03.03-.03.04-.03.03v.01l-.03.03v.01l-.03.03v.01l-.03.02-.01.02-.02.02-.01.02-.02.02-.01.02-.02.02-.01.02-.02.02-.02.02-.01.01-.02.03-.01.01-.03.03v.01l-.03.04-.04.04-.03.04-.03.04h-.01l-.03.04v.01l-.03.03-.01.01-.02.03-.02.02-.02.02-.01.02-.02.02-.02.02-.02.02-.02.03-.01.02-.03.02-.01.02-.02.03-.01.01-.03.04h-.01l-.03.04v.01l-.04.04-.04.04v.01l-.03.04h-.01l-.03.04-.01.01-.03.03-.01.02-.03.03-.01.02-.02.02-.02.02-.02.03-.02.02-.02.02-.02.03-.02.02-.03.03-.01.01-.03.04-.01.01-.03.04-.01.01-.03.04-.04.05-.08.09-.05.06-.03.03-.08.1-.03.03-.05.06-.08.09v.01l-.08.09-.06.06-.03.04-.08.1-.02.03-.06.07-.08.09-.01.01-.13.16-.04.04-.08.1-.02.03-.07.08-.08.09v.01l-.09.11-.05.06-.04.04-.09.11-.02.02-.06.09-.08.09-.01.02-.09.1-.05.06-.04.06-.09.11-.02.02-.07.09-.08.09-.01.02-.09.11-.05.06-.04.06-.09.11-.01.02-.08.1-.07.09-.02.02-.09.12-.04.06-.05.06-.09.12-.01.01-.08.1-.07.1-.02.02-.09.12-.04.06-.05.07-.09.12-.01.01-.08.11-.07.1-.02.02-.09.13-.03.05-.05.07-.09.13-.01.01-.08.11-.07.1-.02.03-.09.13-.03.05-.05.07-.09.13v.01l-.08.12-.07.09-.02.04-.09.13-.06.1-.02.03-.08.13-.01.01-.08.12-.06.09-.02.04-.08.14-.03.04-.05.09-.09.13v.01l-.1.18-.05.08h-.01l-.07.14-.03.04-.05.1-.01.01-.11.19-.04.07 1.84-.07c.82-.03 1.61-.12 2.33-.43.64-.27 1.23-.72 1.72-1.45-.28.05-.57.07-.85.06-.38-.01-.75-.06-1.13-.15l-2.21-.5 2.25.27c.75.09 1.42-.03 2.01-.4.55-.36 1.03-.93 1.42-1.77-.51.11-.97.16-1.43.18-.66.03-1.31-.02-2.06-.13.41-.01 1.19-.06 2-.3.52-.16 1.05-.39 1.49-.74.32-.25.57-.54.75-.86.18-.33.28-.7.29-1.1.03-.73-.26-1.59-.97-2.53zm-7.45 9.93-.04.08h-.01v.01l-.1.18-.03.06-.04.08-.05.08v.01l-.04.07-.04.08-.04.09-.04.08-.04.08-.05.08v.02l-.04.07-.04.08-.04.08-.01.02-.07.16-.03.07-.04.09-.04.08-.01.02-.03.06-.03.09-.04.08-.03.08-.01.01-.03.08-.04.09-.01.02-.02.06-.04.09-.01.04-.04.1-.02.03-.03.08-.01.02-.03.1-.06.15-.03.07-.03.09-.03.09-.02.08h-.01l-.03.09-.01.04-.04.13-.03.09-.01.03-.04.12v.02l-.03.09-.05.17-.03.09-.03.14-.01.03-.03.09-.03.12-.03.13-.02.1-.02.09-.02.09-.01.06-.01.03-.02.09v.03l-.03.1v.04l-.02.09-.03.16v.02c.78-.02 1.5-.3 2.17-.77.67-.46 1.29-1.11 1.89-1.87-.22.02-.45.02-.67 0a4.8 4.8 0 0 1-.91-.15l-1.39-.34 1.43.11c.74.06 1.47-.02 2.17-.43.66-.37 1.29-1.04 1.88-2.13-.37.12-.75.2-1.15.25-.5.06-1.02.07-1.56.03l-1.84-.16zm-2.29 5.69.02-.13.01-.08v-.02l.04-.21.01-.07c.01-.06.03-.13.04-.19l.01-.03c.01-.08.03-.15.04-.23l.01-.02.05-.22.01-.03c.01-.07.03-.14.05-.22l.01-.03.05-.2.02-.06.05-.18.02-.06.06-.2.01-.04c.05-.16.1-.31.16-.46v-.01l.08-.22.01-.03.08-.21.01-.04.09-.21v-.02l.08-.2.03-.05c.09-.23.19-.45.29-.67l.02-.04c.29-.62.61-1.24.96-1.83l.12-.22.01-.01c.17-.3.35-.59.54-.88.09-.15.18-.29.28-.43l.01-.02c.09-.13.18-.26.26-.39l.06-.08.1-.15.01-.01.13-.19.02-.03c.14-.2.28-.4.43-.59l.01-.02.14-.19.09-.12.06-.08.02-.03.11-.15.02-.02.08-.1.07-.09.01-.02.12-.16.02-.02.07-.09.08-.1.01-.01.27-.34.01-.03.06-.07.09-.11.06-.07.09-.12.05-.06.1-.12.04-.05.1-.13.05-.05.1-.12.04-.05.1-.13.04-.04.11-.13.03-.04.11-.13.02-.03.12-.14.02-.02.12-.14.02-.02.25-.31.01-.01.13-.14v-.01l.13-.15.13-.15.03-.04.04-.04.59-.7-.33.33c-3.44 3.55-7.24 7.45-8.4 14.1l.43-.04c.01-.1.02-.2.04-.29zm-.16.53-.35.04c-.04.22-.07.45-.1.68l.45-.72zm-106.9 5.82H9.39l-5.62-7-.71 7H0L1.59 6.57h3.06l-.71 7.05 7.18-7.05h3.63l-7.91 7.77 6.54 8.04zm17.1-11.44L25.49 22.4h-2.47l-1.58-6.82-2.96 6.82h-2.47l-2.7-11.46h3l1.43 7.15 2.88-7.15h2.53l1.45 7.15 2.88-7.15h3zm12.51 5.71c-.02.18-.05.37-.09.57-.04.2-.08.4-.13.61h-9.13c.07.33.19.65.35.94.16.3.37.56.62.77.26.22.55.39.89.52.34.12.72.19 1.14.19.51 0 1.03-.09 1.57-.27.53-.18.98-.42 1.35-.72l1.62 1.8c-.85.59-1.67 1.01-2.45 1.25-.78.24-1.59.37-2.44.37-.85 0-1.64-.16-2.35-.48-.71-.31-1.31-.74-1.81-1.28-.49-.54-.86-1.18-1.1-1.91-.24-.73-.32-1.51-.24-2.34.09-.83.32-1.61.71-2.34.39-.74.89-1.37 1.5-1.91.61-.54 1.29-.97 2.06-1.29.77-.31 1.58-.47 2.42-.47.81 0 1.56.15 2.27.44.71.3 1.32.71 1.83 1.24.52.53.9 1.16 1.16 1.89.25.73.34 1.54.25 2.42zm-2.87-1.11c-.16-.72-.5-1.31-1.02-1.75-.53-.44-1.16-.66-1.88-.66s-1.38.22-1.99.66c-.61.44-1.06 1.03-1.36 1.75h6.25zm16.45 1.11c-.02.18-.05.37-.09.57-.04.2-.08.4-.13.61h-9.13c.07.33.19.65.35.94.16.3.37.56.62.77.26.22.55.39.89.52.34.12.71.19 1.14.19.51 0 1.03-.09 1.56-.27.54-.18.99-.42 1.36-.72l1.62 1.8c-.85.59-1.67 1.01-2.45 1.25-.78.24-1.59.37-2.44.37-.85 0-1.64-.16-2.35-.48-.71-.31-1.32-.74-1.81-1.28s-.86-1.18-1.1-1.91c-.24-.73-.32-1.51-.24-2.34.08-.83.32-1.61.71-2.34.39-.74.89-1.37 1.5-1.91.6-.54 1.29-.97 2.06-1.29.77-.31 1.58-.47 2.42-.47.8 0 1.56.15 2.27.44.71.3 1.32.71 1.83 1.24s.9 1.16 1.16 1.89c.25.73.33 1.54.25 2.42zm-2.88-1.11c-.15-.72-.49-1.31-1.02-1.75-.53-.44-1.15-.66-1.88-.66-.71 0-1.37.22-1.98.66-.61.44-1.07 1.03-1.36 1.75h6.24zm14.95 6.84h-3.38l-4.07-5.12-.52 5.12h-2.9L59.42 6h2.9l-.99 9.8 4.48-4.84h3.32l-5.24 5.55 4.75 5.87zm9.69-3.2a3.17 3.17 0 0 1-.55 1.51 4.3 4.3 0 0 1-1.14 1.11c-.45.29-.95.52-1.5.67-.54.15-1.07.23-1.58.23-.88 0-1.66-.17-2.36-.49-.7-.32-1.3-.84-1.78-1.55l1.9-1.74c.3.44.66.78 1.08 1.02.42.24.89.36 1.41.36.44 0 .83-.08 1.14-.24.31-.17.48-.41.52-.74.03-.35-.15-.63-.55-.86-.4-.23-.97-.46-1.71-.69-.43-.13-.85-.29-1.25-.5-.4-.2-.75-.45-1.05-.75-.3-.3-.53-.64-.69-1.02-.16-.38-.22-.82-.16-1.32.05-.56.23-1.05.53-1.49.3-.45.68-.81 1.12-1.11.45-.3.95-.52 1.49-.68.54-.16 1.09-.24 1.63-.24 1.74 0 3.1.66 4.08 1.98l-1.88 1.72a3.27 3.27 0 0 0-1.03-.97 2.513 2.513 0 0 0-1.89-.29c-.2.05-.38.11-.56.2-.17.08-.32.2-.44.33-.12.14-.18.3-.2.47-.03.3.14.57.52.79.38.22.94.45 1.66.67.48.15.92.33 1.33.55.41.23.77.49 1.07.79.3.29.53.63.68 1 .15.38.2.8.16 1.28zm42.49 3.2h-3.31l.35-3.54h3.54l-.36 3.54h-.22zm-2.76-.5h2.54l.25-2.54h-2.54l-.25 2.54z" style="fill:#f08519;fill-rule:nonzero"/></svg>