<svg xmlns="http://www.w3.org/2000/svg" xml:space="preserve" width="512" height="87" style="shape-rendering:geometricPrecision;text-rendering:geometricPrecision;image-rendering:optimizeQuality;fill-rule:evenodd;clip-rule:evenodd" viewBox="0 0 132.44 22.45"><path d="m120.71 17.54.06-.46v-.04l.01-.05.06-.43v-.01l.03-.15.03-.2c1.15-6.68 4.94-10.58 8.39-14.13.39-.4.79-.8 1.17-1.21.26-.28.52-.56.76-.86l.11.13c.8 1.03 1.13 1.97 1.1 2.79-.01.43-.12.83-.31 1.18-.2.36-.47.67-.81.93-.43.34-.97.59-1.57.76.54-.04 1.07-.12 1.61-.24l.22-.05-.09.21c-.43.98-.96 1.66-1.59 2.06-.24.15-.5.27-.76.34.26-.01.52-.04.79-.1l.26-.07-.14.24c-.54.91-1.21 1.44-1.96 1.76l-.09.04c.2-.05.39-.11.58-.18l.28-.1-.13.26c-.65 1.28-1.36 2.04-2.09 2.46-.31.18-.63.3-.95.38.15-.01.3-.02.45-.04l.27-.03-.16.22c-.66.86-1.35 1.59-2.08 2.11-.72.5-1.49.79-2.32.8l-.06.4v.03l-.01.02-.01.01-.01.02-.01.01-.01.02-.01.01-.01.02-.01.01v.01l-.01.01v.01l-.01.01v.01h-.01v.01l-.01.02-.01.01-.01.01-.01.01v.02h-.01v.01l-.01.01v.01h-.01v.02l-.01.01-.01.01-.01.01v.02h-.01v.01l-.01.01-.01.01v.01h-.01v.02h-.01v.01l-.01.01v.01h-.01v.01l-.01.01v.01l-.01.01v.01h-.01v.01l-.01.01-.01.02-.01.01v.01l-.01.01-.01.01v.01l-.01.01v.01h-.01v.01l-.01.01v.01h-.01l-.01.03-.04.06-.07.11-.04.06-.01.01-.01.02-.01.01-.04.06-.02.04-.01.01v.01h-.01v.01l-.01.01v.01h-.01v.01h-.01v.01l-.01.01v.01h-.01v.02h-.01v.01h-.01v.01l-.01.01v.01h-.01v.01l-.01.01v.01H121v.01l-.01.01v.01h-.01v.01l-.01.01v.01h-.01v.01h-.01v.02h-.01v.01h-.01v.01l-.01.01v.01l-.26.35.01-.07.04-.37zM94.2 14.09c-.06.56-.16 1.1-.3 1.62a9.22 9.22 0 0 1-.58 1.51c-.23.48-.5.94-.81 1.36-.3.43-.64.82-1.01 1.19a8.33 8.33 0 0 1-4.09 2.21c-.53.1-1.06.16-1.61.16H79L80.62 6h6.75c.55 0 1.08.06 1.58.17.5.1.98.27 1.43.48.44.22.86.47 1.23.76.37.29.71.62 1.02.99.3.37.56.76.78 1.19a7.68 7.68 0 0 1 .81 2.9c.04.52.04 1.05-.02 1.6zm-.78 1.48c.14-.49.24-1 .29-1.52.05-.52.06-1.03.02-1.52-.04-.49-.12-.96-.25-1.42-.13-.46-.3-.89-.51-1.29-.2-.4-.44-.77-.72-1.11-.28-.33-.59-.64-.94-.91s-.73-.5-1.15-.7c-.41-.2-.85-.35-1.31-.45-.47-.1-.96-.15-1.48-.15h-6.31l-1.52 15.14h6.26c.52 0 1.02-.05 1.51-.14.49-.1.96-.25 1.42-.45.46-.2.89-.44 1.29-.71.41-.27.79-.58 1.14-.92.35-.35.67-.72.95-1.12.29-.4.55-.84.77-1.3.23-.46.41-.93.54-1.43zm-2.77-1.61c.04-.35.05-.69.03-1.02-.02-.33-.07-.65-.15-.96-.08-.31-.18-.6-.32-.87a3.68 3.68 0 0 0-.48-.75c-.18-.23-.39-.43-.63-.61a4.122 4.122 0 0 0-1.74-.77c-.34-.07-.7-.1-1.09-.1h-2.42l-1.02 10.18h2.37c.38 0 .75-.03 1.1-.09.34-.07.67-.16.99-.29.31-.13.61-.28.88-.46.28-.17.53-.38.76-.6.24-.23.45-.48.64-.75.19-.26.36-.55.51-.86.14-.31.27-.64.36-.98.1-.34.17-.69.21-1.07zm.52-1.05c.02.36.01.73-.03 1.11-.05.4-.12.78-.23 1.14a6.252 6.252 0 0 1-.94 2c-.21.29-.44.56-.69.81-.26.25-.54.47-.84.67-.3.19-.62.36-.97.5-.34.14-.7.24-1.09.31-.38.07-.77.11-1.18.11h-2.91l1.12-11.17h2.86c.42 0 .82.03 1.19.11a4.589 4.589 0 0 1 1.94.86c.27.2.51.43.72.69a4.857 4.857 0 0 1 .89 1.81c.09.34.14.69.16 1.05zm16.44 3.33c-.02.2-.05.4-.09.6l-.06.3-.11.5h-8.91l.05.14c.05.15.12.29.19.42.07.14.16.26.25.38.09.11.2.22.31.32.12.09.24.18.37.26.14.08.28.15.44.2.15.06.31.1.48.13.17.03.36.04.56.04.24 0 .48-.02.72-.06a5.153 5.153 0 0 0 1.44-.48c.21-.12.4-.24.57-.38l.19-.15 1.94 2.16-.23.16c-.43.3-.85.56-1.26.77-.42.21-.83.38-1.23.51-.4.12-.81.21-1.22.28-.41.06-.84.09-1.26.09-.44 0-.86-.04-1.27-.12-.4-.09-.79-.21-1.16-.37-.37-.17-.71-.36-1.02-.58-.31-.22-.6-.47-.85-.75-.51-.56-.89-1.22-1.14-1.98-.13-.38-.21-.77-.26-1.17-.04-.4-.04-.82.01-1.24.04-.43.12-.85.24-1.25.13-.4.29-.79.49-1.16.2-.38.42-.73.68-1.05.26-.33.54-.63.85-.91.31-.27.64-.52 1-.74.35-.22.72-.41 1.11-.57.4-.16.81-.29 1.22-.37a6.668 6.668 0 0 1 2.47-.01c.39.08.77.2 1.14.35.36.15.7.34 1.02.55.31.21.61.45.87.73.54.54.94 1.2 1.2 1.95.13.38.22.78.26 1.2.05.42.05.85 0 1.3zm-.57.5c.04-.19.07-.38.08-.54.04-.42.05-.83.01-1.21s-.12-.74-.24-1.08a4.755 4.755 0 0 0-1.89-2.44c-.28-.2-.6-.37-.93-.51a5.803 5.803 0 0 0-3.33-.3c-.38.07-.76.18-1.12.33-.37.15-.71.33-1.04.54-.33.2-.64.43-.93.69a6.611 6.611 0 0 0-1.43 1.82c-.18.35-.33.71-.45 1.08a6.332 6.332 0 0 0-.23 2.29c.04.37.12.73.23 1.07.23.69.58 1.29 1.04 1.8.23.25.49.48.77.68.29.2.6.38.94.53.33.15.69.26 1.06.34.37.07.76.11 1.17.11a7.847 7.847 0 0 0 2.33-.35c.38-.12.76-.28 1.15-.48.32-.16.65-.35.98-.57l-1.26-1.41c-.15.11-.3.2-.47.29-.23.13-.49.23-.77.33-.27.09-.54.16-.81.2-.28.05-.55.07-.81.07-.22 0-.44-.01-.64-.05-.2-.03-.39-.08-.57-.15-.19-.06-.35-.14-.51-.23-.16-.1-.31-.2-.45-.32-.13-.12-.26-.24-.37-.38a3.52 3.52 0 0 1-.3-.45c-.08-.16-.16-.32-.22-.48-.06-.17-.11-.34-.15-.51l-.07-.3h9.14l.09-.41zm-2.83-1.86c-.07-.22-.16-.42-.26-.6-.16-.26-.35-.5-.59-.7-.24-.2-.5-.34-.78-.44-.29-.1-.59-.15-.92-.15-.33 0-.64.05-.95.15-.3.1-.59.25-.87.45a3.887 3.887 0 0 0-1.11 1.29h5.48zm.16-.85c.18.31.32.66.4 1.05l.06.29h-6.85l.14-.34c.16-.38.35-.72.59-1.03.24-.3.52-.57.84-.8.32-.24.66-.41 1.01-.53.35-.12.72-.18 1.1-.18.38 0 .74.06 1.08.18.34.12.65.3.93.54.29.23.52.51.7.82zm15.95-3.34-5.45 11.47h-3.12c-1.09-3.94-2.17-7.88-3.26-11.82h3.61l1.67 7.06 3.09-7.06h3.62l-.16.35zm-5.76 10.97 5.14-10.82h-2.52l-3.55 8.11-1.92-8.11h-2.58l2.99 10.82h2.44zM131.24.4l-.01.02-.01.01-.01.02-.01.01-.01.02-.01.01-.01.02-.01.01-.01.02-.01.01-.02.03-.02.03-.02.03-.03.04-.02.03-.02.03-.01.01-.02.02v.01l-.02.02-.01.02-.02.02-.01.01-.01.02-.01.02-.02.01-.01.02-.01.02-.02.02-.01.01-.02.03v.01l-.03.02v.01l-.03.03v.01l-.03.03-.02.04-.03.03-.01.01-.02.03-.01.01-.02.02-.01.01-.02.03-.01.01-.02.03-.01.01-.02.02-.01.02-.02.02-.02.02-.01.02-.02.02-.01.02-.02.03-.01.01-.03.03-.03.04-.04.04-.03.04-.03.04-.01.01-.02.03-.01.01-.03.03-.01.01-.02.03-.01.01-.02.03-.02.02-.02.02-.02.02-.01.02-.02.03-.02.01-.02.03-.01.02-.03.03-.01.01-.03.03v.01l-.04.04-.03.04-.04.05-.04.04v.01l-.03.03-.01.01-.03.04-.01.01-.03.03-.01.02-.03.03-.01.02-.02.02-.02.02-.02.02-.02.03-.02.02-.03.03-.01.01-.03.04-.01.01-.03.04v.01l-.04.04-.04.05-.08.09-.05.06-.03.03-.08.09-.02.03-.06.07-.07.09h-.01l-.08.1-.05.06-.03.03-.08.1-.02.03-.06.07-.08.09-.01.01-.13.16-.03.04-.09.1-.02.03-.06.07-.08.1h-.01l-.09.11-.05.06-.03.04-.09.11-.02.02-.07.09-.07.09-.01.01-.09.11-.05.06-.04.05-.09.11-.02.02-.07.09-.07.1-.01.01-.09.11-.05.06-.04.06-.09.11-.02.02-.07.09-.07.1-.02.02-.09.11-.04.06-.05.06-.09.12-.01.01-.08.1-.07.1-.02.02-.08.12-.05.06-.04.06-.09.12-.01.02-.08.1-.07.1-.02.02-.09.13-.03.05-.05.07-.09.12-.01.02-.08.11-.06.09-.02.03-.09.13-.04.05-.05.08-.08.12-.01.01-.08.12-.06.09-.02.04-.09.13-.06.09-.02.04-.08.12-.01.01-.08.13-.05.09-.03.04-.08.13-.03.04-.05.09-.08.13-.11.18-.04.08-.01.01-.08.13-.02.05-.05.09-.01.02-.11.18-.03.07 1.81-.07c.81-.03 1.59-.12 2.3-.42.64-.27 1.22-.72 1.71-1.44-.28.05-.56.06-.85.06a6.02 6.02 0 0 1-1.11-.14l-2.18-.5 2.22.27c.74.09 1.4-.03 1.99-.41.54-.35 1.01-.92 1.4-1.74-.5.1-.96.16-1.41.18-.66.02-1.3-.03-2.04-.14.4 0 1.18-.06 1.98-.3.51-.15 1.03-.38 1.47-.72.31-.25.57-.53.74-.86.18-.32.28-.68.29-1.08.02-.73-.26-1.57-.96-2.51zm-7.37 9.83-.04.07-.01.01-.1.18-.03.06-.04.08-.04.08-.01.01-.03.07-.05.08-.04.09-.04.08-.04.08-.04.08-.01.01-.03.07-.04.08-.04.09-.01.02-.07.15-.03.07-.04.09-.04.08-.01.02-.03.06-.03.09-.04.08-.03.07-.01.01-.03.09-.04.08v.02l-.03.06-.03.09-.02.04-.04.1-.01.03-.03.08-.01.02-.04.1-.05.15-.03.07-.03.09-.03.08-.03.08v.01l-.03.08-.01.04-.04.13h-.01l-.02.09-.01.03-.04.12-.01.02-.02.09-.05.17-.03.08v.01l-.04.13v.04l-.03.08-.03.12-.03.13-.02.1-.02.09-.02.08-.01.06-.01.03-.02.09v.04l-.02.1-.01.03-.02.09-.02.15-.01.03c.77-.02 1.48-.29 2.15-.76.66-.46 1.28-1.1 1.87-1.85-.22.01-.44.01-.66 0-.31-.02-.61-.07-.9-.15l-1.37-.33 1.4.11c.74.05 1.46-.03 2.15-.43.65-.37 1.28-1.03 1.87-2.11-.37.11-.75.2-1.15.25-.49.06-1.01.07-1.54.02l-1.82-.15zm-2.27 5.62.02-.13.01-.07.01-.02.03-.21.02-.06.03-.2.01-.03c.01-.07.03-.14.05-.22v-.02l.05-.22.01-.03c.02-.07.03-.14.05-.21l.01-.04.06-.2.01-.05.05-.19.02-.05.06-.2.01-.04c.05-.15.1-.31.15-.46l.01-.01.08-.22.01-.02.07-.21.02-.03.08-.22.01-.02.08-.19.02-.05c.09-.23.19-.45.29-.67l.02-.03c.28-.62.6-1.23.95-1.82l.12-.22h.01c.17-.3.35-.59.53-.88.09-.14.18-.28.28-.42l.01-.02c.09-.13.17-.26.26-.39l.06-.08.1-.14.01-.02.13-.18.01-.03c.14-.2.28-.39.42-.58l.02-.02.14-.19.08-.12.06-.08.03-.03.11-.15.01-.01.08-.11.07-.09.01-.02.12-.15.02-.02.07-.09.08-.1.01-.01.26-.34.02-.02.06-.08.09-.11.05-.06.09-.12.05-.06.1-.12.04-.05.1-.13.04-.05.11-.12.03-.05.11-.12.03-.04.11-.13.03-.04.11-.13.03-.03.11-.14.02-.02.12-.14.02-.02.25-.3.01-.01.12-.15.01-.01.12-.14h.01l.12-.15.03-.04.04-.04.58-.69-.32.33c-3.4 3.5-7.16 7.37-8.31 13.94l.43-.04.03-.29zm-.15.54-.35.03c-.04.22-.07.45-.1.68v-.01l.45-.7zM13.24 22.14H9.29l-5.56-6.92-.7 6.92H0L1.57 6.5H4.6l-.7 6.98L11 6.5h3.59l-7.83 7.68 6.48 7.96zm16.91-11.32-4.93 11.34h-2.45l-1.57-6.75-2.92 6.75h-2.45l-2.67-11.34h2.97l1.42 7.08 2.85-7.08h2.5l1.44 7.08 2.84-7.08h2.97zm12.37 5.65c-.01.18-.04.37-.08.57-.04.19-.08.39-.13.6h-9.03c.07.33.18.64.34.93.16.29.37.55.62.76.25.22.54.39.88.51.33.12.71.19 1.12.19.51 0 1.03-.09 1.55-.27.53-.17.98-.41 1.35-.71l1.6 1.78c-.84.58-1.65 1-2.43 1.24-.77.24-1.57.36-2.41.36-.84 0-1.62-.16-2.32-.47-.71-.31-1.31-.73-1.79-1.27-.49-.53-.85-1.16-1.09-1.89-.24-.72-.32-1.49-.24-2.31.08-.82.32-1.6.7-2.32.39-.72.88-1.35 1.48-1.89.6-.53 1.28-.95 2.05-1.27.76-.31 1.55-.47 2.39-.47.79 0 1.54.15 2.24.44.7.3 1.31.71 1.81 1.23.51.52.89 1.14 1.15 1.86.25.73.33 1.53.24 2.4zm-2.84-1.1c-.15-.71-.48-1.29-1.01-1.73-.52-.43-1.14-.65-1.86-.65-.7 0-1.35.22-1.96.65-.6.44-1.05 1.02-1.35 1.73h6.18zm16.27 1.1c-.01.18-.04.37-.08.57-.04.19-.08.39-.13.6h-9.03c.07.33.18.64.34.93.16.29.37.55.62.76.25.22.55.39.88.51.33.12.71.19 1.12.19.51 0 1.03-.09 1.55-.27.53-.17.98-.41 1.35-.71l1.6 1.78c-.84.58-1.65 1-2.42 1.24-.78.24-1.58.36-2.42.36-.84 0-1.62-.16-2.32-.47-.71-.31-1.31-.73-1.79-1.27-.49-.53-.85-1.16-1.09-1.89-.24-.72-.32-1.49-.24-2.31.08-.82.32-1.6.7-2.32.39-.72.88-1.35 1.48-1.89.6-.53 1.29-.95 2.05-1.27.76-.31 1.56-.47 2.39-.47.79 0 1.54.15 2.24.44.7.3 1.31.71 1.82 1.23.5.52.88 1.14 1.14 1.86.25.73.33 1.53.24 2.4zm-2.84-1.1c-.15-.71-.48-1.29-1.01-1.73-.52-.43-1.14-.65-1.86-.65-.7 0-1.35.22-1.96.65-.6.44-1.05 1.02-1.34 1.73h6.17zm14.79 6.77h-3.35l-4.02-5.07-.51 5.07h-2.88l1.63-16.21h2.88l-.98 9.7 4.43-4.79h3.29l-5.19 5.49 4.7 5.81zm9.58-3.17c-.06.56-.24 1.06-.54 1.5-.3.43-.68.8-1.13 1.09-.45.29-.94.52-1.48.67-.53.15-1.06.22-1.57.22-.86 0-1.64-.16-2.33-.48-.69-.32-1.28-.83-1.76-1.53l1.88-1.72c.29.43.65.76 1.07 1 .42.24.88.37 1.39.37.44 0 .82-.09 1.13-.25.31-.16.48-.41.51-.73.04-.34-.14-.62-.54-.85-.39-.23-.96-.46-1.69-.68-.43-.13-.84-.29-1.24-.5-.4-.2-.74-.45-1.04-.74-.3-.29-.52-.63-.68-1.01-.16-.37-.21-.81-.16-1.31.05-.54.23-1.03.53-1.47.3-.44.67-.8 1.11-1.1.44-.29.93-.51 1.47-.67a5.61 5.61 0 0 1 1.61-.24c1.72 0 3.07.66 4.03 1.96l-1.85 1.7c-.28-.4-.62-.72-1.02-.96-.39-.23-.83-.35-1.33-.35-.17 0-.35.02-.54.07-.2.04-.38.11-.55.19-.17.09-.32.2-.44.34a.87.87 0 0 0-.2.46c-.03.3.14.56.52.78.37.22.92.44 1.64.66.47.15.91.33 1.32.55.4.22.76.48 1.05.77.3.3.52.63.67 1 .16.37.21.79.16 1.26zm44.5 3.17h-3.27l.35-3.5h3.49l-.35 3.5h-.22zm-2.73-.49h2.51l.25-2.52h-2.51l-.25 2.52z" style="fill:#f08519;fill-rule:nonzero"/></svg>