<svg xmlns="http://www.w3.org/2000/svg" xml:space="preserve" width="512" height="77" style="shape-rendering:geometricPrecision;text-rendering:geometricPrecision;image-rendering:optimizeQuality;fill-rule:evenodd;clip-rule:evenodd" viewBox="0 0 140.11 21.06"><path d="M86.6 20.76h-2.94l-5.32-9.8-.98 9.8H74.1c.51-5.06 1.02-10.13 1.52-15.2h3.55l4.99 9.09.92-9.09h3.26l-1.53 15.2h-.21zm42.51-4.3c.02-.15.03-.3.05-.44l.01-.03v-.05l.06-.41v-.01l.03-.14.03-.18c1.08-6.27 4.64-9.93 7.87-13.25.37-.38.74-.76 1.1-1.14.24-.27.48-.53.71-.81l.1.12c.75.97 1.06 1.85 1.04 2.62-.01.4-.12.78-.3 1.11-.18.33-.44.62-.75.87-.41.31-.91.56-1.48.71.5-.03 1.01-.11 1.51-.22l.21-.05-.09.19c-.4.93-.9 1.56-1.49 1.94-.23.14-.46.25-.71.32.24-.01.49-.04.74-.1l.25-.06-.14.22c-.51.85-1.13 1.36-1.83 1.65l-.09.04c.18-.05.37-.1.55-.17l.25-.09-.12.24c-.61 1.2-1.27 1.91-1.96 2.31-.29.17-.59.28-.89.35.14 0 .28-.01.42-.03l.26-.03-.16.2c-.61.81-1.26 1.5-1.95 1.98-.67.47-1.39.75-2.17.75-.02.13-.04.26-.05.38v.03l-.02.02-.01.01-.01.02v.01l-.01.01-.01.02-.01.01-.01.01v.01l-.01.01v.01l-.01.01v.01h-.01v.01l-.01.01-.01.01v.02h-.01v.01l-.01.01-.01.01v.01l-.01.01v.01h-.01v.02h-.01v.01l-.01.01-.01.01-.01.01v.02l-.01.01-.01.01v.01l-.01.01v.01h-.01v.01l-.01.01-.01.01v.02h-.01v.01l-.01.01-.01.01-.01.02-.01.01v.01l-.01.01v.01h-.01v.01l-.01.01v.01l-.01.01v.01h-.01l-.01.02v.01l-.04.06-.06.09-.05.07-.01.02-.01.01-.04.06-.02.03-.01.02v.01h-.01v.01l-.01.01-.01.01v.01l-.01.01-.01.01v.01l-.01.01-.01.01v.01h-.01v.02h-.01v.01l-.01.01v.01h-.01v.01h-.01v.01l-.01.01v.01l-.01.01-.01.01v.01h-.01v.01h-.01v.02h-.01v.01h-.01l-.24.33.01-.06.04-.34zM138.99.38l-.01.01-.01.02-.01.01-.01.01-.01.02-.01.01-.01.02-.01.01-.01.02-.01.01-.01.02-.01.01-.01.02-.01.01-.02.02-.02.03v.01l-.02.02v.01l-.02.02-.01.01-.01.02-.01.01-.02.02v.02l-.02.02-.01.01-.01.02-.02.01-.01.02-.01.02-.01.01-.02.02-.01.01-.01.03h-.01l-.02.03-.01.01-.02.03-.03.03-.02.03v.01l-.03.03-.03.03v.01l-.02.03-.01.01-.02.02-.01.01-.02.02-.01.02-.02.02-.01.02-.02.01-.01.03-.01.01-.02.02-.01.02-.02.02-.01.01-.03.03v.01l-.03.03-.03.04-.03.04-.03.03-.01.01-.02.03-.01.01-.02.03-.01.01-.03.03-.01.01-.02.02-.01.02-.02.02-.02.02-.01.02-.02.02-.01.02-.03.03-.01.01-.02.03-.01.01-.03.03v.01l-.03.03-.01.01-.03.04-.03.04h-.01l-.03.04-.03.04-.01.01-.03.03-.01.01-.02.03-.02.02-.02.02-.01.02-.02.02-.02.03-.02.02-.02.02-.01.02-.03.03-.01.01-.03.03-.01.01-.03.04v.01l-.04.04-.04.04-.07.09-.05.05-.02.03-.08.09-.02.03-.05.06-.07.08v.01l-.08.09-.05.05-.03.04-.07.09-.03.02-.05.07-.07.09h-.01l-.13.15-.03.04-.08.1-.02.02-.06.07-.07.09-.01.01-.08.1-.04.05-.04.04-.08.1-.02.03-.06.07-.07.09-.01.01-.09.11-.04.05-.04.05-.08.1-.02.02-.06.08-.08.09-.01.02-.08.1-.04.06-.04.05-.09.11-.01.01-.07.09-.07.09-.01.02-.09.11-.04.05-.04.06-.08.11-.02.01-.07.1-.07.09-.01.02-.09.11-.03.05-.05.06-.08.12-.01.01-.07.1-.07.09-.02.02-.08.12-.04.05-.04.06-.08.12-.01.01-.08.11-.06.08-.02.03-.08.12-.03.05-.05.07-.08.12v.01l-.08.11-.06.08-.02.04-.08.12-.06.09-.02.03-.07.12-.01.01-.07.11-.05.09-.03.04-.07.12-.03.04-.05.08-.08.13-.1.17-.04.07v.01l-.08.12-.02.04-.05.09-.01.02-.1.17-.03.06 1.7-.06c.76-.03 1.5-.11 2.16-.4.6-.25 1.15-.67 1.6-1.35-.26.05-.53.07-.79.06-.35-.01-.7-.06-1.04-.13l-2.05-.47 2.08.25c.69.09 1.32-.03 1.86-.38.51-.32.96-.86 1.33-1.64-.48.1-.91.16-1.33.18-.62.02-1.22-.03-1.92-.13.38-.01 1.11-.06 1.86-.28.48-.14.97-.36 1.38-.68.3-.23.53-.5.7-.81.16-.3.26-.64.27-1.01.02-.68-.25-1.48-.9-2.35zm-6.92 9.21-.04.07v.01l-.09.17-.03.06-.04.07-.04.08-.01.01-.03.06-.04.08-.04.08-.04.07-.04.08-.03.08-.01.01-.03.06-.04.08-.04.08v.01l-.07.15-.03.07-.04.08-.04.07v.02l-.03.06-.03.08-.04.08-.03.07v.01l-.03.08-.04.07-.01.02-.02.06-.03.08-.02.04-.03.09-.01.03-.04.08V12l-.04.1-.05.14-.02.07-.03.08-.03.08-.03.07v.01l-.03.08-.01.03-.04.12v.01l-.02.08-.01.02-.04.12v.02l-.03.08-.05.16-.02.08-.03.13-.01.03-.02.08-.03.11-.03.12-.02.1-.02.08-.02.08-.01.06-.01.02-.01.09-.01.03-.02.1-.01.03-.01.08-.03.15v.02c.72-.02 1.39-.28 2.02-.71.61-.43 1.19-1.03 1.75-1.74-.21.01-.42.01-.62 0-.29-.02-.57-.07-.85-.14l-1.28-.31 1.32.1c.69.05 1.37-.02 2.01-.4.61-.35 1.2-.96 1.75-1.98-.34.11-.7.19-1.07.23-.46.06-.95.07-1.45.03l-1.71-.15zm-2.12 5.28.02-.12.01-.07v-.02l.03-.2.02-.06.03-.18.01-.03c.01-.07.02-.13.04-.2l.01-.03.04-.2.01-.03c.02-.07.03-.13.05-.2l.01-.03.05-.19.01-.05.05-.17.02-.06.05-.18.02-.04c.04-.14.09-.28.14-.43v-.01l.08-.2v-.03l.08-.19.01-.03.08-.2.01-.02.07-.18.02-.05.27-.63.02-.03c.27-.58.57-1.15.89-1.7l.12-.21c.16-.28.33-.55.5-.82.09-.13.17-.27.26-.4l.01-.02c.08-.12.17-.24.25-.36l.05-.07.09-.14.01-.01.13-.18.01-.02c.13-.19.26-.37.4-.55l.01-.02.13-.17v-.01l.08-.1.06-.08.02-.03.1-.14.02-.02.07-.09.06-.09.02-.01.11-.15.01-.02.07-.08.07-.1.01-.01.25-.32.02-.02.05-.06.09-.11.05-.06.08-.11.05-.06.09-.11.04-.05.1-.11.03-.05.1-.12.04-.04.09-.12.04-.04.1-.12.02-.03.11-.13.02-.03.11-.12.02-.03.11-.13.02-.02.23-.28.01-.01.12-.13v-.01l.12-.14.12-.14.03-.04.03-.03.55-.65-.3.31c-3.2 3.29-6.72 6.91-7.8 13.08l.4-.04c.01-.09.03-.18.04-.27zm-.15.5-.33.03-.09.64v-.01l.42-.66zM12.41 20.76h-3.7L3.5 14.27l-.66 6.49H0L1.48 6.09h2.84l-.66 6.55 6.65-6.55h3.38L6.34 13.3l6.07 7.46zm15.87-10.61-4.63 10.63h-2.29l-1.47-6.32-2.75 6.32h-2.29l-2.51-10.63h2.79l1.33 6.63 2.67-6.63h2.35l1.35 6.63 2.66-6.63h2.79zm11.6 5.3c-.01.17-.04.35-.08.53-.03.18-.07.37-.12.57h-8.47c.07.3.18.59.33.87.15.27.34.51.57.71.24.2.52.36.83.48.31.12.66.17 1.05.17.48 0 .96-.08 1.46-.24.49-.17.91-.39 1.26-.67l1.5 1.67c-.79.55-1.55.93-2.27 1.16-.73.23-1.48.34-2.27.34s-1.52-.15-2.18-.44c-.66-.29-1.22-.69-1.68-1.19a5.01 5.01 0 0 1-1.02-1.77c-.22-.68-.3-1.41-.22-2.17.08-.77.3-1.5.66-2.18.36-.68.82-1.27 1.39-1.77.56-.5 1.2-.9 1.91-1.19.72-.29 1.47-.44 2.25-.44.74 0 1.44.14 2.1.41.66.28 1.23.66 1.7 1.15.48.49.83 1.07 1.07 1.75.24.68.32 1.43.23 2.25zm-2.66-1.03c-.14-.67-.46-1.21-.95-1.62a2.63 2.63 0 0 0-1.74-.62c-.66 0-1.28.21-1.84.62-.57.41-.99.95-1.27 1.62h5.8zm15.26 1.03c-.02.17-.04.35-.08.53-.04.18-.08.37-.12.57h-8.47c.06.3.17.59.32.87.15.27.35.51.58.71.24.2.51.36.82.48.32.12.67.17 1.06.17.48 0 .96-.08 1.46-.24.49-.17.91-.39 1.25-.67l1.51 1.67c-.79.55-1.55.93-2.28 1.16-.72.23-1.48.34-2.26.34-.79 0-1.52-.15-2.18-.44-.66-.29-1.22-.69-1.68-1.19-.46-.5-.8-1.09-1.02-1.77-.23-.68-.3-1.41-.22-2.17.07-.77.29-1.5.66-2.18.36-.68.82-1.27 1.38-1.77.57-.5 1.21-.9 1.92-1.19.71-.29 1.46-.44 2.24-.44.75 0 1.45.14 2.11.41.66.28 1.22.66 1.7 1.15.47.49.83 1.07 1.07 1.75.24.68.31 1.43.23 2.25zm-2.66-1.03c-.14-.67-.46-1.21-.95-1.62a2.63 2.63 0 0 0-1.74-.62c-.66 0-1.28.21-1.84.62-.57.41-.99.95-1.27 1.62h5.8zm13.86 6.34h-3.13l-3.78-4.74-.48 4.74H53.6l1.53-15.2h2.69l-.91 9.1 4.15-4.49h3.08l-4.86 5.15 4.4 5.44zm8.99-2.97c-.05.53-.22 1-.51 1.41-.28.41-.64.75-1.06 1.02-.41.28-.88.49-1.38.63-.5.14-1 .21-1.47.21-.81 0-1.54-.15-2.19-.45-.65-.3-1.2-.78-1.65-1.44l1.76-1.61c.28.4.61.71 1 .94.4.23.83.34 1.31.34.41 0 .77-.08 1.06-.23.29-.15.45-.38.48-.69.03-.32-.14-.58-.51-.8-.37-.21-.9-.42-1.58-.63-.41-.12-.8-.28-1.17-.47-.37-.19-.69-.42-.97-.69-.28-.28-.49-.59-.64-.95-.15-.35-.2-.76-.15-1.23.05-.51.22-.97.49-1.38.28-.41.63-.75 1.05-1.03a5.307 5.307 0 0 1 2.88-.85c1.62 0 2.88.61 3.79 1.83l-1.74 1.6a3.12 3.12 0 0 0-.95-.9c-.37-.22-.79-.33-1.25-.33-.16 0-.33.02-.51.07-.19.04-.36.1-.52.18-.16.08-.29.18-.4.31-.12.13-.18.27-.19.43-.03.28.13.53.48.73.35.21.87.42 1.54.63.44.13.85.3 1.23.51.39.21.72.45 1 .73.27.27.48.58.63.93.14.35.19.74.14 1.18zm11.27 2.51h2.45l1.44-14.28h-2.34l-1.02 10.15L78.9 6.02h-2.86L74.6 20.3h2.34l1.1-10.87 5.9 10.87zm16.82-5.09-.03.28c-.02.09-.03.19-.05.28-.06.25-.11.5-.17.76h-8.39l.04.13c.05.14.11.27.19.4.07.13.14.25.23.35.09.11.19.21.29.31.11.09.23.17.36.24.12.08.26.14.4.19.14.06.3.1.46.12.16.03.34.04.52.04.23 0 .46-.02.69-.06.23-.03.47-.09.7-.17.24-.08.45-.17.66-.28.19-.11.38-.23.54-.36l.16-.13 1.83 2.03-.21.15c-.4.28-.8.52-1.19.72-.4.2-.78.36-1.16.48-.37.11-.76.2-1.15.26-.39.06-.78.09-1.19.09-.83 0-1.59-.16-2.28-.46-.35-.16-.67-.34-.96-.55-.3-.21-.57-.44-.81-.71-.24-.26-.45-.55-.63-.86-.17-.31-.32-.64-.44-1-.12-.35-.2-.72-.24-1.1-.04-.38-.04-.77.01-1.17.04-.4.11-.8.23-1.17.11-.38.26-.75.45-1.1.19-.35.41-.68.65-.99.24-.31.5-.59.8-.85.29-.26.6-.5.93-.7.34-.21.69-.39 1.06-.54.37-.16.76-.27 1.14-.35.39-.07.79-.11 1.2-.11a5.604 5.604 0 0 1 3.17.95c.29.2.57.43.82.68.25.26.47.54.66.85.18.31.34.64.47 1 .12.36.2.73.24 1.13.04.39.04.8 0 1.22zm-.49.21c.02-.09.03-.18.03-.25.04-.4.05-.78.01-1.14-.04-.36-.11-.7-.23-1.02-.11-.33-.25-.63-.42-.91a4.43 4.43 0 0 0-1.35-1.39c-.27-.19-.57-.34-.88-.48a5.28 5.28 0 0 0-2.03-.39c-.38 0-.75.03-1.11.1-.36.07-.71.18-1.06.32-.34.14-.67.31-.98.51-.31.19-.6.41-.88.65-.27.24-.52.51-.74.79-.23.29-.43.59-.6.92-.18.33-.32.67-.42 1.02-.11.35-.18.71-.22 1.08-.04.37-.04.73 0 1.08.03.35.11.69.21 1.01.11.32.25.63.41.91.16.28.35.55.57.79.22.24.46.45.73.64.27.19.56.36.88.5.64.28 1.34.42 2.1.42.39 0 .76-.03 1.13-.08.36-.06.72-.14 1.08-.25.35-.11.71-.26 1.08-.45.3-.15.61-.33.92-.54l-1.19-1.33c-.14.1-.28.19-.44.27-.22.12-.46.22-.72.31-.26.09-.52.15-.77.2-.26.04-.52.06-.77.06-.2 0-.4-.01-.59-.04-.19-.04-.38-.08-.55-.15-.17-.06-.33-.14-.47-.22a3.188 3.188 0 0 1-.78-.66c-.1-.13-.2-.27-.28-.42-.08-.15-.15-.3-.2-.46-.06-.15-.11-.31-.15-.48l-.06-.27h8.62l.08-.39.04-.26zm-2.71-1.49c-.06-.21-.15-.4-.25-.57-.14-.25-.33-.47-.55-.66a2.48 2.48 0 0 0-.74-.42c-.27-.09-.56-.14-.87-.14-.31 0-.6.05-.89.14-.28.1-.56.24-.82.43-.27.2-.5.42-.7.67-.13.17-.25.35-.35.55h5.17zm.15-.8c.17.29.29.62.37.98l.06.28h-6.45l.13-.32c.15-.36.33-.68.56-.97.22-.28.48-.54.79-.76.3-.22.62-.38.95-.49.33-.11.68-.17 1.03-.17.36 0 .7.06 1.02.17.32.11.61.28.88.5.27.22.49.48.66.78zm20.41-3.17-4.71 10.82h-2.64l-1.36-5.86-2.54 5.86h-2.64c-.87-3.71-1.75-7.43-2.62-11.14h3.28l1.22 6.1 2.45-6.1h2.7l1.24 6.1 2.45-6.1h3.31l-.14.32zm-5.01 10.36 4.45-10.22h-2.3l-2.9 7.23-1.47-7.23h-2.02l-2.91 7.23-1.45-7.23h-2.32l2.41 10.22h1.97l2.97-6.85 1.6 6.85h1.97zm13.26-2.75c-.03.28-.09.55-.18.8-.09.26-.21.5-.37.72-.15.22-.32.42-.51.6-.18.18-.39.34-.61.49-.23.15-.46.27-.7.38-.24.11-.5.2-.76.28-.27.07-.53.13-.78.16-.26.04-.51.06-.76.06-.42 0-.82-.04-1.21-.12-.38-.08-.74-.2-1.09-.36-.34-.16-.66-.36-.96-.62-.29-.25-.55-.55-.79-.9l-.11-.17 2.11-1.93.15.22c.13.19.27.36.43.5a2.349 2.349 0 0 0 1.07.61c.2.05.41.08.63.08.19 0 .37-.02.53-.05.16-.04.3-.09.43-.15.11-.06.2-.14.26-.22.05-.08.09-.18.1-.3.01-.1-.01-.2-.07-.29-.06-.1-.17-.2-.33-.29-.35-.2-.87-.41-1.54-.61-.21-.06-.41-.14-.62-.22-.2-.08-.4-.17-.59-.27-.19-.09-.38-.21-.55-.33-.17-.12-.34-.26-.48-.41a2.55 2.55 0 0 1-.4-.48c-.12-.17-.22-.35-.3-.54a2.807 2.807 0 0 1-.16-1.35c.02-.27.08-.54.17-.78.09-.26.21-.49.36-.71.15-.22.32-.42.5-.6.19-.18.39-.35.61-.5.22-.14.45-.27.69-.38.24-.11.49-.2.76-.28.26-.08.53-.14.79-.17.27-.04.53-.06.79-.06.85 0 1.6.16 2.27.48.67.32 1.24.81 1.72 1.45l.12.17-2.09 1.92-.15-.22c-.12-.17-.26-.33-.41-.47-.15-.14-.31-.26-.48-.36-.16-.1-.34-.18-.53-.23-.19-.05-.39-.07-.61-.07-.07 0-.15 0-.22.01s-.16.03-.24.05a2.172 2.172 0 0 0-.46.16c-.07.04-.13.07-.19.12-.06.04-.11.09-.15.14-.04.05-.07.1-.1.15a.75.75 0 0 0-.04.16c-.01.08.01.17.07.24.06.1.16.19.31.27.17.1.37.2.62.3.25.1.55.21.88.31.23.07.45.15.66.24a4.978 4.978 0 0 1 1.18.65c.17.12.34.26.48.41a2.855 2.855 0 0 1 .69 1.01c.08.2.13.4.16.62.03.21.03.44 0 .68zm-.61.65c.08-.22.13-.45.16-.69.02-.21.02-.4-.01-.58a1.6 1.6 0 0 0-.13-.5c-.06-.16-.14-.31-.24-.46a3.036 3.036 0 0 0-.77-.77 4.452 4.452 0 0 0-1.09-.6c-.2-.09-.41-.16-.62-.22-.34-.11-.65-.22-.91-.32-.27-.11-.5-.22-.69-.33-.2-.12-.36-.26-.46-.41a.823.823 0 0 1-.13-.55c.01-.1.03-.2.07-.3.04-.09.1-.18.17-.26.07-.08.14-.15.22-.21.08-.06.17-.11.26-.16.09-.04.18-.08.28-.11.09-.04.19-.07.29-.09.1-.02.19-.04.29-.05.1-.01.19-.02.27-.02.25 0 .5.03.73.09.22.06.44.15.65.27.2.12.38.26.55.42.12.11.22.22.32.34l1.4-1.29c-.4-.5-.88-.88-1.42-1.15-.6-.29-1.29-.43-2.07-.43-.24 0-.48.01-.72.05-.25.04-.49.09-.73.16-.25.07-.48.15-.7.26-.22.1-.43.21-.62.35-.2.13-.38.27-.55.43-.16.17-.31.34-.44.53-.13.2-.23.4-.31.61-.07.21-.13.44-.15.68-.02.21-.02.42 0 .61.03.18.07.36.14.51.06.17.15.32.25.47a3.213 3.213 0 0 0 .76.77c.16.11.32.21.5.3s.37.17.55.25c.19.07.38.14.58.2.71.21 1.26.43 1.64.66.22.12.38.27.49.43.11.18.16.38.14.59-.02.19-.08.36-.19.51-.1.15-.24.27-.42.36-.16.09-.35.15-.54.2-.2.04-.41.06-.63.06-.26 0-.51-.03-.74-.1-.24-.06-.47-.15-.68-.27a3.31 3.31 0 0 1-.6-.44 3.8 3.8 0 0 1-.33-.37l-1.43 1.31c.18.25.38.47.59.66.26.22.55.41.85.55.31.14.64.25.99.32s.72.11 1.12.11c.23 0 .46-.02.69-.05.24-.04.48-.09.73-.15.24-.07.47-.16.69-.26.22-.1.44-.21.63-.34a3.887 3.887 0 0 0 1.01-.97c.13-.19.23-.4.31-.61zm4.54 2.54h-3.07l.33-3.28h3.28l-.33 3.28h-.21zm-2.56-.46h2.36l.23-2.36h-2.36l-.23 2.36z" style="fill:#f08519;fill-rule:nonzero"/></svg>