<svg xmlns="http://www.w3.org/2000/svg" xml:space="preserve" width="512" height="99" style="shape-rendering:geometricPrecision;text-rendering:geometricPrecision;image-rendering:optimizeQuality;fill-rule:evenodd;clip-rule:evenodd" viewBox="0 0 135.42 26.3"><path d="M124.02 17.06c.01-.15.03-.3.05-.45l.01-.04v-.04l.06-.43h.01v-.01l.02-.14.03-.19c1.12-6.5 4.81-10.3 8.16-13.74.38-.4.77-.79 1.14-1.18.26-.28.5-.55.74-.84l.1.13c.78 1 1.1 1.92 1.08 2.71-.01.42-.12.81-.31 1.15a2.9 2.9 0 0 1-.78.9c-.42.33-.94.58-1.53.74.52-.04 1.04-.11 1.56-.23l.22-.05-.09.2c-.41.96-.94 1.61-1.54 2-.24.15-.49.27-.74.34.25-.01.51-.04.76-.1l.26-.07-.14.23c-.52.89-1.18 1.41-1.9 1.72l-.09.03c.19-.04.38-.1.57-.17l.26-.1-.13.26c-.63 1.24-1.31 1.98-2.02 2.39-.31.18-.62.29-.93.36.15 0 .29-.01.44-.03l.26-.03-.16.21c-.64.84-1.3 1.55-2.02 2.05-.7.49-1.44.78-2.26.78-.01.13-.03.26-.05.39v.03l-.01.02-.01.02-.01.01-.01.01-.01.02-.01.01-.01.02-.01.01v.02h-.01v.01h-.01v.02l-.01.01-.01.01-.01.01-.01.02v.01l-.01.01v.01h-.01v.01l-.01.01v.01l-.01.01-.01.01v.01h-.01v.02l-.01.01-.01.01-.01.01v.02h-.01v.01l-.01.01v.01h-.01v.01l-.01.01v.01h-.01v.01l-.01.01v.01l-.01.01-.01.01v.01l-.02.02v.01l-.01.01v.01h-.01v.02h-.01v.01l-.01.01v.01h-.01v.01l-.01.01-.01.02-.04.06-.07.11-.04.06-.02.03-.04.07-.03.03-.01.02v.01h-.01v.01l-.01.01v.01h-.01v.01l-.01.01-.01.01v.01l-.01.01v.01h-.01v.01l-.01.01-.01.01V17l-.01.01v.01h-.01v.01l-.01.01v.01h-.01v.01l-.01.01-.01.01v.01h-.01v.01l-.01.01v.01h-.01v.01l-.01.01-.25.34.01-.06.04-.36zm-35.05 4.47h-3.21l.67-6.73h-5.51l-.67 6.73h-3.43c.52-5.23 1.04-10.45 1.57-15.67h3.42l-.6 6.03h5.51l.6-6.03h3.43l-1.57 15.67h-.21zm-2.69-.48h2.47l1.47-14.71h-2.47l-.6 6.03h-6.47l.61-6.03h-2.47l-1.47 14.71h2.47l.67-6.73h6.47l-.68 6.73zm17.29-5.25-.03.28c-.02.1-.04.2-.06.29l-.06.3-.1.49h-8.66l.04.14c.06.13.12.27.19.4s.15.26.24.37c.09.11.2.21.31.31.11.09.23.18.36.25.13.08.27.15.42.2.14.05.3.1.47.12.17.03.35.04.54.04.23 0 .47-.02.71-.06.24-.04.48-.1.72-.18.24-.08.47-.17.67-.29.21-.1.4-.23.56-.36l.18-.14 1.89 2.09-.23.16c-.41.29-.82.54-1.22.75-.41.2-.81.37-1.19.49a8.185 8.185 0 0 1-2.42.36c-.86 0-1.64-.16-2.36-.47a5.35 5.35 0 0 1-1.82-1.3c-.25-.27-.46-.57-.65-.89-.18-.32-.34-.66-.46-1.03s-.2-.75-.24-1.14c-.05-.39-.04-.79 0-1.21.04-.42.12-.82.24-1.21.11-.38.27-.76.47-1.13a6.837 6.837 0 0 1 1.48-1.9c.31-.27.63-.51.97-.72a7 7 0 0 1 1.09-.56c.39-.16.78-.28 1.18-.35.4-.08.82-.12 1.24-.12.4 0 .79.03 1.17.11.38.07.74.18 1.1.33.35.15.69.33.99.54.31.2.59.44.85.71a5.068 5.068 0 0 1 1.42 3.06c.05.41.05.83 0 1.27zm-.51.21c.02-.09.03-.18.04-.26.04-.41.04-.8 0-1.17-.04-.37-.12-.72-.23-1.05a4.7 4.7 0 0 0-1.06-1.73 5.3 5.3 0 0 0-.77-.65c-.29-.19-.59-.35-.91-.49-.33-.13-.67-.23-1.01-.3-.35-.07-.71-.1-1.08-.1-.39 0-.78.03-1.15.11-.37.07-.74.18-1.09.32-.36.15-.69.32-1.02.52-.31.2-.62.43-.9.68-.28.25-.54.52-.77.81-.23.3-.43.62-.61.95-.18.34-.33.69-.44 1.05a6 6 0 0 0-.22 1.12c-.04.38-.04.75 0 1.11.04.36.11.71.22 1.04.11.34.25.65.42.94.17.29.37.56.59.81.46.49 1.01.89 1.66 1.18.66.29 1.38.43 2.17.43.4 0 .78-.03 1.16-.08.38-.06.75-.14 1.11-.26.37-.11.74-.27 1.12-.46.31-.16.63-.35.95-.56l-1.23-1.36c-.14.1-.29.19-.45.28-.23.12-.48.22-.75.31s-.53.16-.79.21c-.27.04-.53.06-.79.06-.21 0-.42-.01-.62-.04-.19-.04-.38-.09-.56-.15-.17-.07-.34-.15-.49-.23-.16-.09-.3-.2-.43-.31-.14-.11-.26-.24-.37-.37-.11-.14-.2-.28-.29-.44-.08-.15-.15-.31-.21-.47a4.58 4.58 0 0 1-.15-.49l-.06-.29h8.88l.09-.4c.01-.09.03-.18.04-.27zm-2.8-1.54c-.06-.21-.15-.4-.25-.58a2.49 2.49 0 0 0-.57-.68c-.24-.19-.49-.34-.76-.43-.28-.1-.58-.15-.9-.15-.32 0-.62.05-.91.15-.3.1-.58.24-.86.44-.27.2-.51.43-.72.69-.13.18-.25.36-.35.56h5.32zm.16-.82c.18.3.31.64.38 1.01l.06.29h-6.65l.13-.33c.16-.37.35-.7.58-1 .23-.3.5-.56.81-.78.32-.23.64-.4.98-.52.35-.11.7-.17 1.07-.17.37 0 .73.06 1.05.18.33.11.63.28.91.52.28.23.51.49.68.8zm8.81 7.8c-.12.05-.24.1-.38.15-.13.04-.27.08-.42.11-.15.03-.3.06-.45.08-.15.01-.3.02-.46.02-.42 0-.83-.06-1.22-.17-.19-.06-.38-.14-.55-.23-.17-.1-.33-.21-.47-.35a2.53 2.53 0 0 1-.63-1.04c-.07-.21-.12-.44-.14-.69-.01-.25-.01-.52.02-.8l1.32-13.26h3.28l-1.28 12.83c-.02.2-.02.37 0 .51.03.11.06.19.11.24.06.06.13.11.2.14.08.03.16.04.26.04.14 0 .27-.02.4-.06.14-.04.28-.1.42-.19l.41-.25-.29 2.86-.13.06zm-.53-.31c.08-.02.15-.05.21-.07l.17-1.68-.12.04c-.18.05-.36.08-.54.08-.16 0-.3-.03-.44-.08-.13-.05-.25-.14-.36-.25a.912.912 0 0 1-.24-.48c-.03-.18-.03-.4-.01-.65l1.23-12.3h-2.31L105 18.57c-.02.26-.03.5-.01.72.02.21.05.41.11.58.12.35.28.63.51.84a2 2 0 0 0 .37.28c.14.08.29.14.46.19.34.1.7.15 1.08.15.14 0 .28 0 .41-.02.14-.01.27-.04.4-.07.13-.03.25-.06.37-.1zm13.11-5.3c-.04.4-.11.79-.21 1.17a7.441 7.441 0 0 1-1 2.12c-.22.32-.47.62-.74.89-.28.27-.57.52-.88.74-.31.21-.64.4-1 .56-.35.17-.72.29-1.1.37a5.69 5.69 0 0 1-1.91.07c-.23-.04-.46-.09-.67-.16-.22-.07-.43-.16-.63-.28-.08-.04-.15-.09-.22-.13l-.49 5.11h-3.24c.54-5.42 1.08-10.84 1.63-16.26h3.22l-.02.35.18-.09c.21-.11.43-.2.66-.28a4.74 4.74 0 0 1 1.48-.24c.35 0 .7.04 1.04.12.33.07.66.19.98.35.32.15.61.34.89.55.27.22.52.46.75.73.24.28.44.57.62.89.17.32.32.66.44 1.03.11.37.19.75.23 1.15.04.4.04.81-.01 1.24zm-.67 1.04c.09-.35.16-.72.2-1.09.04-.4.04-.78.01-1.14-.04-.37-.11-.72-.22-1.05-.11-.34-.24-.66-.4-.95-.16-.29-.35-.56-.56-.81-.21-.24-.44-.46-.69-.66-.25-.19-.51-.36-.8-.5-.29-.14-.58-.25-.88-.32-.3-.07-.61-.1-.93-.1-.23 0-.45.01-.67.05-.22.04-.44.09-.65.16-.22.07-.42.16-.61.25-.19.1-.36.21-.52.32l-.41.31.05-.83h-2.28l-1.53 15.3h2.27l.54-5.57.35.31c.16.13.32.25.49.34.18.1.36.18.54.25.19.06.39.1.6.14.21.03.43.04.66.04.38 0 .73-.03 1.08-.11.35-.07.68-.18 1.01-.33.32-.15.63-.32.92-.53.29-.2.56-.42.81-.68.25-.25.48-.52.68-.82.21-.29.39-.61.55-.94.16-.34.29-.69.39-1.04zm-2.6-1.07c.03-.25.03-.48.02-.71-.02-.21-.05-.42-.1-.61-.05-.2-.12-.37-.2-.54-.08-.16-.17-.31-.29-.45-.1-.13-.23-.25-.36-.35-.14-.1-.29-.19-.45-.26-.16-.08-.34-.13-.53-.17-.18-.03-.39-.05-.6-.05-.27 0-.59.06-.95.17-.18.06-.35.12-.51.2-.11.06-.22.12-.33.19l-.5 5.04c.23.21.47.37.73.48.29.13.6.19.94.19.2 0 .4-.02.59-.06a2.78 2.78 0 0 0 1.07-.45c.16-.1.3-.22.44-.36a3.599 3.599 0 0 0 .69-1c.09-.19.17-.39.22-.6.06-.22.1-.44.12-.66zm.5-.73a7 7 0 0 1-.02.78c-.03.25-.07.5-.14.73-.06.24-.14.46-.25.68-.1.22-.21.42-.34.61-.14.19-.28.37-.44.53a3.699 3.699 0 0 1-1.11.74c-.21.09-.43.16-.65.2-.22.04-.45.07-.68.07-.4 0-.78-.08-1.13-.23a3.3 3.3 0 0 1-.96-.66l-.08-.08c.18-1.83.36-3.66.55-5.48l.08-.07c.15-.11.32-.2.49-.29.18-.09.37-.16.58-.23.41-.13.77-.19 1.09-.19.24 0 .47.02.69.06.22.05.43.11.63.2.2.09.38.19.55.32.16.12.31.27.45.43.13.16.24.35.34.54.1.19.17.4.23.62.06.23.1.47.12.72zM134.26.39l-.01.01-.01.02-.01.01-.01.02-.01.02-.01.01-.01.02-.01.01-.01.02-.01.01-.01.02-.01.01-.02.02V.6l-.02.03-.02.03-.03.03-.02.03v.01l-.02.02-.01.01-.02.02v.01l-.02.02-.01.02-.01.02-.02.01-.01.02-.01.02-.01.01-.02.02-.01.01-.02.03v.01l-.03.03-.02.03-.01.01-.02.03-.03.03v.01l-.03.03-.03.03v.01l-.02.03-.01.01-.02.02-.01.02-.02.02-.01.02-.02.02-.01.02-.02.01-.02.02-.01.02-.02.02-.01.02-.02.02-.01.01-.02.03-.01.01-.03.04-.03.04-.03.03-.01.01-.03.03v.01l-.03.03v.01l-.03.03-.01.01-.02.03-.01.01-.02.03-.02.02-.02.02-.02.02-.01.02-.02.02-.02.02-.02.03-.01.01-.03.03v.01l-.03.03-.01.01-.03.04-.04.04-.03.05h-.01l-.03.04-.03.04-.01.01-.03.03-.01.02-.03.02-.01.02-.02.03-.02.02-.02.02-.02.02-.02.02-.02.03-.01.02-.03.03-.01.01-.03.04-.01.01-.03.03-.01.01-.03.04v.01l-.04.04-.08.09-.05.06-.02.03-.08.09-.02.03-.06.06-.07.09-.08.09-.05.06-.03.04-.08.09-.02.03-.06.07-.08.09-.13.16-.04.04-.08.1-.02.02-.06.08-.08.09v.01l-.09.1-.05.06-.03.04-.09.1-.02.03-.06.08-.08.09-.01.01-.08.11-.05.05-.04.05-.08.11-.02.02-.07.09-.07.09-.01.01-.09.11-.05.06-.04.05-.08.11-.02.02-.07.09-.07.1-.02.01-.08.12-.05.05-.04.06-.09.11-.01.02-.07.1-.07.09-.02.02-.09.12-.04.05-.04.07-.09.11-.01.02-.08.1-.06.09-.02.03-.09.12-.03.05-.05.07-.09.12v.01l-.08.11-.07.09-.02.03-.08.12-.03.05-.05.08-.09.12v.01l-.08.11-.06.09-.02.04-.08.12-.07.1-.02.03-.08.12v.01l-.08.12-.05.09-.03.04-.08.13-.02.04-.05.08-.08.13-.11.18-.04.08h-.01l-.07.13-.03.04-.05.09-.01.02-.1.18-.03.07 1.76-.07c.79-.03 1.55-.12 2.24-.41.62-.26 1.19-.7 1.66-1.4-.27.05-.55.06-.82.06-.36-.01-.72-.06-1.08-.14l-2.13-.49 2.17.27c.71.08 1.36-.03 1.92-.4.53-.33.99-.89 1.37-1.7a7.7 7.7 0 0 1-1.37.18c-.64.03-1.26-.02-1.99-.13.4 0 1.15-.06 1.93-.29.5-.15 1-.37 1.43-.71.31-.23.55-.51.72-.83.18-.31.27-.66.29-1.05.02-.71-.26-1.53-.94-2.44zm-7.17 9.56-.04.07v.01h-.01l-.09.17-.03.06-.04.08-.04.08-.01.01-.03.07-.05.07-.04.08v.01l-.04.07-.04.08-.03.08-.01.02-.03.06-.04.08-.04.08-.01.02-.07.15-.03.07-.04.08-.04.08v.02l-.03.06-.04.09-.03.08-.03.07-.01.01-.03.08-.04.08v.02l-.03.06-.03.08-.02.04-.04.1-.01.03-.03.08-.01.02-.03.1-.06.14-.02.07-.03.08-.03.08v.01l-.03.07v.01l-.03.08-.01.04-.04.12v.01l-.03.08-.01.03-.04.12v.02l-.03.08-.05.17-.02.08-.04.14v.03l-.03.08-.02.12-.04.12-.02.1-.02.09-.02.08-.01.06-.01.03-.01.08-.01.04-.02.09-.01.04-.01.09-.03.14v.03c.75-.02 1.44-.29 2.09-.74.64-.45 1.24-1.07 1.81-1.8-.21.01-.43.01-.64 0-.29-.02-.59-.07-.88-.14l-1.33-.33 1.37.11c.72.05 1.42-.03 2.09-.42.63-.36 1.24-1 1.81-2.05-.35.11-.73.19-1.11.24-.48.06-.98.07-1.5.03l-1.77-.15zm-2.2 5.47.02-.13.01-.07v-.02l.04-.21.01-.06c.01-.06.02-.12.03-.19l.01-.02c.01-.08.03-.15.04-.22l.01-.02.05-.22.01-.02c.01-.07.03-.14.05-.21l.01-.03.05-.2.01-.05.05-.18.02-.06.06-.18.01-.05c.05-.15.1-.29.15-.44v-.01l.08-.21.01-.03.07-.2.02-.03.08-.21.01-.02.07-.19.02-.05c.1-.22.19-.43.29-.65l.01-.03c.28-.6.59-1.19.93-1.77l.12-.21c.17-.29.35-.57.52-.85h.01c.08-.14.17-.28.26-.41l.01-.02c.09-.13.17-.26.26-.38l.05-.08.1-.14.01-.01.13-.19.01-.02c.14-.19.27-.38.41-.57l.02-.02.13-.18.08-.11.06-.08.03-.04.1-.14.02-.01.07-.1.07-.09.01-.02.12-.15.01-.02.07-.09.08-.09.01-.02.26-.33.01-.02.06-.07.09-.11.05-.06.09-.11.05-.06.09-.12.05-.05.09-.12.04-.05.1-.12.04-.04.1-.13.03-.04.11-.12.03-.04.1-.13.03-.03.11-.13.02-.02.11-.14.02-.02.25-.29.01-.01.12-.14v-.01l.12-.14h.01l.12-.15.03-.03.03-.04.57-.67-.31.31c-3.31 3.42-6.96 7.17-8.09 13.57l.42-.04c.01-.1.02-.19.04-.28zm-.15.51-.34.03c-.04.22-.07.44-.1.67v-.01l.44-.69zm-111.87 5.6H9.03L3.62 14.8l-.67 6.73H0L1.53 6.32h2.95l-.69 6.79 6.9-6.79h3.5l-7.61 7.47 6.29 7.74zm16.45-11.01-4.8 11.03h-2.37l-1.53-6.56-2.85 6.56H15.4l-2.6-11.03h2.89l1.38 6.88 2.76-6.88h2.44l1.4 6.88 2.76-6.88h2.89zm12.03 5.49c-.02.18-.04.37-.08.56-.04.19-.08.38-.13.59h-8.78c.07.31.18.61.34.9.15.28.35.53.6.74.24.21.53.37.85.49.32.12.69.18 1.09.18.5 0 1-.08 1.51-.25.51-.17.95-.4 1.31-.7l1.55 1.73c-.81.57-1.6.98-2.35 1.21-.75.24-1.54.35-2.35.35-.82 0-1.57-.15-2.26-.45-.69-.31-1.27-.72-1.74-1.24a5.06 5.06 0 0 1-1.06-1.83c-.23-.71-.31-1.46-.23-2.26.08-.79.31-1.55.68-2.25.38-.7.86-1.31 1.44-1.83.59-.52 1.25-.94 1.99-1.24.74-.3 1.52-.46 2.33-.46.77 0 1.5.15 2.18.43.68.29 1.27.68 1.76 1.19.5.51.87 1.11 1.11 1.82.25.7.33 1.48.24 2.32zm-2.76-1.06c-.15-.7-.47-1.26-.98-1.68-.51-.43-1.11-.64-1.81-.64-.68 0-1.32.21-1.91.64-.59.42-1.02.98-1.31 1.68h6.01zm15.82 1.06c-.01.18-.04.37-.08.56-.04.19-.08.38-.13.59h-8.78c.07.31.18.61.34.9.15.28.35.53.6.74.24.21.53.37.85.49.33.12.69.18 1.1.18.49 0 .99-.08 1.5-.25.52-.17.95-.4 1.31-.7l1.56 1.73c-.82.57-1.61.98-2.36 1.21-.75.24-1.53.35-2.35.35-.82 0-1.57-.15-2.26-.45-.68-.31-1.26-.72-1.74-1.24a5.06 5.06 0 0 1-1.06-1.83c-.23-.71-.31-1.46-.23-2.26.08-.79.31-1.55.68-2.25.38-.7.86-1.31 1.44-1.83.59-.52 1.25-.94 1.99-1.24.74-.3 1.52-.46 2.33-.46.77 0 1.5.15 2.18.43.68.29 1.27.68 1.76 1.19.5.51.87 1.11 1.11 1.82.25.7.33 1.48.24 2.32zm-2.76-1.06c-.15-.7-.47-1.26-.98-1.68-.51-.43-1.11-.64-1.81-.64-.68 0-1.32.21-1.91.64-.59.42-1.02.98-1.31 1.68h6.01zm14.38 6.58h-3.25l-3.92-4.93-.5 4.93h-2.79l1.59-15.76h2.79L59 15.2l4.31-4.66h3.19l-5.04 5.34 4.57 5.65zm9.32-3.08c-.06.54-.23 1.03-.53 1.45-.3.43-.66.78-1.1 1.07-.43.28-.91.5-1.44.64-.52.15-1.03.22-1.52.22-.84 0-1.6-.15-2.27-.46-.67-.31-1.24-.81-1.71-1.5l1.82-1.67c.29.42.64.75 1.05.98.4.23.85.35 1.35.35.43 0 .8-.08 1.1-.24.3-.15.46-.39.5-.71.03-.33-.15-.6-.53-.83-.38-.22-.93-.44-1.64-.65-.42-.13-.82-.29-1.21-.49-.39-.19-.72-.43-1.01-.72-.29-.28-.51-.61-.66-.98-.16-.37-.21-.79-.16-1.27.05-.53.23-1.01.52-1.44.28-.42.65-.78 1.07-1.06.43-.29.91-.51 1.43-.66.53-.15 1.05-.23 1.57-.23 1.68 0 2.98.64 3.92 1.91l-1.8 1.65c-.27-.39-.6-.7-.99-.93-.38-.23-.81-.34-1.29-.34-.17 0-.34.02-.53.06-.19.05-.37.11-.54.19-.16.09-.3.19-.42.33-.11.13-.18.28-.19.44-.03.29.13.55.5.76.36.22.9.43 1.6.65.45.14.88.32 1.27.53.4.22.74.47 1.03.75.29.29.51.61.65.97.15.36.2.77.16 1.23zm49.9 3.08h-3.18l.34-3.4h3.4l-.34 3.4h-.22zm-2.66-.48h2.45l.25-2.45h-2.45l-.25 2.45z" style="fill:#f08519;fill-rule:nonzero"/></svg>