<svg xmlns="http://www.w3.org/2000/svg" xml:space="preserve" width="512" height="78" style="shape-rendering:geometricPrecision;text-rendering:geometricPrecision;image-rendering:optimizeQuality;fill-rule:evenodd;clip-rule:evenodd" viewBox="0 0 139.15 21.2"><path d="M86.39 20.9h-3.12l.66-6.53h-5.35l-.66 6.53H74.6c.5-5.07 1.01-10.14 1.52-15.21h3.33l-.59 5.85h5.35l.59-5.85h3.32L86.6 20.9h-.21zm41.68-4.33.06-.45v-.03l.01-.04.06-.41v-.01l.02-.14.03-.19c1.09-6.31 4.67-9.99 7.92-13.34.38-.38.75-.76 1.11-1.15.25-.26.49-.53.72-.81l.1.12c.76.97 1.07 1.87 1.05 2.64-.02.4-.12.78-.3 1.11-.19.34-.45.63-.76.88-.41.32-.92.56-1.49.72.51-.04 1.01-.11 1.52-.23l.21-.05-.08.2c-.41.93-.92 1.57-1.51 1.94-.23.15-.47.26-.72.33.25-.01.5-.04.75-.1l.25-.06-.13.22c-.52.86-1.15 1.37-1.85 1.67l-.09.03c.18-.04.37-.1.55-.17l.26-.09-.13.25c-.61 1.2-1.27 1.92-1.97 2.32-.29.17-.59.28-.89.35.14 0 .28-.01.42-.03l.26-.03-.16.2c-.62.82-1.27 1.51-1.96 2-.68.47-1.4.75-2.19.75-.02.13-.04.26-.05.39v.02l-.02.02-.01.02-.01.01v.01l-.01.02-.01.01-.01.01-.01.02v.01H129v.01l-.01.01v.01h-.01v.02l-.01.01-.01.01-.01.01v.02h-.01v.01l-.01.01-.01.01v.01l-.01.01-.01.01v.02l-.01.01-.01.01-.01.01v.01l-.01.01v.01h-.01v.02h-.01v.01h-.01v.02h-.01v.01l-.01.01-.01.01v.01l-.01.01-.01.02-.01.02-.01.01-.01.01v.01l-.01.01-.01.01v.01l-.01.01v.01h-.01v.01l-.01.02h-.01l-.03.06-.07.1-.04.07-.02.02v.01l-.04.06-.02.03-.01.02-.01.01-.01.01v.01l-.01.01-.01.01v.01l-.01.01-.01.01v.01h-.01v.01l-.01.01v.01h-.01v.02h-.01v.01h-.01v.02h-.01v.01h-.01v.01h-.01v.02h-.01v.01h-.01v.02h-.01v.01h-.01v.01l-.01.01-.24.34v-.07l.04-.34zM138.02.38l-.01.01-.01.02-.01.01-.01.02-.01.01-.01.01-.01.02-.01.01-.01.02-.01.01-.01.02-.01.01-.01.03h-.01l-.02.03-.02.03-.02.03-.02.03h-.01l-.02.03v.01l-.02.02-.01.01-.01.02-.01.01-.02.02-.01.02-.01.01-.01.02-.01.01-.02.03-.01.01-.02.02v.01l-.02.03h-.01l-.02.03v.01l-.03.03-.03.03-.02.04h-.01l-.02.03-.01.01-.02.02-.01.01-.01.03-.01.01-.02.02-.02.02-.01.02-.02.02-.01.01-.02.02-.01.02-.02.02-.01.01-.02.03-.01.01-.02.03-.01.01-.02.03h-.01l-.03.04-.03.04-.03.03v.01l-.03.03-.01.01-.02.03-.01.01-.02.03-.01.01-.02.03-.02.01-.02.02-.01.03-.02.01-.02.03-.01.01-.02.03-.01.01-.03.03-.01.01-.03.03V2l-.03.04h-.01l-.03.04-.03.04h-.01l-.03.04v.01l-.03.03-.01.01-.03.04-.01.01-.02.03-.02.01-.02.03-.01.02-.02.02-.02.02-.02.02-.02.03-.01.01-.03.03-.01.02-.03.03-.01.01-.03.04-.04.04v.01l-.04.04-.07.09-.05.05-.02.03-.08.09-.02.03-.05.06-.08.08v.01l-.08.09-.04.05-.03.04-.08.09-.02.03-.06.06-.07.09-.01.01-.12.15-.04.04-.07.09-.03.03-.06.07-.07.09-.01.01-.08.09-.04.06-.04.04-.08.1-.02.03-.06.07-.08.09-.01.01-.08.11-.04.05-.04.05-.09.1-.01.02-.07.09-.07.09-.01.01-.09.11-.04.05-.04.05-.08.11-.02.02-.07.09-.07.09-.01.02-.09.11-.04.05-.04.06-.08.11-.02.01-.07.1-.07.09-.01.02-.09.11-.04.05-.04.07-.08.11-.01.01-.08.1-.06.09-.02.03-.08.11-.04.05-.05.07-.08.12-.01.01-.07.1-.06.09-.02.03-.09.12-.03.05-.05.07-.08.12v.01l-.08.11-.06.09-.02.03-.08.12-.06.1-.02.02-.07.13h-.01l-.07.12-.06.09-.02.03-.08.13-.02.04-.05.08-.08.13-.1.17-.04.07-.01.01-.07.13-.03.04-.04.08-.01.02-.1.17-.04.07 1.72-.06c.76-.03 1.5-.12 2.17-.4.6-.26 1.15-.68 1.61-1.37-.26.05-.53.07-.8.06-.35 0-.7-.05-1.04-.13l-2.07-.47 2.1.25c.7.09 1.33-.03 1.87-.38.52-.33.96-.87 1.34-1.65-.48.1-.92.16-1.34.17-.62.03-1.23-.02-1.93-.12.38-.01 1.12-.06 1.87-.29.48-.14.98-.36 1.39-.68.3-.23.54-.5.7-.81.17-.31.27-.65.28-1.02.02-.69-.25-1.49-.91-2.37zm-6.96 9.28-.04.07h-.01v.01l-.09.17-.03.05-.04.08-.04.08-.04.07-.04.08-.04.08-.04.07-.04.08-.03.08-.01.01-.03.06-.04.08-.04.08-.01.02-.06.14-.04.07-.03.08-.04.08v.02l-.03.06-.04.08-.03.07-.03.07v.01l-.04.08-.03.08-.01.02-.02.06-.04.08-.01.04-.04.09-.01.03-.03.08-.01.02-.03.09-.05.14-.03.07-.03.08-.03.08-.02.07v.01l-.03.08-.01.04-.04.12-.03.08-.01.03-.04.12v.02l-.03.08-.04.16-.03.08-.03.13-.01.03-.02.09-.03.1-.03.13-.02.09-.02.09-.02.08-.01.05-.01.03-.01.08-.01.04-.02.09v.04l-.02.08-.02.15-.01.02c.73-.02 1.4-.28 2.03-.72.62-.43 1.21-1.04 1.76-1.75-.21.02-.41.02-.62 0-.29-.02-.57-.07-.85-.13l-1.3-.32 1.33.1c.7.05 1.38-.02 2.04-.4.61-.35 1.2-.97 1.75-1.99-.35.1-.71.18-1.08.23-.46.06-.95.07-1.46.02l-1.71-.14zm-2.14 5.31.02-.12.01-.07v-.02l.03-.2.02-.06.03-.18.01-.03c.01-.07.02-.14.04-.21l.01-.02.04-.21.01-.03c.02-.06.03-.13.05-.2l.01-.03.05-.19.01-.05.05-.17.02-.06.06-.18.01-.04c.04-.15.09-.29.14-.43l.01-.01.07-.21.01-.03.07-.19.01-.03.08-.2.01-.02.07-.19.03-.05c.08-.21.18-.42.27-.62l.02-.03c.27-.59.57-1.16.89-1.72l.12-.21c.17-.28.34-.56.51-.83.09-.13.17-.26.26-.4l.01-.02c.09-.12.17-.24.25-.36l.05-.08.09-.13.01-.02.13-.17.02-.03c.13-.18.26-.37.39-.55l.02-.02.12-.17.01-.01.08-.1.06-.08.02-.03.1-.14.01-.02.08-.09.06-.09.02-.02.11-.14.01-.02.07-.09.07-.09.01-.01.26-.32.01-.02.06-.07.08-.11.05-.06.09-.11.05-.06.09-.11.04-.05.09-.11.04-.05.1-.12.03-.04.1-.12.03-.04.11-.12.02-.04.11-.12.02-.03.11-.13.02-.02.11-.13.02-.02.24-.29.01-.01.11-.13.01-.01.11-.14h.01l.12-.14.03-.04.03-.04.55-.65-.3.31c-3.22 3.31-6.76 6.96-7.85 13.17l.4-.04c.01-.09.02-.18.04-.27zm-.15.5-.33.03c-.03.21-.07.43-.1.64h.01l.42-.67zM12.5 20.9H8.77l-5.25-6.53-.66 6.53H0L1.49 6.14h2.86l-.67 6.59 6.7-6.59h3.4l-7.39 7.25 6.11 7.51zm15.97-10.68-4.66 10.7H21.5l-1.48-6.37-2.76 6.37h-2.31l-2.52-10.7h2.8l1.34 6.68 2.69-6.68h2.36l1.36 6.68 2.68-6.68h2.81zm11.68 5.33c-.01.17-.04.35-.08.54-.03.18-.08.37-.12.57h-8.53c.07.31.18.6.33.88.15.27.34.51.58.71.24.21.52.37.83.48.32.12.67.18 1.06.18.48 0 .97-.08 1.47-.25.49-.16.92-.39 1.27-.67l1.51 1.68c-.8.55-1.56.94-2.29 1.17-.73.23-1.49.34-2.28.34-.8 0-1.53-.15-2.2-.44-.66-.3-1.22-.7-1.68-1.2-.46-.51-.81-1.1-1.03-1.78-.23-.69-.31-1.42-.23-2.19.08-.78.3-1.51.67-2.19.36-.68.83-1.28 1.39-1.78.57-.5 1.21-.9 1.93-1.2.72-.3 1.47-.44 2.26-.44.75 0 1.46.14 2.12.41.66.28 1.23.66 1.71 1.16.48.49.84 1.08 1.08 1.76.24.68.32 1.44.23 2.26zm-2.68-1.03c-.14-.68-.46-1.22-.95-1.64-.5-.41-1.08-.62-1.76-.62-.66 0-1.28.21-1.85.62-.57.42-1 .96-1.27 1.64h5.83zm15.37 1.03c-.02.17-.05.35-.09.54-.03.18-.07.37-.12.57H44.1c.07.31.18.6.33.88.15.27.35.51.58.71.24.21.52.37.83.48.32.12.67.18 1.07.18.48 0 .96-.08 1.46-.25.5-.16.92-.39 1.27-.67l1.51 1.68c-.8.55-1.56.94-2.29 1.17-.73.23-1.49.34-2.28.34-.8 0-1.53-.15-2.19-.44-.67-.3-1.23-.7-1.69-1.2-.46-.51-.81-1.1-1.03-1.78-.23-.69-.3-1.42-.23-2.19.08-.78.3-1.51.67-2.19.36-.68.83-1.28 1.4-1.78.56-.5 1.21-.9 1.92-1.2.72-.3 1.48-.44 2.26-.44.76 0 1.46.14 2.12.41.66.28 1.23.66 1.71 1.16.48.49.84 1.08 1.08 1.76.24.68.32 1.44.24 2.26zm-2.69-1.03c-.14-.68-.46-1.22-.95-1.64-.49-.41-1.08-.62-1.76-.62-.66 0-1.28.21-1.85.62-.57.42-.99.96-1.27 1.64h5.83zm13.96 6.38h-3.15l-3.81-4.78-.48 4.78h-2.71L55.5 5.6h2.71l-.92 9.16 4.19-4.53h3.1l-4.9 5.19 4.43 5.48zm9.05-2.99c-.05.53-.22 1-.51 1.42-.29.41-.64.75-1.06 1.03-.43.28-.89.49-1.4.63-.51.14-1 .21-1.48.21-.82 0-1.55-.15-2.21-.45-.65-.3-1.2-.79-1.65-1.45l1.77-1.63c.28.41.61.73 1.01.95.39.23.83.35 1.31.35.42 0 .77-.08 1.07-.24.29-.15.45-.38.48-.69.03-.32-.14-.58-.51-.8-.37-.22-.9-.43-1.6-.64-.4-.12-.79-.28-1.17-.47-.37-.19-.7-.42-.98-.7-.28-.28-.49-.59-.64-.95-.15-.36-.2-.77-.15-1.24.05-.51.22-.98.5-1.39.28-.41.63-.76 1.05-1.03.41-.28.88-.49 1.38-.64.51-.15 1.02-.22 1.52-.22 1.63 0 2.9.61 3.81 1.84l-1.75 1.61c-.26-.38-.58-.68-.96-.91-.37-.22-.79-.33-1.25-.33-.16 0-.34.02-.52.07-.18.04-.35.1-.52.18-.16.08-.29.19-.41.32-.11.12-.17.27-.19.43-.03.28.14.53.49.74.36.21.87.42 1.55.63.44.13.86.3 1.24.51.39.21.72.45 1 .73.28.28.49.59.64.94.14.35.19.75.14 1.19zm56.11 2.99h-3.09l.33-3.3h3.3l-.33 3.3h-.21zm-2.58-.46h2.38l.23-2.38h-2.37l-.24 2.38zm-42.91 0h2.4l1.43-14.28h-2.39l-.59 5.85h-6.28l.59-5.85h-2.4l-1.43 14.28h2.39l.66-6.54h6.28l-.66 6.54zm16.79-5.08c-.04.42-.12.82-.23 1.2-.12.38-.27.75-.46 1.11-.19.35-.41.68-.64.99-.25.31-.51.59-.81.85-.29.25-.61.49-.94.69-.33.2-.69.38-1.06.53-.38.15-.76.26-1.15.34-.4.07-.8.11-1.21.11-.4 0-.8-.04-1.17-.11a5.75 5.75 0 0 1-1.09-.34c-.34-.16-.66-.33-.96-.54-.29-.21-.56-.45-.81-.71-.24-.26-.45-.55-.64-.86-.18-.32-.33-.65-.45-1.01-.11-.35-.19-.73-.23-1.11a5.913 5.913 0 0 1 .24-2.36c.11-.38.27-.75.46-1.1.19-.35.41-.69.65-.99.24-.31.51-.6.81-.86.29-.27.6-.5.94-.71.33-.21.68-.39 1.05-.54.38-.15.76-.26 1.15-.33.38-.08.78-.12 1.18-.12.41 0 .8.04 1.18.12.38.07.74.18 1.09.34.35.15.67.33.97.53.29.21.56.44.81.7.25.27.46.55.64.86a5.436 5.436 0 0 1 .69 2.13c.03.38.03.78-.01 1.19zm-.68 1.07c.11-.36.18-.73.22-1.12.04-.38.04-.74 0-1.1-.03-.35-.1-.69-.21-1.02-.11-.33-.24-.63-.41-.91-.16-.29-.36-.55-.58-.78-.22-.24-.46-.45-.74-.64a4.984 4.984 0 0 0-1.88-.8c-.35-.07-.71-.1-1.09-.1-.37 0-.74.03-1.1.1-.36.07-.71.18-1.05.31-.35.14-.68.31-.99.5-.31.2-.6.42-.87.66-.28.25-.53.51-.75.8-.23.29-.43.6-.61.93a5.592 5.592 0 0 0-.65 2.1c-.03.38-.04.74 0 1.1.04.35.11.68.21 1.01.11.33.25.63.42.91.16.28.35.55.57.79.23.24.47.45.74.64s.56.35.88.49c.31.14.64.24.99.31.34.07.71.1 1.08.1.38 0 .76-.03 1.12-.1.36-.07.72-.17 1.07-.31a6.806 6.806 0 0 0 1.87-1.14c.27-.24.52-.5.74-.79.23-.29.43-.59.6-.92.17-.32.31-.67.42-1.02zm-2.44-1.12c.02-.21.03-.41.01-.61-.02-.2-.06-.39-.11-.57-.06-.18-.13-.35-.21-.51-.08-.16-.18-.31-.3-.44a1.8 1.8 0 0 0-.37-.36c-.13-.11-.28-.2-.44-.27-.16-.08-.33-.14-.5-.17a2.597 2.597 0 0 0-1.12 0c-.19.03-.37.09-.55.17a3.148 3.148 0 0 0-.96.65c-.15.13-.28.28-.4.45-.11.16-.22.33-.31.52-.1.18-.17.37-.23.57a3.236 3.236 0 0 0-.12 1.24c.01.19.05.38.1.56.06.18.13.35.21.52.09.15.19.3.3.43.11.14.24.26.37.36.14.11.29.2.45.28.16.07.32.13.5.17a3.213 3.213 0 0 0 1.12 0c.18-.04.36-.1.54-.18.18-.07.35-.17.51-.28.16-.1.32-.23.46-.36.14-.14.27-.29.39-.45.12-.17.22-.34.32-.53.09-.18.17-.37.22-.57.06-.2.1-.4.12-.62zm.47-.65c.02.22.02.45-.01.7-.02.24-.07.47-.13.7-.07.23-.15.45-.26.65-.1.21-.22.41-.36.59-.13.18-.28.35-.44.51-.16.16-.34.3-.52.42s-.38.23-.58.32c-.21.09-.42.15-.64.2-.22.04-.44.07-.66.07-.22 0-.44-.03-.65-.07a3.02 3.02 0 0 1-.6-.2c-.19-.1-.37-.2-.53-.33-.16-.13-.31-.27-.45-.43-.13-.16-.25-.33-.35-.52-.09-.18-.17-.38-.24-.59a3.85 3.85 0 0 1-.13-.66 4.237 4.237 0 0 1 .14-1.41c.07-.22.16-.44.26-.65.11-.21.23-.41.36-.59.13-.18.28-.35.44-.51.17-.15.34-.29.52-.42.19-.12.38-.23.59-.32.2-.08.41-.15.63-.2.22-.04.44-.06.66-.06.23 0 .44.02.65.06.21.05.41.12.61.21.18.09.36.19.53.32.16.13.31.27.44.43.13.16.25.33.35.52.1.19.18.38.24.6.07.21.11.43.13.66zm15.33.7c-.04.42-.12.82-.23 1.2-.12.38-.27.75-.46 1.11-.19.35-.41.69-.64.99-.25.31-.52.59-.81.85-.29.25-.61.49-.94.69-.33.2-.69.38-1.06.53-.38.15-.76.26-1.15.34-.4.07-.8.11-1.21.11-.4 0-.8-.04-1.17-.11a5.75 5.75 0 0 1-1.09-.34c-.34-.16-.66-.33-.96-.54-.29-.21-.56-.45-.81-.71-.24-.26-.45-.55-.64-.86-.18-.32-.33-.65-.45-1.01-.11-.35-.19-.73-.23-1.11a5.913 5.913 0 0 1 .24-2.36c.11-.38.27-.75.46-1.1.19-.35.41-.69.65-.99.24-.31.51-.6.81-.86.29-.27.6-.5.94-.71.33-.21.68-.39 1.05-.54.38-.15.76-.26 1.15-.33.38-.08.78-.12 1.18-.12.41 0 .8.04 1.18.12.38.07.74.18 1.09.34.35.15.67.33.97.53.29.21.56.44.81.7.25.27.46.55.64.86a5.436 5.436 0 0 1 .69 2.13c.03.38.03.78-.01 1.19zm-.68 1.07c.11-.36.18-.73.22-1.12.04-.38.04-.74 0-1.1-.03-.35-.1-.69-.21-1.02-.11-.33-.25-.63-.41-.91-.17-.29-.36-.55-.58-.78-.22-.24-.47-.45-.74-.64a4.984 4.984 0 0 0-1.88-.8c-.35-.07-.71-.1-1.09-.1-.37 0-.74.03-1.1.1-.36.07-.71.18-1.05.31-.35.14-.68.31-.99.5-.31.2-.6.42-.87.66-.28.25-.53.51-.75.8-.23.29-.43.6-.61.93a5.592 5.592 0 0 0-.65 2.1c-.03.38-.04.74 0 1.1.03.35.11.68.21 1.01.11.33.25.63.41.91.17.28.36.55.58.79.23.24.47.45.74.64s.56.35.88.49c.31.14.64.24.99.31.34.07.71.1 1.08.1.38 0 .76-.03 1.12-.1.36-.07.72-.17 1.07-.31a6.806 6.806 0 0 0 1.87-1.14c.27-.24.52-.5.74-.79.23-.29.43-.59.6-.92.17-.32.31-.67.42-1.02zm-2.44-1.12c.02-.21.02-.41.01-.61-.02-.2-.06-.39-.11-.57-.06-.18-.13-.35-.21-.51-.08-.16-.18-.31-.3-.44a1.8 1.8 0 0 0-.37-.36c-.13-.11-.28-.2-.44-.27-.16-.08-.33-.14-.5-.17a2.597 2.597 0 0 0-1.12 0c-.19.03-.37.09-.55.17a3.148 3.148 0 0 0-.96.65c-.15.14-.28.29-.4.45-.11.16-.22.33-.31.52-.1.18-.17.37-.23.57a3.236 3.236 0 0 0-.12 1.24c.01.19.05.38.1.56.06.18.13.35.21.52.09.15.19.3.3.43.11.14.24.26.37.36.14.11.29.2.45.28.16.07.32.13.5.17a3.213 3.213 0 0 0 1.12 0c.18-.04.36-.1.54-.18.18-.07.35-.17.51-.28.16-.1.31-.23.46-.36.14-.14.27-.29.39-.45.12-.17.22-.34.32-.53.09-.18.17-.37.22-.57.06-.2.1-.4.12-.62zm.47-.65c.02.22.02.45-.01.7-.02.24-.07.47-.13.7-.07.23-.15.45-.26.65-.1.21-.22.41-.36.59-.13.18-.28.35-.44.51-.16.16-.34.3-.52.42s-.38.23-.58.32c-.21.09-.42.15-.64.2-.22.04-.44.07-.66.07-.22 0-.44-.03-.65-.07a3.02 3.02 0 0 1-.6-.2c-.19-.1-.37-.2-.53-.33-.16-.13-.31-.27-.45-.43-.13-.16-.25-.33-.35-.52-.09-.18-.17-.38-.24-.59a3.85 3.85 0 0 1-.13-.66 4.237 4.237 0 0 1 .14-1.41c.07-.22.16-.44.26-.65.11-.21.23-.41.36-.59.13-.18.28-.35.44-.51.17-.15.34-.29.52-.42.19-.12.38-.23.59-.32.2-.08.41-.15.63-.2.22-.04.44-.06.66-.06.23 0 .44.02.65.06.21.05.41.12.6.21s.37.19.53.32c.17.13.32.27.45.43.13.16.25.33.35.52.1.19.18.38.24.6.07.21.11.43.13.66zm13.7 6.24h-3.27l-3.52-4.42-.44 4.42h-3.18c.53-5.25 1.05-10.51 1.58-15.76h3.18l-.87 8.72 3.78-4.09h3.74l-5.13 5.43 4.61 5.7h-.48zm-3.05-.46h2.56l-4.25-5.26 4.66-4.95h-2.46l-4.58 4.96.96-9.59h-2.25l-1.49 14.84h2.25l.52-5.14 4.08 5.14z" style="fill:#f08519;fill-rule:nonzero"/></svg>