<?xml version="1.0" encoding="UTF-8"?>
<!DOCTYPE svg PUBLIC "-//W3C//DTD SVG 1.1//EN" "http://www.w3.org/Graphics/SVG/1.1/DTD/svg11.dtd">
<!-- Creator: CorelDRAW 2020 (64-Bit) -->
<svg xmlns="http://www.w3.org/2000/svg" xml:space="preserve" width="512px" height="78px" version="1.1" style="shape-rendering:geometricPrecision; text-rendering:geometricPrecision; image-rendering:optimizeQuality; fill-rule:evenodd; clip-rule:evenodd"
viewBox="0 0 139.15 21.2"
 xmlns:xlink="http://www.w3.org/1999/xlink"
 xmlns:xodm="http://www.corel.com/coreldraw/odm/2003">
 <defs>
  <style type="text/css">
   <![CDATA[
    .fil0 {fill:#F08519;fill-rule:nonzero}
   ]]>
  </style>
 </defs>
 <g id="Layer_x0020_1">
  <metadata id="CorelCorpID_0Corel-Layer"/>
  <path class="fil0" d="M86.39 20.9l-3.12 0 0.66 -6.53 -5.35 0 -0.66 6.53 -3.32 0c0.5,-5.07 1.01,-10.14 1.52,-15.21l3.33 0 -0.59 5.85 5.35 0 0.59 -5.85 3.32 0 -1.52 15.21 -0.21 0zm41.68 -4.33c0.02,-0.15 0.04,-0.3 0.06,-0.45l0 -0.03 0.01 -0.04c0.02,-0.14 0.04,-0.28 0.06,-0.41l0 -0.01 0 0 0.02 -0.14 0.03 -0.19 0 0c1.09,-6.31 4.67,-9.99 7.92,-13.34 0.38,-0.38 0.75,-0.76 1.11,-1.15 0.25,-0.26 0.49,-0.53 0.72,-0.81l0.1 0.12c0.76,0.97 1.07,1.87 1.05,2.64 -0.02,0.4 -0.12,0.78 -0.3,1.11 -0.19,0.34 -0.45,0.63 -0.76,0.88 -0.41,0.32 -0.92,0.56 -1.49,0.72 0.51,-0.04 1.01,-0.11 1.52,-0.23l0.21 -0.05 -0.08 0.2c-0.41,0.93 -0.92,1.57 -1.51,1.94 -0.23,0.15 -0.47,0.26 -0.72,0.33 0.25,-0.01 0.5,-0.04 0.75,-0.1l0.25 -0.06 -0.13 0.22c-0.52,0.86 -1.15,1.37 -1.85,1.67l-0.09 0.03c0.18,-0.04 0.37,-0.1 0.55,-0.17l0.26 -0.09 -0.13 0.25c-0.61,1.2 -1.27,1.92 -1.97,2.32 -0.29,0.17 -0.59,0.28 -0.89,0.35 0.14,0 0.28,-0.01 0.42,-0.03l0.26 -0.03 -0.16 0.2c-0.62,0.82 -1.27,1.51 -1.96,2 -0.68,0.47 -1.4,0.75 -2.19,0.75 -0.02,0.13 -0.04,0.26 -0.05,0.39l0 0.02 -0.02 0.02 -0.01 0.02 -0.01 0.01 0 0.01 -0.01 0.02 -0.01 0.01 -0.01 0.01 -0.01 0.02 0 0.01 -0.01 0 0 0.01 -0.01 0.01 0 0 0 0.01 -0.01 0 0 0.01 0 0.01 -0.01 0.01 0 0 -0.01 0.01 0 0 -0.01 0.01 0 0 0 0.01 0 0.01 -0.01 0 0 0.01 -0.01 0.01 0 0 -0.01 0.01 0 0.01 0 0 -0.01 0.01 0 0 -0.01 0.01 0 0 0 0.01 0 0.01 -0.01 0.01 0 0 -0.01 0.01 0 0 -0.01 0.01 0 0 0 0.01 0 0 -0.01 0.01 0 0.01 -0.01 0 0 0.01 0 0.01 -0.01 0 0 0.01 -0.01 0 0 0.01 0 0.01 -0.01 0 0 0.01 0 0 -0.01 0.01 0 0 -0.01 0.01 0 0 0 0.01 0 0 -0.01 0.01 0 0 -0.01 0.02 0 0 -0.01 0.02 0 0 -0.01 0.01 0 0 -0.01 0.01 0 0 0 0.01 0 0 -0.01 0.01 0 0 -0.01 0.01 0 0.01 0 0 -0.01 0.01 0 0 0 0.01 -0.01 0 0 0.01 -0.01 0.02 -0.01 0 -0.03 0.06 0 0 -0.07 0.1 -0.04 0.07 0 0 -0.02 0.02 0 0.01 -0.04 0.06 0 0 -0.02 0.03 0 0 -0.01 0.02 0 0 -0.01 0.01 0 0 0 0 -0.01 0.01 0 0 0 0.01 0 0 -0.01 0.01 0 0 -0.01 0.01 0 0.01 0 0 -0.01 0.01 0 0 -0.01 0.01 0 0.01 0 0 -0.01 0 0 0 0 0.01 0 0 -0.01 0.01 0 0 0 0 0 0 0 0.01 -0.01 0 0 0.01 0 0 0 0 0 0.01 -0.01 0 0 0 0 0.01 0 0 -0.01 0 0 0.01 0 0 0 0 0 0.01 -0.01 0 0 0 0 0.01 0 0 -0.01 0 0 0 0 0.01 0 0 -0.01 0 0 0 0 0.01 0 0 0 0.01 0 0 -0.01 0 0 0 0 0.01 0 0 -0.01 0 0 0 0 0.01 0 0 0 0 0 0.01 -0.01 0 0 0 0 0 0 0.01 0 0 -0.01 0 0 0 0 0.01 0 0 0 0 0 0 -0.01 0.01 0 0 0 0 -0.24 0.34 0 0 0 0 0 -0.07 0.04 -0.34zm9.95 -16.19l-0.01 0.01 -0.01 0.02 -0.01 0.01 -0.01 0.02 -0.01 0.01 -0.01 0.01 -0.01 0.02 -0.01 0.01 -0.01 0.02 -0.01 0.01 -0.01 0.02 -0.01 0.01 -0.01 0.03 -0.01 0 -0.02 0.03 0 0 -0.02 0.03 0 0 -0.02 0.03 0 0 -0.02 0.03 -0.01 0 -0.02 0.03 0 0.01 -0.02 0.02 -0.01 0.01 -0.01 0.02 -0.01 0.01 -0.02 0.02 -0.01 0.02 -0.01 0.01 -0.01 0.02 -0.01 0.01 -0.02 0.03 -0.01 0.01 -0.02 0.02 0 0.01 -0.02 0.03 -0.01 0 -0.02 0.03 0 0.01 -0.03 0.03 0 0 -0.03 0.03 0 0 -0.02 0.04 -0.01 0 -0.02 0.03 -0.01 0.01 -0.02 0.02 -0.01 0.01 -0.01 0.03 -0.01 0.01 -0.02 0.02 -0.02 0.02 -0.01 0.02 -0.02 0.02 -0.01 0.01 -0.02 0.02 -0.01 0.02 -0.02 0.02 -0.01 0.01 -0.02 0.03 -0.01 0.01 -0.02 0.03 -0.01 0.01 -0.02 0.03 -0.01 0 -0.03 0.04 0 0 -0.03 0.04 0 0 -0.03 0.03 0 0.01 -0.03 0.03 -0.01 0.01 -0.02 0.03 -0.01 0.01 -0.02 0.03 -0.01 0.01 -0.02 0.03 -0.02 0.01 -0.02 0.02 -0.01 0.03 -0.02 0.01 -0.02 0.03 -0.01 0.01 -0.02 0.03 -0.01 0.01 -0.03 0.03 -0.01 0.01 -0.03 0.03 0 0.01 -0.03 0.04 -0.01 0 -0.03 0.04 0 0 -0.03 0.04 -0.01 0 -0.03 0.04 0 0.01 -0.03 0.03 -0.01 0.01 -0.03 0.04 -0.01 0.01 -0.02 0.03 -0.02 0.01 -0.02 0.03 -0.01 0.02 -0.02 0.02 -0.02 0.02 -0.02 0.02 -0.02 0.03 -0.01 0.01 -0.03 0.03 -0.01 0.02 -0.03 0.03 -0.01 0.01 -0.03 0.04 0 0 -0.04 0.04 0 0.01 -0.04 0.04 0 0 -0.07 0.09 -0.05 0.05 -0.02 0.03 -0.08 0.09 -0.02 0.03 -0.05 0.06 -0.08 0.08 0 0.01 -0.08 0.09 -0.04 0.05 -0.03 0.04 -0.08 0.09 -0.02 0.03 -0.06 0.06 -0.07 0.09 -0.01 0.01 -0.12 0.15 -0.04 0.04 -0.07 0.09 -0.03 0.03 -0.06 0.07 -0.07 0.09 -0.01 0.01 -0.08 0.09 -0.04 0.06 -0.04 0.04 -0.08 0.1 -0.02 0.03 -0.06 0.07 -0.08 0.09 -0.01 0.01 -0.08 0.11 -0.04 0.05 -0.04 0.05 -0.09 0.1 -0.01 0.02 -0.07 0.09 -0.07 0.09 -0.01 0.01 -0.09 0.11 -0.04 0.05 -0.04 0.05 -0.08 0.11 -0.02 0.02 -0.07 0.09 -0.07 0.09 -0.01 0.02 -0.09 0.11 -0.04 0.05 -0.04 0.06 -0.08 0.11 -0.02 0.01 -0.07 0.1 -0.07 0.09 -0.01 0.02 -0.09 0.11 -0.04 0.05 -0.04 0.07 -0.08 0.11 -0.01 0.01 -0.08 0.1 -0.06 0.09 -0.02 0.03 -0.08 0.11 -0.04 0.05 -0.05 0.07 -0.08 0.12 -0.01 0.01 -0.07 0.1 -0.06 0.09 -0.02 0.03 -0.09 0.12 -0.03 0.05 -0.05 0.07 -0.08 0.12 0 0.01 -0.08 0.11 -0.06 0.09 -0.02 0.03 -0.08 0.12 -0.06 0.1 -0.02 0.02 -0.07 0.13 -0.01 0 -0.07 0.12 -0.06 0.09 -0.02 0.03 -0.08 0.13 -0.02 0.04 -0.05 0.08 -0.08 0.13 0 0 -0.1 0.17 -0.04 0.07 -0.01 0.01 -0.07 0.13 -0.03 0.04 -0.04 0.08 -0.01 0.02 -0.1 0.17 -0.04 0.07 1.72 -0.06c0.76,-0.03 1.5,-0.12 2.17,-0.4 0.6,-0.26 1.15,-0.68 1.61,-1.37 -0.26,0.05 -0.53,0.07 -0.8,0.06 -0.35,0 -0.7,-0.05 -1.04,-0.13l-2.07 -0.47 2.1 0.25c0.7,0.09 1.33,-0.03 1.87,-0.38 0.52,-0.33 0.96,-0.87 1.34,-1.65 -0.48,0.1 -0.92,0.16 -1.34,0.17 -0.62,0.03 -1.23,-0.02 -1.93,-0.12 0.38,-0.01 1.12,-0.06 1.87,-0.29 0.48,-0.14 0.98,-0.36 1.39,-0.68 0.3,-0.23 0.54,-0.5 0.7,-0.81 0.17,-0.31 0.27,-0.65 0.28,-1.02 0.02,-0.69 -0.25,-1.49 -0.91,-2.37zm-6.96 9.28l0 0 -0.04 0.07 -0.01 0 0 0.01 -0.09 0.17 -0.03 0.05 -0.04 0.08 -0.04 0.08 0 0 -0.04 0.07 -0.04 0.08 -0.04 0.08 0 0 -0.04 0.07 -0.04 0.08 -0.03 0.08 -0.01 0.01 -0.03 0.06 -0.04 0.08 -0.04 0.08 0 0 -0.01 0.02 -0.06 0.14 -0.04 0.07 -0.03 0.08 -0.04 0.08 0 0.02 -0.03 0.06 -0.04 0.08 -0.03 0.07 -0.03 0.07 0 0.01 -0.04 0.08 -0.03 0.08 -0.01 0.02 -0.02 0.06 -0.04 0.08 -0.01 0.04 -0.04 0.09 -0.01 0.03 -0.03 0.08 -0.01 0.02 -0.03 0.09 -0.05 0.14 -0.03 0.07 -0.03 0.08 -0.03 0.08 0 0 -0.02 0.07 0 0.01 -0.03 0.08 -0.01 0.04 -0.04 0.12 0 0 -0.03 0.08 -0.01 0.03 -0.04 0.12 0 0.02 -0.03 0.08 0 0 -0.04 0.16 -0.03 0.08 0 0 -0.03 0.13 -0.01 0.03 -0.02 0.09 -0.03 0.1 -0.03 0.13 -0.02 0.09 0 0 -0.02 0.09 -0.02 0.08 -0.01 0.05 -0.01 0.03 -0.01 0.08 -0.01 0.04 -0.02 0.09 0 0.04 -0.02 0.08 -0.02 0.15 -0.01 0.02c0.73,-0.02 1.4,-0.28 2.03,-0.72 0.62,-0.43 1.21,-1.04 1.76,-1.75 -0.21,0.02 -0.41,0.02 -0.62,0 -0.29,-0.02 -0.57,-0.07 -0.85,-0.13l-1.3 -0.32 1.33 0.1c0.7,0.05 1.38,-0.02 2.04,-0.4 0.61,-0.35 1.2,-0.97 1.75,-1.99 -0.35,0.1 -0.71,0.18 -1.08,0.23 -0.46,0.06 -0.95,0.07 -1.46,0.02l-1.71 -0.14zm-2.14 5.31l0 0 0.02 -0.12 0.01 -0.07 0 -0.02 0.03 -0.2 0.02 -0.06c0.01,-0.06 0.02,-0.12 0.03,-0.18l0.01 -0.03c0.01,-0.07 0.02,-0.14 0.04,-0.21l0.01 -0.02 0.04 -0.21 0.01 -0.03c0.02,-0.06 0.03,-0.13 0.05,-0.2l0.01 -0.03 0.05 -0.19 0.01 -0.05 0.05 -0.17 0.02 -0.06 0.06 -0.18 0.01 -0.04c0.04,-0.15 0.09,-0.29 0.14,-0.43l0.01 -0.01 0.07 -0.21 0.01 -0.03 0.07 -0.19 0.01 -0.03 0.08 -0.2 0.01 -0.02 0.07 -0.19 0.03 -0.05c0.08,-0.21 0.18,-0.42 0.27,-0.62l0.02 -0.03c0.27,-0.59 0.57,-1.16 0.89,-1.72l0 0 0.12 -0.21 0 0c0.17,-0.28 0.34,-0.56 0.51,-0.83l0 0c0.09,-0.13 0.17,-0.26 0.26,-0.4l0.01 -0.02c0.09,-0.12 0.17,-0.24 0.25,-0.36l0.05 -0.08 0.09 -0.13 0.01 -0.02 0.13 -0.17 0.02 -0.03c0.13,-0.18 0.26,-0.37 0.39,-0.55l0.02 -0.02 0.12 -0.17 0.01 -0.01 0.08 -0.1 0.06 -0.08 0.02 -0.03 0.1 -0.14 0.01 -0.02 0.08 -0.09 0.06 -0.09 0.02 -0.02 0.11 -0.14 0.01 -0.02 0.07 -0.09 0.07 -0.09 0.01 -0.01 0.26 -0.32 0.01 -0.02 0.06 -0.07 0.08 -0.11 0.05 -0.06 0.09 -0.11 0.05 -0.06 0.09 -0.11 0.04 -0.05 0.09 -0.11 0.04 -0.05 0.1 -0.12 0.03 -0.04 0.1 -0.12 0.03 -0.04 0.11 -0.12 0.02 -0.04 0.11 -0.12 0.02 -0.03 0.11 -0.13 0.02 -0.02 0.11 -0.13 0.02 -0.02 0.24 -0.29 0.01 -0.01 0.11 -0.13 0.01 -0.01 0.11 -0.14 0.01 0 0.12 -0.14 0 0 0.03 -0.04 0.03 -0.04 0.55 -0.65 -0.3 0.31c-3.22,3.31 -6.76,6.96 -7.85,13.17l0.4 -0.04c0.01,-0.09 0.02,-0.18 0.04,-0.27zm-0.15 0.5l-0.33 0.03c-0.03,0.21 -0.07,0.43 -0.1,0.64l0.01 0 0.42 -0.67zm-116.27 5.43l-3.73 0 -5.25 -6.53 -0.66 6.53 -2.86 0 1.49 -14.76 2.86 0 -0.67 6.59 6.7 -6.59 3.4 0 -7.39 7.25 6.11 7.51zm15.97 -10.68l-4.66 10.7 -2.31 0 -1.48 -6.37 -2.76 6.37 -2.31 0 -2.52 -10.7 2.8 0 1.34 6.68 2.69 -6.68 2.36 0 1.36 6.68 2.68 -6.68 2.81 0zm11.68 5.33c-0.01,0.17 -0.04,0.35 -0.08,0.54 -0.03,0.18 -0.08,0.37 -0.12,0.57l-8.53 0c0.07,0.31 0.18,0.6 0.33,0.88 0.15,0.27 0.34,0.51 0.58,0.71 0.24,0.21 0.52,0.37 0.83,0.48 0.32,0.12 0.67,0.18 1.06,0.18 0.48,0 0.97,-0.08 1.47,-0.25 0.49,-0.16 0.92,-0.39 1.27,-0.67l1.51 1.68c-0.8,0.55 -1.56,0.94 -2.29,1.17 -0.73,0.23 -1.49,0.34 -2.28,0.34 -0.8,0 -1.53,-0.15 -2.2,-0.44 -0.66,-0.3 -1.22,-0.7 -1.68,-1.2 -0.46,-0.51 -0.81,-1.1 -1.03,-1.78 -0.23,-0.69 -0.31,-1.42 -0.23,-2.19 0.08,-0.78 0.3,-1.51 0.67,-2.19 0.36,-0.68 0.83,-1.28 1.39,-1.78 0.57,-0.5 1.21,-0.9 1.93,-1.2 0.72,-0.3 1.47,-0.44 2.26,-0.44 0.75,0 1.46,0.14 2.12,0.41 0.66,0.28 1.23,0.66 1.71,1.16 0.48,0.49 0.84,1.08 1.08,1.76 0.24,0.68 0.32,1.44 0.23,2.26zm-2.68 -1.03c-0.14,-0.68 -0.46,-1.22 -0.95,-1.64 -0.5,-0.41 -1.08,-0.62 -1.76,-0.62 -0.66,0 -1.28,0.21 -1.85,0.62 -0.57,0.42 -1,0.96 -1.27,1.64l5.83 0zm15.37 1.03c-0.02,0.17 -0.05,0.35 -0.09,0.54 -0.03,0.18 -0.07,0.37 -0.12,0.57l-8.53 0c0.07,0.31 0.18,0.6 0.33,0.88 0.15,0.27 0.35,0.51 0.58,0.71 0.24,0.21 0.52,0.37 0.83,0.48 0.32,0.12 0.67,0.18 1.07,0.18 0.48,0 0.96,-0.08 1.46,-0.25 0.5,-0.16 0.92,-0.39 1.27,-0.67l1.51 1.68c-0.8,0.55 -1.56,0.94 -2.29,1.17 -0.73,0.23 -1.49,0.34 -2.28,0.34 -0.8,0 -1.53,-0.15 -2.19,-0.44 -0.67,-0.3 -1.23,-0.7 -1.69,-1.2 -0.46,-0.51 -0.81,-1.1 -1.03,-1.78 -0.23,-0.69 -0.3,-1.42 -0.23,-2.19 0.08,-0.78 0.3,-1.51 0.67,-2.19 0.36,-0.68 0.83,-1.28 1.4,-1.78 0.56,-0.5 1.21,-0.9 1.92,-1.2 0.72,-0.3 1.48,-0.44 2.26,-0.44 0.76,0 1.46,0.14 2.12,0.41 0.66,0.28 1.23,0.66 1.71,1.16 0.48,0.49 0.84,1.08 1.08,1.76 0.24,0.68 0.32,1.44 0.24,2.26zm-2.69 -1.03c-0.14,-0.68 -0.46,-1.22 -0.95,-1.64 -0.49,-0.41 -1.08,-0.62 -1.76,-0.62 -0.66,0 -1.28,0.21 -1.85,0.62 -0.57,0.42 -0.99,0.96 -1.27,1.64l5.83 0zm13.96 6.38l-3.15 0 -3.81 -4.78 -0.48 4.78 -2.71 0 1.54 -15.3 2.71 0 -0.92 9.16 4.19 -4.53 3.1 0 -4.9 5.19 4.43 5.48zm9.05 -2.99c-0.05,0.53 -0.22,1 -0.51,1.42 -0.29,0.41 -0.64,0.75 -1.06,1.03 -0.43,0.28 -0.89,0.49 -1.4,0.63 -0.51,0.14 -1,0.21 -1.48,0.21 -0.82,0 -1.55,-0.15 -2.21,-0.45 -0.65,-0.3 -1.2,-0.79 -1.65,-1.45l1.77 -1.63c0.28,0.41 0.61,0.73 1.01,0.95 0.39,0.23 0.83,0.35 1.31,0.35 0.42,0 0.77,-0.08 1.07,-0.24 0.29,-0.15 0.45,-0.38 0.48,-0.69 0.03,-0.32 -0.14,-0.58 -0.51,-0.8 -0.37,-0.22 -0.9,-0.43 -1.6,-0.64 -0.4,-0.12 -0.79,-0.28 -1.17,-0.47 -0.37,-0.19 -0.7,-0.42 -0.98,-0.7 -0.28,-0.28 -0.49,-0.59 -0.64,-0.95 -0.15,-0.36 -0.2,-0.77 -0.15,-1.24 0.05,-0.51 0.22,-0.98 0.5,-1.39 0.28,-0.41 0.63,-0.76 1.05,-1.03 0.41,-0.28 0.88,-0.49 1.38,-0.64 0.51,-0.15 1.02,-0.22 1.52,-0.22 1.63,0 2.9,0.61 3.81,1.84l-1.75 1.61c-0.26,-0.38 -0.58,-0.68 -0.96,-0.91 -0.37,-0.22 -0.79,-0.33 -1.25,-0.33 -0.16,0 -0.34,0.02 -0.52,0.07 -0.18,0.04 -0.35,0.1 -0.52,0.18 -0.16,0.08 -0.29,0.19 -0.41,0.32 -0.11,0.12 -0.17,0.27 -0.19,0.43 -0.03,0.28 0.14,0.53 0.49,0.74 0.36,0.21 0.87,0.42 1.55,0.63 0.44,0.13 0.86,0.3 1.24,0.51 0.39,0.21 0.72,0.45 1,0.73 0.28,0.28 0.49,0.59 0.64,0.94 0.14,0.35 0.19,0.75 0.14,1.19zm56.11 2.99l-3.09 0 0.33 -3.3 3.3 0 -0.33 3.3 -0.21 0zm-2.58 -0.46l2.38 0 0.23 -2.38 -2.37 0 -0.24 2.38zm-42.91 0l2.4 0 1.43 -14.28 -2.39 0 -0.59 5.85 -6.28 0 0.59 -5.85 -2.4 0 -1.43 14.28 2.39 0 0.66 -6.54 6.28 0 -0.66 6.54zm16.79 -5.08c-0.04,0.42 -0.12,0.82 -0.23,1.2 -0.12,0.38 -0.27,0.75 -0.46,1.11 -0.19,0.35 -0.41,0.68 -0.64,0.99 -0.25,0.31 -0.51,0.59 -0.81,0.85 -0.29,0.25 -0.61,0.49 -0.94,0.69 -0.33,0.2 -0.69,0.38 -1.06,0.53 -0.38,0.15 -0.76,0.26 -1.15,0.34 -0.4,0.07 -0.8,0.11 -1.21,0.11 -0.4,0 -0.8,-0.04 -1.17,-0.11 -0.38,-0.08 -0.74,-0.19 -1.09,-0.34 -0.34,-0.16 -0.66,-0.33 -0.96,-0.54 -0.29,-0.21 -0.56,-0.45 -0.81,-0.71 -0.24,-0.26 -0.45,-0.55 -0.64,-0.86 -0.18,-0.32 -0.33,-0.65 -0.45,-1.01 -0.11,-0.35 -0.19,-0.73 -0.23,-1.11 -0.04,-0.38 -0.04,-0.78 0,-1.19 0.04,-0.4 0.12,-0.79 0.24,-1.17 0.11,-0.38 0.27,-0.75 0.46,-1.1 0.19,-0.35 0.41,-0.69 0.65,-0.99 0.24,-0.31 0.51,-0.6 0.81,-0.86 0.29,-0.27 0.6,-0.5 0.94,-0.71 0.33,-0.21 0.68,-0.39 1.05,-0.54 0.38,-0.15 0.76,-0.26 1.15,-0.33 0.38,-0.08 0.78,-0.12 1.18,-0.12 0.41,0 0.8,0.04 1.18,0.12 0.38,0.07 0.74,0.18 1.09,0.34 0.35,0.15 0.67,0.33 0.97,0.53 0.29,0.21 0.56,0.44 0.81,0.7 0.25,0.27 0.46,0.55 0.64,0.86 0.18,0.31 0.33,0.65 0.45,1.01 0.12,0.36 0.2,0.73 0.24,1.12 0.03,0.38 0.03,0.78 -0.01,1.19zm-0.68 1.07c0.11,-0.36 0.18,-0.73 0.22,-1.12 0.04,-0.38 0.04,-0.74 0,-1.1 -0.03,-0.35 -0.1,-0.69 -0.21,-1.02 -0.11,-0.33 -0.24,-0.63 -0.41,-0.91 -0.16,-0.29 -0.36,-0.55 -0.58,-0.78 -0.22,-0.24 -0.46,-0.45 -0.74,-0.64 -0.27,-0.19 -0.56,-0.35 -0.88,-0.49 -0.32,-0.14 -0.65,-0.24 -1,-0.31 -0.35,-0.07 -0.71,-0.1 -1.09,-0.1 -0.37,0 -0.74,0.03 -1.1,0.1 -0.36,0.07 -0.71,0.18 -1.05,0.31 -0.35,0.14 -0.68,0.31 -0.99,0.5 -0.31,0.2 -0.6,0.42 -0.87,0.66 -0.28,0.25 -0.53,0.51 -0.75,0.8 -0.23,0.29 -0.43,0.6 -0.61,0.93 -0.18,0.33 -0.32,0.67 -0.43,1.02 -0.11,0.35 -0.18,0.71 -0.22,1.08 -0.03,0.38 -0.04,0.74 0,1.1 0.04,0.35 0.11,0.68 0.21,1.01 0.11,0.33 0.25,0.63 0.42,0.91 0.16,0.28 0.35,0.55 0.57,0.79 0.23,0.24 0.47,0.45 0.74,0.64 0.27,0.19 0.56,0.35 0.88,0.49 0.31,0.14 0.64,0.24 0.99,0.31 0.34,0.07 0.71,0.1 1.08,0.1 0.38,0 0.76,-0.03 1.12,-0.1 0.36,-0.07 0.72,-0.17 1.07,-0.31 0.35,-0.14 0.68,-0.31 0.99,-0.5 0.31,-0.19 0.6,-0.4 0.88,-0.64 0.27,-0.24 0.52,-0.5 0.74,-0.79 0.23,-0.29 0.43,-0.59 0.6,-0.92 0.17,-0.32 0.31,-0.67 0.42,-1.02zm-2.44 -1.12c0.02,-0.21 0.03,-0.41 0.01,-0.61 -0.02,-0.2 -0.06,-0.39 -0.11,-0.57 -0.06,-0.18 -0.13,-0.35 -0.21,-0.51 -0.08,-0.16 -0.18,-0.31 -0.3,-0.44 -0.11,-0.14 -0.23,-0.26 -0.37,-0.36 -0.13,-0.11 -0.28,-0.2 -0.44,-0.27 -0.16,-0.08 -0.33,-0.14 -0.5,-0.17 -0.18,-0.04 -0.36,-0.06 -0.56,-0.06 -0.19,0 -0.38,0.02 -0.56,0.06 -0.19,0.03 -0.37,0.09 -0.55,0.17 -0.18,0.08 -0.35,0.17 -0.51,0.28 -0.16,0.11 -0.31,0.23 -0.45,0.37 -0.15,0.13 -0.28,0.28 -0.4,0.45 -0.11,0.16 -0.22,0.33 -0.31,0.52 -0.1,0.18 -0.17,0.37 -0.23,0.57 -0.06,0.2 -0.1,0.41 -0.12,0.62 -0.02,0.21 -0.02,0.42 0,0.62 0.01,0.19 0.05,0.38 0.1,0.56 0.06,0.18 0.13,0.35 0.21,0.52 0.09,0.15 0.19,0.3 0.3,0.43 0.11,0.14 0.24,0.26 0.37,0.36 0.14,0.11 0.29,0.2 0.45,0.28 0.16,0.07 0.32,0.13 0.5,0.17 0.17,0.03 0.36,0.05 0.55,0.05 0.2,0 0.39,-0.02 0.57,-0.05 0.18,-0.04 0.36,-0.1 0.54,-0.18 0.18,-0.07 0.35,-0.17 0.51,-0.28 0.16,-0.1 0.32,-0.23 0.46,-0.36 0.14,-0.14 0.27,-0.29 0.39,-0.45 0.12,-0.17 0.22,-0.34 0.32,-0.53 0.09,-0.18 0.17,-0.37 0.22,-0.57 0.06,-0.2 0.1,-0.4 0.12,-0.62zm0.47 -0.65c0.02,0.22 0.02,0.45 -0.01,0.7 -0.02,0.24 -0.07,0.47 -0.13,0.7 -0.07,0.23 -0.15,0.45 -0.26,0.65 -0.1,0.21 -0.22,0.41 -0.36,0.59 -0.13,0.18 -0.28,0.35 -0.44,0.51 -0.16,0.16 -0.34,0.3 -0.52,0.42 -0.18,0.12 -0.38,0.23 -0.58,0.32 -0.21,0.09 -0.42,0.15 -0.64,0.2 -0.22,0.04 -0.44,0.07 -0.66,0.07 -0.22,0 -0.44,-0.03 -0.65,-0.07 -0.21,-0.05 -0.41,-0.11 -0.6,-0.2 -0.19,-0.1 -0.37,-0.2 -0.53,-0.33 -0.16,-0.13 -0.31,-0.27 -0.45,-0.43 -0.13,-0.16 -0.25,-0.33 -0.35,-0.52 -0.09,-0.18 -0.17,-0.38 -0.24,-0.59 -0.06,-0.22 -0.11,-0.44 -0.13,-0.66 -0.02,-0.23 -0.01,-0.46 0.01,-0.71 0.02,-0.24 0.07,-0.47 0.13,-0.7 0.07,-0.22 0.16,-0.44 0.26,-0.65 0.11,-0.21 0.23,-0.41 0.36,-0.59 0.13,-0.18 0.28,-0.35 0.44,-0.51 0.17,-0.15 0.34,-0.29 0.52,-0.42 0.19,-0.12 0.38,-0.23 0.59,-0.32 0.2,-0.08 0.41,-0.15 0.63,-0.2 0.22,-0.04 0.44,-0.06 0.66,-0.06 0.23,0 0.44,0.02 0.65,0.06 0.21,0.05 0.41,0.12 0.61,0.21 0.18,0.09 0.36,0.19 0.53,0.32 0.16,0.13 0.31,0.27 0.44,0.43 0.13,0.16 0.25,0.33 0.35,0.52 0.1,0.19 0.18,0.38 0.24,0.6 0.07,0.21 0.11,0.43 0.13,0.66zm15.33 0.7c-0.04,0.42 -0.12,0.82 -0.23,1.2 -0.12,0.38 -0.27,0.75 -0.46,1.11 -0.19,0.35 -0.41,0.69 -0.64,0.99 -0.25,0.31 -0.52,0.59 -0.81,0.85 -0.29,0.25 -0.61,0.49 -0.94,0.69 -0.33,0.2 -0.69,0.38 -1.06,0.53 -0.38,0.15 -0.76,0.26 -1.15,0.34 -0.4,0.07 -0.8,0.11 -1.21,0.11 -0.4,0 -0.8,-0.04 -1.17,-0.11 -0.38,-0.08 -0.74,-0.19 -1.09,-0.34 -0.34,-0.16 -0.66,-0.33 -0.96,-0.54 -0.29,-0.21 -0.56,-0.45 -0.81,-0.71 -0.24,-0.26 -0.45,-0.55 -0.64,-0.86 -0.18,-0.32 -0.33,-0.65 -0.45,-1.01 -0.11,-0.35 -0.19,-0.73 -0.23,-1.11 -0.04,-0.38 -0.04,-0.78 0,-1.19 0.04,-0.4 0.12,-0.79 0.24,-1.17 0.11,-0.38 0.27,-0.75 0.46,-1.1 0.19,-0.35 0.41,-0.69 0.65,-0.99 0.24,-0.31 0.51,-0.6 0.81,-0.86 0.29,-0.27 0.6,-0.5 0.94,-0.71 0.33,-0.21 0.68,-0.39 1.05,-0.54 0.38,-0.15 0.76,-0.26 1.15,-0.33 0.38,-0.08 0.78,-0.12 1.18,-0.12 0.41,0 0.8,0.04 1.18,0.12 0.38,0.07 0.74,0.18 1.09,0.34 0.35,0.15 0.67,0.33 0.97,0.53 0.29,0.21 0.56,0.44 0.81,0.7 0.25,0.27 0.46,0.55 0.64,0.86 0.18,0.31 0.33,0.65 0.45,1.01 0.12,0.36 0.2,0.73 0.24,1.12 0.03,0.38 0.03,0.78 -0.01,1.19zm-0.68 1.07c0.11,-0.36 0.18,-0.73 0.22,-1.12 0.04,-0.38 0.04,-0.74 0,-1.1 -0.03,-0.35 -0.1,-0.69 -0.21,-1.02 -0.11,-0.33 -0.25,-0.63 -0.41,-0.91 -0.17,-0.29 -0.36,-0.55 -0.58,-0.78 -0.22,-0.24 -0.47,-0.45 -0.74,-0.64 -0.27,-0.19 -0.56,-0.35 -0.88,-0.49 -0.32,-0.14 -0.65,-0.24 -1,-0.31 -0.35,-0.07 -0.71,-0.1 -1.09,-0.1 -0.37,0 -0.74,0.03 -1.1,0.1 -0.36,0.07 -0.71,0.18 -1.05,0.31 -0.35,0.14 -0.68,0.31 -0.99,0.5 -0.31,0.2 -0.6,0.42 -0.87,0.66 -0.28,0.25 -0.53,0.51 -0.75,0.8 -0.23,0.29 -0.43,0.6 -0.61,0.93 -0.18,0.33 -0.32,0.67 -0.43,1.02 -0.11,0.35 -0.18,0.71 -0.22,1.08 -0.03,0.38 -0.04,0.74 0,1.1 0.03,0.35 0.11,0.68 0.21,1.01 0.11,0.33 0.25,0.63 0.41,0.91 0.17,0.28 0.36,0.55 0.58,0.79 0.23,0.24 0.47,0.45 0.74,0.64 0.27,0.19 0.56,0.35 0.88,0.49 0.31,0.14 0.64,0.24 0.99,0.31 0.34,0.07 0.71,0.1 1.08,0.1 0.38,0 0.76,-0.03 1.12,-0.1 0.36,-0.07 0.72,-0.17 1.07,-0.31 0.34,-0.14 0.68,-0.31 0.99,-0.5 0.31,-0.19 0.6,-0.4 0.88,-0.64 0.27,-0.24 0.52,-0.5 0.74,-0.79 0.23,-0.29 0.43,-0.59 0.6,-0.92 0.17,-0.32 0.31,-0.67 0.42,-1.02zm-2.44 -1.12c0.02,-0.21 0.02,-0.41 0.01,-0.61 -0.02,-0.2 -0.06,-0.39 -0.11,-0.57 -0.06,-0.18 -0.13,-0.35 -0.21,-0.51 -0.08,-0.16 -0.18,-0.31 -0.3,-0.44 -0.11,-0.14 -0.23,-0.26 -0.37,-0.36 -0.13,-0.11 -0.28,-0.2 -0.44,-0.27 -0.16,-0.08 -0.33,-0.14 -0.5,-0.17 -0.18,-0.04 -0.36,-0.06 -0.56,-0.06 -0.19,0 -0.38,0.02 -0.56,0.06 -0.19,0.03 -0.37,0.09 -0.55,0.17 -0.18,0.08 -0.35,0.17 -0.51,0.28 -0.16,0.11 -0.31,0.23 -0.45,0.37 -0.15,0.14 -0.28,0.29 -0.4,0.45 -0.11,0.16 -0.22,0.33 -0.31,0.52 -0.1,0.18 -0.17,0.37 -0.23,0.57 -0.06,0.2 -0.1,0.41 -0.12,0.62 -0.02,0.21 -0.02,0.42 0,0.62 0.01,0.19 0.05,0.38 0.1,0.56 0.06,0.18 0.13,0.35 0.21,0.52 0.09,0.15 0.19,0.3 0.3,0.43 0.11,0.14 0.24,0.26 0.37,0.36 0.14,0.11 0.29,0.2 0.45,0.28 0.16,0.07 0.32,0.13 0.5,0.17 0.17,0.03 0.36,0.05 0.55,0.05 0.2,0 0.39,-0.02 0.57,-0.05 0.18,-0.04 0.36,-0.1 0.54,-0.18 0.18,-0.07 0.35,-0.17 0.51,-0.28 0.16,-0.1 0.31,-0.23 0.46,-0.36 0.14,-0.14 0.27,-0.29 0.39,-0.45 0.12,-0.17 0.22,-0.34 0.32,-0.53 0.09,-0.18 0.17,-0.37 0.22,-0.57 0.06,-0.2 0.1,-0.4 0.12,-0.62zm0.47 -0.65c0.02,0.22 0.02,0.45 -0.01,0.7 -0.02,0.24 -0.07,0.47 -0.13,0.7 -0.07,0.23 -0.15,0.45 -0.26,0.65 -0.1,0.21 -0.22,0.41 -0.36,0.59 -0.13,0.18 -0.28,0.35 -0.44,0.51 -0.16,0.16 -0.34,0.3 -0.52,0.42 -0.18,0.12 -0.38,0.23 -0.58,0.32 -0.21,0.09 -0.42,0.15 -0.64,0.2 -0.22,0.04 -0.44,0.07 -0.66,0.07 -0.22,0 -0.44,-0.03 -0.65,-0.07 -0.21,-0.05 -0.41,-0.11 -0.6,-0.2 -0.19,-0.1 -0.37,-0.2 -0.53,-0.33 -0.16,-0.13 -0.31,-0.27 -0.45,-0.43 -0.13,-0.16 -0.25,-0.33 -0.35,-0.52 -0.09,-0.18 -0.17,-0.38 -0.24,-0.59 -0.06,-0.22 -0.11,-0.44 -0.13,-0.66 -0.02,-0.23 -0.01,-0.46 0.01,-0.71 0.02,-0.24 0.07,-0.47 0.13,-0.7 0.07,-0.22 0.16,-0.44 0.26,-0.65 0.11,-0.21 0.23,-0.41 0.36,-0.59 0.13,-0.18 0.28,-0.35 0.44,-0.51 0.17,-0.15 0.34,-0.29 0.52,-0.42 0.19,-0.12 0.38,-0.23 0.59,-0.32 0.2,-0.08 0.41,-0.15 0.63,-0.2 0.22,-0.04 0.44,-0.06 0.66,-0.06 0.23,0 0.44,0.02 0.65,0.06 0.21,0.05 0.41,0.12 0.6,0.21 0.19,0.09 0.37,0.19 0.53,0.32 0.17,0.13 0.32,0.27 0.45,0.43 0.13,0.16 0.25,0.33 0.35,0.52 0.1,0.19 0.18,0.38 0.24,0.6 0.07,0.21 0.11,0.43 0.13,0.66zm13.7 6.24l-3.27 0 -3.52 -4.42 -0.44 4.42 -3.18 0c0.53,-5.25 1.05,-10.51 1.58,-15.76l3.18 0 -0.87 8.72 3.78 -4.09 3.74 0 -5.13 5.43 4.61 5.7 -0.48 0zm-3.05 -0.46l2.56 0 -4.25 -5.26 4.66 -4.95 -2.46 0 -4.58 4.96 0.96 -9.59 -2.25 0 -1.49 14.84 2.25 0 0.52 -5.14 4.08 5.14z"/>
 </g>
</svg>
